<?xml version="1.0" standalone="no"?>
<!DOCTYPE svg PUBLIC "-//W3C//DTD SVG 1.1//EN" "http://www.w3.org/Graphics/SVG/1.1/DTD/svg11.dtd" >
<svg xmlns="http://www.w3.org/2000/svg">
<metadata></metadata>
<defs>
<font id="for_smartspecial" horiz-adv-x="965" >
<font-face units-per-em="2048" ascent="1638" descent="-410" />
<missing-glyph horiz-adv-x="502" />
<glyph horiz-adv-x="0" />
<glyph horiz-adv-x="682" />
<glyph unicode=" "  horiz-adv-x="502" />
<glyph unicode="&#x09;" horiz-adv-x="502" />
<glyph unicode="&#xa0;" horiz-adv-x="502" />
<glyph unicode="!" horiz-adv-x="504" d="M152 0v197h197v-197h-197zM168 1151h170l-22 -723h-125z" />
<glyph unicode="&#x22;" horiz-adv-x="774" d="M129 1286h182l-16 -541h-148zM463 1286h180l-16 -541h-148z" />
<glyph unicode="#" horiz-adv-x="991" d="M31 371v121h188l33 290h-221v123h236l45 381h135l-47 -381h235l45 381h136l-48 -381h193v-123h-207l-35 -290h242v-121h-256l-45 -396h-135l47 396h-236l-45 -396h-135l47 396h-172zM351 492h237l33 290h-236z" />
<glyph unicode="$" horiz-adv-x="989" d="M94 867q0 130 87 211q89 82 247 87v187h123v-201q63 -16 114 -51.5t64 -72.5l14 124h119v-348h-139q-7 66 -48 128q-70 104 -204 104q-113 0 -166 -55q-41 -43 -41 -113q0 -97 96 -154q50 -31 183 -74q187 -60 257 -117q101 -83 101 -225q0 -165 -110 -250 q-92 -72 -240 -72v-190h-123v207q-65 15 -120.5 54.5t-72.5 83.5l-12 -130h-123v326h139q17 -62 67 -120q84 -99 216 -99q93 0 149 44q60 48 60 136q0 77 -54.5 121t-214.5 96q-191 63 -263 123q-105 88 -105 240z" />
<glyph unicode="%" horiz-adv-x="1214" d="M61 924q0 110 71 186q69 74 174 74q122 0 191 -93q53 -72 53 -167q0 -111 -70 -187q-67 -73 -174 -73q-121 0 -191 93q-54 73 -54 167zM174 924q0 -69 36.5 -111.5t95.5 -42.5q60 0 95.5 42t35.5 112q0 71 -35.5 112.5t-95.5 41.5q-59 0 -95.5 -42.5t-36.5 -111.5zM208 0 l666 1151h113l-666 -1151h-113zM663 236q0 110 72 186q68 74 174 74q122 0 191 -93q53 -73 53 -167q0 -111 -70 -187q-67 -74 -174 -74q-122 0 -192 93q-54 73 -54 168zM776 236q0 -70 37 -112.5t96 -42.5q60 0 95.5 42t35.5 113q0 70 -35.5 112t-95.5 42q-59 0 -96 -42.5 t-37 -111.5z" />
<glyph unicode="&#x26;" horiz-adv-x="1167" d="M84 293q0 110 62 190.5t212 163.5q-86 101 -116.5 159t-30.5 120q0 101 66 168q80 82 239 82q153 0 232 -80q63 -64 63 -160q0 -177 -244 -323l203 -232q45 125 53 248h258v-123h-137q-27 -156 -76 -256l215 -250h-172l-131 143q-127 -168 -346 -168q-148 0 -247 82 q-103 86 -103 236zM244 293q0 -84 68 -141q60 -50 143 -50q154 0 241 148l-252 291q-103 -60 -147 -111q-53 -61 -53 -137zM365 926q0 -44 22 -82t96 -123q176 107 176 215q0 54 -39.5 87.5t-103.5 33.5q-70 0 -110.5 -35t-40.5 -96z" />
<glyph unicode="'" horiz-adv-x="442" d="M129 1286h182l-16 -541h-148z" />
<glyph unicode="(" horiz-adv-x="645" d="M147 395q0 261 102 554q44 124 84 202h170q-57 -103 -111 -258q-91 -264 -91 -498q0 -260 110 -556q47 -125 90 -204h-161q-55 103 -106 260q-87 265 -87 500z" />
<glyph unicode=")" horiz-adv-x="645" d="M141 1151h170q81 -157 133.5 -370t52.5 -386q0 -261 -106 -556q-44 -125 -86 -204h-162q57 104 110 261q90 265 90 499q0 260 -111 554q-47 123 -91 202z" />
<glyph unicode="*" horiz-adv-x="850" d="M61 1174l32 100l279 -79v278h109v-281l279 82l28 -100l-276 -80l174 -241l-94 -66l-169 242l-166 -242l-90 66l170 241z" />
<glyph unicode="+" horiz-adv-x="963" d="M129 522v119h287v287h131v-287h287v-119h-287v-286h-131v286h-287z" />
<glyph unicode="," horiz-adv-x="473" d="M6 -332l182 541h187l-222 -541h-147z" />
<glyph unicode="-" horiz-adv-x="1026" d="M164 463v123h698v-123h-698z" />
<glyph unicode="." horiz-adv-x="502" d="M152 0v190h197v-190h-197z" />
<glyph unicode="/" horiz-adv-x="700" d="M-20 -264l522 1442h137l-526 -1442h-133z" />
<glyph unicode="0" d="M80 557q0 293 108 459q105 162 295 162q217 0 321 -208q81 -160 81 -413q0 -287 -107 -437q-102 -145 -295 -145q-218 0 -321 186q-82 148 -82 396zM234 557q0 -222 63 -338q63 -117 186 -117q248 0 248 455q0 229 -62 360q-64 134 -186 134q-137 0 -202 -171 q-47 -127 -47 -323z" />
<glyph unicode="1" d="M139 1028l350 123h101v-1028h241v-123h-639v123h240v870l-250 -86z" />
<glyph unicode="2" d="M94 0v115l397 436q92 102 127 168t35 137q0 102 -80 155q-59 40 -143 40q-54 0 -110.5 -20.5t-90.5 -51.5v-158h-131v223q58 59 151.5 96.5t180.5 37.5q162 0 265 -87t103 -235q0 -100 -50 -195.5t-161 -206.5l-325 -331h446v190h131v-313h-745z" />
<glyph unicode="3" d="M111 88l86 102q38 -38 101.5 -63t123.5 -25q128 0 194 71q54 58 54 148q0 205 -273 205h-63v123h63q122 0 184 61q52 51 52 136q0 103 -66 157q-59 48 -159 48q-54 0 -111.5 -25.5t-93.5 -64.5l-88 102q59 53 143.5 84t167.5 31q184 0 278 -108q72 -83 72 -206 q0 -91 -38 -160q-44 -79 -130 -110q111 -36 165 -121q44 -69 44 -160q0 -178 -123 -267q-98 -71 -252 -71q-205 0 -331 113z" />
<glyph unicode="4" d="M63 319v117l459 715h172v-715h194v-117h-194v-196h139v-123h-430v123h150v196h-490zM206 436h347v543z" />
<glyph unicode="5" d="M129 88l84 105q36 -40 99.5 -65.5t125.5 -25.5q118 0 188 85q60 74 60 185q0 114 -71 178q-66 60 -177 60q-105 0 -215 -71l-78 61l93 551h530v-123h-420l-55 -336q88 51 192 51q159 0 254 -103q92 -99 92 -266q0 -187 -117 -298q-105 -101 -272 -101q-177 0 -313 113z " />
<glyph unicode="6" d="M119 551q0 392 188 545q102 82 236 82q74 0 153.5 -25.5t129.5 -65.5l-64 -108q-37 31 -97 51.5t-116 20.5q-113 0 -184 -85q-90 -107 -90 -335q50 56 121 88.5t143 32.5q162 0 251 -110q81 -100 81 -269q0 -219 -137 -325q-93 -73 -216 -73q-399 0 -399 576zM273 481 q0 -377 246 -377q93 0 151 75q56 73 56 194q0 120 -65 189q-58 61 -150 61q-67 0 -134.5 -40t-103.5 -102z" />
<glyph unicode="7" d="M129 807v344h735v-123l-453 -1028h-149l452 1028h-446v-221h-139z" />
<glyph unicode="8" d="M100 305q0 119 71 203q56 66 142 98q-81 31 -126.5 99t-45.5 160q0 176 133 257q88 54 207 54q143 0 233 -68q107 -81 107 -243q0 -92 -44.5 -159.5t-127.5 -99.5q100 -32 160 -120q55 -81 55 -181q0 -175 -148 -266q-104 -64 -235 -64q-155 0 -265 85q-116 90 -116 245z M250 313q0 -109 88 -168q64 -43 143 -43q92 0 160 57q71 58 71 154q0 108 -85 170q-65 48 -146 48q-97 0 -165 -62q-66 -61 -66 -156zM282 864q0 -102 72 -153q52 -37 127 -37q85 0 140 51q57 51 57 139q0 101 -71 154q-53 41 -126 41q-87 0 -143 -53t-56 -142z" />
<glyph unicode="9" d="M94 780q0 220 138 325q95 73 221 73q393 0 393 -576q0 -372 -170 -530q-105 -97 -252 -97q-88 0 -175 32t-135 81l84 105q36 -40 100 -65.5t128 -25.5q114 0 183 89q83 106 83 325q-50 -55 -121 -87t-145 -32q-158 0 -249 112q-83 102 -83 271zM241 780q0 -121 65 -192 q57 -62 148 -62q69 0 135.5 39.5t104.5 102.5q0 381 -244 381q-97 0 -153 -73q-56 -71 -56 -196z" />
<glyph unicode=":" horiz-adv-x="565" d="M184 0v190h197v-190h-197zM184 696v193h197v-193h-197z" />
<glyph unicode=";" horiz-adv-x="588" d="M31 -332l182 541h187l-222 -541h-147zM209 696v193h195v-193h-195z" />
<glyph unicode="&#x3c;" horiz-adv-x="791" d="M59 571l532 441l89 -107l-402 -334l402 -335l-89 -105z" />
<glyph unicode="=" horiz-adv-x="969" d="M129 358v121h711v-121h-711zM129 686v123h711v-123h-711z" />
<glyph unicode="&#x3e;" horiz-adv-x="791" d="M111 236l401 335l-401 334l88 107l533 -441l-533 -440z" />
<glyph unicode="?" horiz-adv-x="956" d="M111 854v231q70 39 168.5 65t172.5 26q171 0 274 -80q99 -78 99 -211q0 -90 -38.5 -148.5t-145.5 -130.5q-86 -58 -115.5 -97.5t-29.5 -96.5v-64h-158v64q0 88 36 144t137 123q86 58 116 100t30 106q0 74 -57.5 114t-163.5 40q-92 0 -178 -52v-133h-147zM320 0v197h195 v-197h-195z" />
<glyph unicode="@" horiz-adv-x="1391" d="M98 575q0 165 82 305q79 136 216 216q140 82 304 82q273 0 438 -151q154 -140 154 -368q0 -201 -124 -311q-93 -82 -214 -82q-61 0 -100.5 25t-46.5 69q-75 -94 -203 -94q-98 0 -155 61q-56 60 -56 166q0 208 122 324q87 84 187 84q145 0 189 -109l22 74h100l-108 -375 q-14 -51 -14 -82q0 -57 68 -57q102 0 168 90q63 85 63 217q0 216 -157 330q-129 95 -333 95q-226 0 -374 -170q-126 -145 -126 -339q0 -223 162 -374q142 -132 338 -132q93 0 186 34t144 87l57 -73q-62 -62 -171.5 -102t-215.5 -40q-163 0 -303 81q-137 80 -217 215 q-82 140 -82 304zM495 493q0 -65 33.5 -103t91.5 -38q136 0 185 168l28 94q13 41 13 74q0 60 -34.5 93.5t-96.5 33.5q-91 0 -157 -96q-63 -92 -63 -226z" />
<glyph unicode="A" horiz-adv-x="1159" d="M27 0v127h107l337 897h-161v127h344l373 -1024h108v-127h-393v127h137l-92 256h-412l-94 -256h139v-127h-393zM420 498h322l-162 448z" />
<glyph unicode="B" horiz-adv-x="1096" d="M100 0v127h139v897h-139v127h475q164 0 264 -73q109 -78 109 -228q0 -97 -43 -164q-42 -64 -117 -86q227 -56 227 -281q0 -169 -134 -252q-107 -67 -277 -67h-504zM399 127h201q132 0 198 61q57 52 57 140q0 106 -84 159q-64 41 -161 41h-211v-401zM399 657h186 q203 0 203 182q0 185 -227 185h-162v-367z" />
<glyph unicode="C" horiz-adv-x="1018" d="M88 572q0 296 146 464q124 142 313 142q114 0 201 -75q20 -16 69 -77l13 125h108v-348h-125q-15 92 -71 158q-70 82 -181 82q-157 0 -235 -148q-66 -123 -66 -328q0 -233 109 -357q88 -100 221 -100q69 0 138 34t106 87l100 -100q-49 -68 -149 -112t-205 -44 q-236 0 -372 184q-120 161 -120 413z" />
<glyph unicode="D" horiz-adv-x="1167" d="M100 0v127h139v897h-139v127h430q265 0 415 -171q134 -152 134 -398q0 -292 -172 -449q-146 -133 -377 -133h-430zM399 127h125q383 0 383 455q0 250 -136 362q-96 80 -247 80h-125v-897z" />
<glyph unicode="E" horiz-adv-x="1077" d="M100 0v127h139v897h-139v127h889v-336h-147v209h-443v-367h295v-129h-295v-401h443v219h147v-346h-889z" />
<glyph unicode="F" horiz-adv-x="1038" d="M100 0v127h139v897h-139v127h889v-334h-147v207h-443v-383h350v-127h-350v-387h205v-127h-504z" />
<glyph unicode="G" horiz-adv-x="1171" d="M88 578q0 302 168 468q134 132 325 132q143 0 240 -83q41 -36 59 -69l10 125h111v-348h-127q-13 76 -63 140q-77 98 -211 98q-170 0 -259 -139q-79 -121 -79 -324q0 -235 104 -359q91 -109 246 -109q131 0 233 62v287h-190v127h437v-127h-91v-357q-73 -55 -186.5 -91 t-216.5 -36q-219 0 -364 162q-146 164 -146 441z" />
<glyph unicode="H" horiz-adv-x="1290" d="M100 0v127h139v897h-139v127h438v-127h-139v-373h489v373h-139v127h441v-127h-140v-897h140v-127h-441v127h139v397h-489v-397h139v-127h-438z" />
<glyph unicode="I" horiz-adv-x="694" d="M86 0v127h180v897h-180v127h522v-127h-180v-897h180v-127h-522z" />
<glyph unicode="J" horiz-adv-x="973" d="M90 78v301h147v-219q74 -50 175 -50q103 0 151 73q39 58 39 155v686h-221v127h520v-127h-139v-686q0 -179 -99 -275q-92 -88 -253 -88q-151 0 -320 103z" />
<glyph unicode="K" horiz-adv-x="1149" d="M100 0v127h139v897h-139v127h424v-127h-127v-453l409 453h-88v127h404v-127h-133l-353 -375l347 -522h139v-127h-240l-356 541l-129 -142v-272h127v-127h-424z" />
<glyph unicode="L" horiz-adv-x="1030" d="M100 0v127h139v897h-139v127h438v-127h-139v-897h435v279h147v-406h-881z" />
<glyph unicode="M" horiz-adv-x="1511" d="M100 0v127h139v897h-139v127h375l280 -573l280 573h376v-127h-140v-897h140v-127h-437v127h139v864l-301 -606h-114l-301 608v-866h139v-127h-436z" />
<glyph unicode="N" horiz-adv-x="1315" d="M100 0v127h139v897h-139v127h362l490 -989v862h-127v127h414v-127h-140v-1024h-219l-494 981v-854h130v-127h-416z" />
<glyph unicode="O" horiz-adv-x="1174" d="M88 582q0 257 134 425q135 171 366 171q261 0 397 -216q100 -161 100 -380q0 -260 -133 -432q-134 -175 -364 -175q-262 0 -399 222q-101 164 -101 385zM262 582q0 -209 84 -338q86 -134 242 -134q176 0 261 170q62 123 62 302q0 207 -82 332q-86 129 -241 129 q-177 0 -263 -164q-63 -120 -63 -297z" />
<glyph unicode="P" horiz-adv-x="1069" d="M90 0v127h139v897h-139v127h485q198 0 309 -77q123 -86 123 -261q0 -202 -163 -287q-107 -55 -269 -55h-184v-344h139v-127h-440zM391 600h184q140 0 210 67q58 55 58 146q0 104 -76 160q-69 51 -192 51h-184v-424z" />
<glyph unicode="Q" horiz-adv-x="1206" d="M98 582q0 257 130 425q133 171 363 171q263 0 399 -214q101 -161 101 -382q0 -149 -48 -270q-47 -120 -132 -185h260v-127h-567q-270 0 -405 204q-101 154 -101 378zM272 582q0 -208 80 -331q83 -128 237 -128q185 0 269 161q61 116 61 296q0 207 -84 333 q-86 130 -244 130q-168 0 -254 -164q-65 -123 -65 -297z" />
<glyph unicode="R" horiz-adv-x="1159" d="M100 0v127h139v897h-139v127h454q459 0 459 -330q0 -125 -77 -207q-65 -71 -177 -98l224 -389h137v-127h-240l-272 493q-21 -2 -62 -2h-149v-364h143v-127h-440zM397 618h184q268 0 268 203t-295 203h-157v-406z" />
<glyph unicode="S" horiz-adv-x="989" d="M94 866q0 134 94 217q94 82 258 82q113 0 204 -58q65 -41 79 -81l14 125h119v-348h-139q-7 66 -48 127q-70 104 -204 104q-113 0 -166 -55q-41 -42 -41 -113q0 -97 96 -154q50 -30 183 -73q187 -61 256 -117q102 -83 102 -225q0 -166 -112 -251q-93 -71 -244 -71 q-135 0 -232 69q-60 43 -78 85l-12 -129h-123v326h139q17 -63 67 -121q84 -99 216 -99q102 0 159 53q50 47 50 127q0 77 -54.5 121.5t-214.5 96.5q-191 62 -263 122q-105 89 -105 240z" />
<glyph unicode="T" horiz-adv-x="1090" d="M49 705l31 446h927l33 -446l-133 -9l-21 328h-261v-897h161v-127h-483v127h162v897h-262l-19 -328z" />
<glyph unicode="U" horiz-adv-x="1255" d="M80 1024v127h438v-127h-139v-633q0 -281 248 -281q249 0 249 281v633h-139v127h439v-127h-138v-633q0 -198 -105 -307q-106 -109 -306 -109q-228 0 -331 140q-77 105 -77 276v633h-139z" />
<glyph unicode="V" horiz-adv-x="1176" d="M45 1024v127h395v-127h-129l276 -887l279 887h-129v127h395v-127h-111l-339 -1034h-189l-338 1034h-110z" />
<glyph unicode="W" horiz-adv-x="1604" d="M45 1024v127h406v-127h-135l186 -899l213 768h174l213 -768l186 899h-135v127h405v-127h-112l-234 -1034h-200l-211 710l-211 -710h-198l-234 1034h-113z" />
<glyph unicode="X" horiz-adv-x="1149" d="M45 0v127h127l297 448l-297 449h-127v127h440v-127h-131l221 -352l228 352h-137v127h438v-127h-127l-297 -436l297 -461h127v-127h-438v127h137l-228 362l-227 -362h137v-127h-440z" />
<glyph unicode="Y" horiz-adv-x="1149" d="M45 1024v127h406v-127h-121l246 -463l251 463h-123v127h400v-127h-111l-337 -606v-291h194v-127h-551v127h195v291l-336 606h-113z" />
<glyph unicode="Z" horiz-adv-x="944" d="M70 0v111l603 913h-450v-209h-145v336h787v-113l-601 -911h464v219h145v-346h-803z" />
<glyph unicode="[" horiz-adv-x="571" d="M166 -365v1516h344v-123h-199v-1270h199v-123h-344z" />
<glyph unicode="\" horiz-adv-x="700" d="M61 1178h137l522 -1442h-133z" />
<glyph unicode="]" horiz-adv-x="571" d="M61 -242h199v1270h-199v123h344v-1516h-344v123z" />
<glyph unicode="^" horiz-adv-x="942" d="M61 864l410 465l409 -465l-112 -92l-297 344q-48 -53 -299 -344z" />
<glyph unicode="_" horiz-adv-x="1415" d="M164 -209h1087v-123h-1087v123z" />
<glyph unicode="`" horiz-adv-x="578" d="M66 1397h168l231 -307h-141z" />
<glyph unicode="a" horiz-adv-x="1026" d="M88 266q0 158 125 229q85 48 210 48h236v68q0 180 -227 180q-144 0 -244 -47l-39 118q139 50 291 50q183 0 281 -86q96 -85 96 -242v-461h139v-123h-274l-11 109q-128 -134 -294 -134q-136 0 -213 76q-76 76 -76 215zM240 258q0 -76 43 -117t123 -41q61 0 129 34.5 t124 95.5v196h-190q-229 0 -229 -168z" />
<glyph unicode="b" horiz-adv-x="1118" d="M78 0v123h141v1032l-133 -10l-8 119l297 22v-547q42 80 120 126.5t171 46.5q159 0 259 -108q114 -122 114 -357q0 -266 -143 -389q-97 -83 -230 -83q-95 0 -173.5 43.5t-119.5 118.5l-10 -137h-285zM371 447q0 -195 97 -284q66 -61 161 -61q109 0 179 86q75 91 75 259 q0 189 -95 277q-65 61 -159 61q-110 0 -181 -82q-77 -90 -77 -256z" />
<glyph unicode="c" horiz-adv-x="936" d="M80 443q0 210 119 344q110 125 281 125q120 0 194 -67q31 -28 43 -54l11 98h102v-317h-117q-7 73 -49 131q-60 82 -170 82q-129 0 -198 -107q-58 -90 -58 -235q0 -166 80 -258q71 -83 188 -83q67 0 133.5 33t104.5 84l98 -86q-139 -158 -352 -158q-196 0 -311 149 q-99 128 -99 319z" />
<glyph unicode="d" horiz-adv-x="1102" d="M79 445q0 258 146 382q98 85 227 85q94 0 172.5 -46.5t118.5 -126.5v414l-193 -12l-8 123l359 22v-1163h140v-123h-286l-12 143q-80 -168 -293 -168q-149 0 -254 113q-117 126 -117 357zM237 445q0 -189 96 -280q66 -63 154 -63q114 0 185 82q77 90 77 261q0 180 -93 272 q-70 68 -167 68q-110 0 -179 -86q-73 -90 -73 -254z" />
<glyph unicode="e" horiz-adv-x="963" d="M80 461q0 191 98 314q108 137 312 137q237 0 332 -203q55 -118 55 -281v-31h-633q3 -142 87 -223q75 -72 193 -72q64 0 134 33t114 84l99 -88q-55 -68 -155 -112t-200 -44q-254 0 -364 185q-72 121 -72 301zM244 514h471q0 120 -56 193q-60 78 -169 78q-133 0 -198 -98 q-48 -72 -48 -173z" />
<glyph unicode="f" horiz-adv-x="684" d="M90 0v123h139v643h-139v123h139v125q0 172 126 237q67 35 159 35q89 0 201 -22l-16 -117q-100 16 -187 16q-59 0 -92 -37.5t-33 -103.5v-133h238v-123h-238v-643h235v-123h-532z" />
<glyph unicode="g" horiz-adv-x="1092" d="M80 451q0 259 147 381q97 80 217 80q196 0 300 -171v148h284v-123h-139v-772q0 -188 -137 -282q-112 -77 -295 -77h-238v123h242q270 0 270 252v137q-35 -75 -109.5 -116t-177.5 -41q-147 0 -249 107q-115 123 -115 354zM238 451q0 -181 91 -266q66 -60 163 -60 q115 0 182 76q74 84 74 250q0 180 -90 268q-67 66 -166 66q-113 0 -182 -85q-72 -88 -72 -249z" />
<glyph unicode="h" horiz-adv-x="1151" d="M74 1264l306 22v-512q133 138 282 138q160 0 222 -89q58 -85 58 -284v-416h140v-123h-424v123h126v416q0 139 -32 187q-35 51 -127 51q-63 0 -129 -34.5t-116 -95.5v-524h128v-123h-424v123h140v1030l-138 -12z" />
<glyph unicode="i" horiz-adv-x="645" d="M94 0v123h160v643h-160v123h318v-766h159v-123h-477zM233 1090v180h184v-180h-184z" />
<glyph unicode="j" horiz-adv-x="606" d="M-104 -242h131q231 0 231 252v756h-219v123h377v-867q0 -387 -373 -387h-147v123zM247 1090v180h184v-180h-184z" />
<glyph unicode="k" horiz-adv-x="1032" d="M76 1264l299 22v-823l313 303h-100v123h371v-123h-92l-271 -254l267 -389h114v-123h-205l-278 418l-119 -111v-307h-297v123h139v1032l-133 -10z" />
<glyph unicode="l" horiz-adv-x="635" d="M66 1262l336 24v-1163h170v-123h-496v123h170v1032l-172 -12z" />
<glyph unicode="m" horiz-adv-x="1556" d="M90 0v123h139v643h-139v123h283l8 -78q52 45 128.5 73t145.5 28q116 0 175 -93q125 93 284 93q131 0 197 -92q49 -69 49 -169v-528h127v-123h-285v608q0 87 -23 127q-29 50 -100 50q-42 0 -107.5 -22.5t-102.5 -49.5q8 -37 8 -92v-498h128v-123h-284v621q0 81 -25 119 q-30 45 -98 45q-43 0 -102.5 -23t-108.5 -60v-579h127v-123h-424z" />
<glyph unicode="n" horiz-adv-x="1157" d="M90 0v123h139v643h-139v123h274l11 -125q139 148 292 148q161 0 222 -89q59 -85 59 -284v-416h139v-123h-424v123h129v416q0 138 -33 187q-36 51 -129 51q-62 0 -114.5 -28t-128.5 -102v-524h127v-123h-424z" />
<glyph unicode="o" horiz-adv-x="979" d="M80 443q0 218 127 351q113 118 282 118q196 0 311 -151q99 -129 99 -318q0 -219 -127 -351q-113 -117 -283 -117q-195 0 -310 150q-99 128 -99 318zM238 443q0 -171 76 -262q67 -79 175 -79q127 0 195 102q59 90 59 239q0 171 -78 263q-66 79 -176 79q-125 0 -192 -103 q-59 -90 -59 -239z" />
<glyph unicode="p" horiz-adv-x="1120" d="M80 -242h139v1008h-139v123h297v-154q44 85 120 131t172 46q158 0 258 -107q113 -121 113 -358q0 -267 -143 -390q-96 -82 -230 -82q-93 0 -170.5 48t-119.5 133v-398h139v-123h-436v123zM373 447q0 -183 97 -277q70 -68 161 -68q103 0 173 82q78 93 78 263 q0 192 -97 280q-65 58 -152 58q-111 0 -182 -82q-78 -90 -78 -256z" />
<glyph unicode="q" horiz-adv-x="1122" d="M80 445q0 259 147 384q98 83 224 83q96 0 173.5 -46t118.5 -127v150h298v-123h-140v-1008h140v-123h-437v123h139v385q-78 -168 -290 -168q-153 0 -257 114q-116 126 -116 356zM238 445q0 -187 92 -277q66 -66 160 -66q111 0 181 82q78 90 78 261q0 186 -97 276 q-69 64 -164 64q-105 0 -174 -83q-76 -90 -76 -257z" />
<glyph unicode="r" horiz-adv-x="811" d="M90 0v123h139v643h-139v123h276l11 -121q75 77 138.5 110.5t135.5 33.5q74 0 129 -31l-47 -129q-55 27 -102 27q-89 0 -166 -67l-78 -83v-506h256v-123h-553z" />
<glyph unicode="s" horiz-adv-x="926" d="M102 0v268h113q12 -48 58 -92q79 -76 216 -76q182 0 182 133q0 63 -46 93t-177 51q-170 26 -243 76q-97 67 -97 203q0 105 62 171q78 85 243 85q89 0 159 -30t91 -77l13 84h98v-256h-113q-6 44 -43 85q-64 69 -186 69q-84 0 -130 -31.5t-46 -89.5q0 -70 47 -99.5 t199 -54.5q162 -25 233 -75q92 -64 92 -188q0 -148 -106 -219q-83 -55 -213 -55q-121 0 -216 55q-64 38 -79 72l-11 -102h-100z" />
<glyph unicode="t" horiz-adv-x="737" d="M160 285v866h158v-262h319v-123h-319v-467q0 -101 30.5 -145t100.5 -44q112 0 204 56l37 -119q-137 -72 -266 -72q-137 0 -200.5 74.5t-63.5 235.5z" />
<glyph unicode="u" horiz-adv-x="1124" d="M51 766v123h297v-559q0 -112 24 -159q35 -69 130 -69q96 0 189 81q39 35 62 67v516h-143v123h299v-766h139v-123h-272l-13 137q-130 -162 -296 -162q-158 0 -224 108q-53 87 -53 255v428h-139z" />
<glyph unicode="v" horiz-adv-x="1051" d="M47 766v123h375v-123h-129l231 -635l234 635h-127v123h372v-123h-98l-295 -776h-170l-295 776h-98z" />
<glyph unicode="w" horiz-adv-x="1421" d="M47 766v123h354v-123h-109l154 -633l193 594h143l191 -594l155 633h-106v123h352v-123h-102l-205 -776h-178l-179 547l-178 -547h-178l-207 776h-100z" />
<glyph unicode="x" horiz-adv-x="987" d="M57 0v123h78l254 326l-244 317h-74v123h330v-123h-98l190 -252l193 252h-84v123h311v-123h-68l-249 -315l252 -328h81v-123h-344v123h105l-197 268l-201 -268h109v-123h-344z" />
<glyph unicode="y" horiz-adv-x="1141" d="M47 766v123h403v-123h-131l250 -537l262 537h-129v123h392v-123h-113l-492 -1008h144v-123h-475v123h184l149 311l-333 697h-111z" />
<glyph unicode="z" horiz-adv-x="920" d="M109 0v105l528 661h-393v-178h-127v301h694v-109l-524 -657h399v178h125v-301h-702z" />
<glyph unicode="{" horiz-adv-x="643" d="M47 326v131q111 3 153 46.5t42 153.5v201q0 177 138 250q80 43 181 43h31v-127h-25q-76 0 -125 -39q-65 -51 -65 -162v-211q0 -174 -117 -221q117 -49 117 -219v-209q0 -124 81 -175q47 -30 109 -30h25v-123h-37q-119 0 -204 60q-109 77 -109 233v201q0 103 -32 142 q-44 55 -163 55z" />
<glyph unicode="|" horiz-adv-x="473" d="M164 -256v1434h145v-1434h-145z" />
<glyph unicode="}" horiz-adv-x="643" d="M51 -242h25q75 0 125 41q65 53 65 164v209q0 170 117 219q-117 47 -117 221v211q0 96 -50 148.5t-140 52.5h-25v127h31q122 0 208 -59q111 -76 111 -234v-201q0 -101 32 -141q44 -55 163 -59v-131q-111 0 -153 -42.5t-42 -154.5v-201q0 -175 -136 -249q-79 -44 -177 -44 h-37v123z" />
<glyph unicode="~" horiz-adv-x="997" d="M57 559q23 66 90 109t148 43q72 0 190 -74q108 -69 170 -69q51 0 99 34t71 86l104 -63q-25 -50 -76 -96q-86 -78 -190 -78q-48 0 -89.5 15.5t-109.5 60.5q-104 67 -169 67q-48 0 -87.5 -27t-54.5 -69z" />
<glyph unicode="&#xa2;" horiz-adv-x="936" d="M80 443q0 189 98 318q90 120 234 142v248h133v-246q57 -7 105.5 -39.5t66.5 -75.5l10 99h103v-317h-117q-8 73 -49 130q-60 82 -170 82q-129 0 -198 -106q-58 -90 -58 -235q0 -166 80 -258q71 -83 188 -83q66 0 133 33t105 84l98 -86q-117 -141 -297 -154v-229h-133v235 q-166 26 -257 170q-75 120 -75 288z" />
<glyph unicode="&#xa3;" horiz-adv-x="1018" d="M70 0v123h139v432h-139v123h139v135q0 198 128 284q91 62 241 62h100v-123h-78q-129 0 -182 -55q-51 -52 -51 -168v-135h311v-123h-311v-432h437v242h145v-365h-879z" />
<glyph unicode="&#xa5;" horiz-adv-x="1149" d="M45 1024v127h406v-127h-121l246 -463l251 463h-123v127h400v-127h-111l-199 -352h138v-88h-187l-69 -125h252v-88h-272v-244h194v-127h-551v127h195v244h-277v88h255l-70 125h-185v88h135l-194 352h-113z" />
<glyph unicode="&#xa8;" horiz-adv-x="901" d="M152 1090v180h186v-180h-186zM566 1090v180h184v-180h-184z" />
<glyph unicode="&#xa9;" horiz-adv-x="1352" d="M72 575q0 165 82 305q79 136 216 216q140 82 304 82q165 0 306 -82q136 -80 216 -216q82 -140 82 -305q0 -164 -82 -304q-80 -135 -216 -215q-141 -81 -306 -81q-164 0 -304 81q-137 80 -216 215q-82 140 -82 304zM174 575q0 -223 162 -374q142 -132 338 -132 q227 0 376 169q128 144 128 337q0 225 -164 377q-143 132 -340 132q-227 0 -374 -169q-126 -145 -126 -340zM369 575q0 161 92 247q74 69 186 69q88 0 164 -76v74h88v-207h-84q-14 49 -57.5 81t-96.5 32q-90 0 -140 -59q-48 -57 -48 -161q0 -114 76 -176q56 -45 127 -45 q104 0 172 60l43 -80q-35 -32 -98.5 -53t-126.5 -21q-120 0 -209 90q-88 89 -88 225z" />
<glyph unicode="&#xab;" horiz-adv-x="1104" d="M68 479l434 377l76 -88l-332 -289l332 -284l-80 -92zM486 479l434 377l76 -88l-332 -289l332 -284l-78 -92z" />
<glyph unicode="&#xad;" horiz-adv-x="1026" d="M164 463v123h698v-123h-698z" />
<glyph unicode="&#xae;" horiz-adv-x="1352" d="M72 575q0 165 82 305q79 136 216 216q140 82 304 82q165 0 306 -82q136 -80 216 -216q82 -140 82 -305q0 -164 -82 -304q-80 -135 -216 -215q-141 -81 -306 -81q-164 0 -304 81q-137 80 -216 215q-82 140 -82 304zM174 575q0 -223 162 -374q142 -132 338 -132 q227 0 376 169q128 144 128 337q0 225 -164 377q-143 132 -340 132q-227 0 -374 -169q-126 -145 -126 -340zM412 268v86h76v459h-76v86h248q254 0 254 -191q0 -135 -127 -172l96 -182h88v-86h-158l-125 248h-100v-248h-176zM588 602h94q128 0 128 106q0 105 -128 105h-94 v-211z" />
<glyph unicode="&#xb4;" horiz-adv-x="612" d="M86 1090l231 307h170l-258 -307h-143z" />
<glyph unicode="&#xb8;" horiz-adv-x="471" d="M61 -342l43 72q41 -35 108 -35q86 0 86 70q0 63 -112 63h-55l63 172h94l-34 -96q155 -7 155 -135q0 -73 -50.5 -117.5t-133.5 -44.5q-96 0 -164 51z" />
<glyph unicode="&#xbb;" horiz-adv-x="1104" d="M86 195l332 284l-332 289l76 88l434 -377l-432 -376zM504 195l332 284l-332 289l76 88l434 -377l-430 -376z" />
<glyph unicode="&#x2c6;" horiz-adv-x="866" d="M117 1090l231 307h168l232 -307h-142l-174 229l-172 -229h-143z" />
<glyph unicode="&#x2da;" horiz-adv-x="543" d="M88 1170q0 80 59 134q52 48 124 48q79 0 134 -61q48 -53 48 -121q0 -83 -61 -137q-52 -46 -121 -46q-85 0 -137 59q-46 51 -46 124zM184 1169q0 -35 25.5 -60.5t60.5 -25.5q37 0 63 25.5t26 60.5q0 38 -25.5 63.5t-63.5 25.5q-35 0 -60.5 -26t-25.5 -63z" />
<glyph unicode="&#x2dc;" horiz-adv-x="934" d="M96 1065q0 78 37 145q54 101 172 101q66 0 165 -73q81 -60 126 -60q96 0 96 133h117q0 -80 -33 -145q-52 -101 -168 -101q-44 0 -80.5 16t-94.5 59q-74 56 -116 56q-47 0 -75.5 -35.5t-28.5 -95.5h-117z" />
<glyph unicode="&#x400;" horiz-adv-x="1077" d="M100 0v127h139v897h-139v127h889v-336h-147v209h-443v-367h295v-129h-295v-401h443v219h147v-346h-889zM342 1593h168l231 -307h-141z" />
<glyph unicode="&#x401;" horiz-adv-x="1077" d="M100 0v127h139v897h-139v127h889v-336h-147v209h-443v-367h295v-129h-295v-401h443v219h147v-346h-889zM268 1286v180h186v-180h-186zM682 1286v180h184v-180h-184z" />
<glyph unicode="&#x402;" horiz-adv-x="1321" d="M41 813l23 338h925l25 -338l-133 -8l-13 219h-261v-406q129 72 267 72q184 0 281 -113q76 -88 76 -215v-43q0 -154 -78 -237q-77 -82 -223 -82v127q141 0 141 192v43q0 197 -219 197q-117 0 -245 -76v-356h151v-127h-473v127h162v897h-263l-10 -217z" />
<glyph unicode="&#x403;" horiz-adv-x="1014" d="M100 0v127h139v897h-139v127h831l31 -395l-145 -8l-19 276h-399v-897h139v-127h-438zM374 1286l231 307h168l-258 -307h-141z" />
<glyph unicode="&#x404;" horiz-adv-x="1018" d="M88 571q0 297 146 465q124 142 313 142q115 0 202 -78q11 -10 68 -80l13 131h108v-348h-125q-13 89 -70 157q-70 83 -182 83q-143 0 -223 -123q-69 -106 -76 -285h461v-121h-461q11 -206 117 -315q86 -89 211 -89q70 0 138.5 34t105.5 87l100 -100q-49 -68 -149 -112 t-205 -44q-236 0 -372 184q-120 161 -120 412z" />
<glyph unicode="&#x405;" horiz-adv-x="989" d="M94 866q0 134 94 217q94 82 258 82q113 0 204 -58q65 -41 79 -81l14 125h119v-348h-139q-7 66 -48 127q-70 104 -204 104q-113 0 -166 -55q-41 -42 -41 -113q0 -97 96 -154q50 -30 183 -73q187 -61 256 -117q102 -83 102 -225q0 -166 -112 -251q-93 -71 -244 -71 q-135 0 -232 69q-60 43 -78 85l-12 -129h-123v326h139q17 -63 67 -121q84 -99 216 -99q102 0 159 53q50 47 50 127q0 77 -54.5 121.5t-214.5 96.5q-191 62 -263 122q-105 89 -105 240z" />
<glyph unicode="&#x406;" horiz-adv-x="694" d="M86 0v127h180v897h-180v127h522v-127h-180v-897h180v-127h-522z" />
<glyph unicode="&#x407;" horiz-adv-x="702" d="M51 1286v180h186v-180h-186zM90 0v127h180v897h-180v127h522v-127h-180v-897h180v-127h-522zM465 1286v180h184v-180h-184z" />
<glyph unicode="&#x408;" horiz-adv-x="973" d="M90 78v301h147v-219q74 -50 175 -50q103 0 151 73q39 58 39 155v686h-221v127h520v-127h-139v-686q0 -179 -99 -275q-92 -88 -253 -88q-151 0 -320 103z" />
<glyph unicode="&#x409;" horiz-adv-x="1645" d="M61 0v127h63q201 0 201 288v609h-139v127h905v-127h-139v-367h205q182 0 290 -75q121 -85 121 -254q0 -190 -153 -273q-103 -55 -258 -55h-504v127h139v897h-311v-592q0 -248 -103 -349q-84 -83 -254 -83h-63zM952 127h200q115 0 184 51q72 53 72 150q0 109 -91 162 q-66 38 -165 38h-200v-401z" />
<glyph unicode="&#x40a;" horiz-adv-x="1737" d="M100 0v127h133v897h-133v127h430v-127h-137v-369h489v369h-139v127h440v-127h-139v-367h205q181 0 288 -75q121 -85 121 -254q0 -190 -153 -273q-102 -55 -256 -55h-506v127h139v401h-489v-401h137v-127h-430zM1044 127h198q115 0 184 51q72 52 72 150q0 111 -91 163 q-66 37 -165 37h-198v-401z" />
<glyph unicode="&#x40b;" horiz-adv-x="1378" d="M49 827l22 324h926l23 -324l-132 -6l-12 203h-261v-457q127 107 263 107q166 0 239 -90q65 -78 65 -232v-225h139v-127h-441v127h140v190q0 131 -44 182q-40 48 -131 48q-123 0 -230 -101v-319h139v-127h-439v127h140v897h-263l-12 -203z" />
<glyph unicode="&#x40c;" horiz-adv-x="1085" d="M100 0v127h139v897h-139v127h424v-127h-127v-375h121q64 0 105 45q42 48 83 166l100 291h246v-127h-135l-72 -203q-72 -204 -159 -238q87 -33 141 -182l96 -274h135v-127h-245l-123 356q-32 90 -71 128t-101 38h-121v-395h127v-127h-424zM426 1286l231 307h168l-258 -307 h-141z" />
<glyph unicode="&#x40d;" horiz-adv-x="1288" d="M100 0v127h139v897h-139v127h426v-127h-140v-778l513 905h288v-127h-139v-897h139v-127h-425v127h139v764l-507 -891h-294zM424 1593h168l231 -307h-141z" />
<glyph unicode="&#x40e;" horiz-adv-x="1112" d="M35 1024v127h403v-127h-131l240 -535l256 535h-111v127h385v-127h-125l-401 -825q-57 -118 -117 -158.5t-178 -40.5h-166v127h166q61 0 100 26.5t66 86.5l53 108l-319 676h-121zM256 1563h121q0 -195 192 -195q195 0 195 195h119q0 -112 -49 -184q-78 -113 -265 -113 q-208 0 -280 140q-33 65 -33 157z" />
<glyph unicode="&#x40f;" horiz-adv-x="1290" d="M100 0v127h139v897h-139v127h438v-127h-139v-897h489v897h-139v127h441v-127h-140v-897h140v-127h-472v-276h-147v276h-471z" />
<glyph unicode="&#x410;" horiz-adv-x="1159" d="M27 0v127h107l337 897h-161v127h344l373 -1024h108v-127h-393v127h137l-92 256h-412l-94 -256h139v-127h-393zM420 498h322l-162 448z" />
<glyph unicode="&#x411;" horiz-adv-x="1104" d="M100 0v127h139v897h-139v127h854v-322h-145v195h-410v-367h205q183 0 290 -75q121 -85 121 -254q0 -190 -153 -273q-103 -55 -258 -55h-504zM399 127h201q115 0 184 51q72 52 72 150q0 111 -91 163q-66 37 -165 37h-201v-401z" />
<glyph unicode="&#x412;" horiz-adv-x="1096" d="M100 0v127h139v897h-139v127h475q164 0 264 -73q109 -78 109 -228q0 -97 -43 -164q-42 -64 -117 -86q227 -56 227 -281q0 -169 -134 -252q-107 -67 -277 -67h-504zM399 127h201q132 0 198 61q57 52 57 140q0 106 -84 159q-64 41 -161 41h-211v-401zM399 657h186 q203 0 203 182q0 185 -227 185h-162v-367z" />
<glyph unicode="&#x413;" horiz-adv-x="1014" d="M100 0v127h139v897h-139v127h831l31 -395l-145 -8l-19 276h-399v-897h139v-127h-438z" />
<glyph unicode="&#x414;" horiz-adv-x="1188" d="M55 127h149q134 89 134 315v582h-140v127h889v-127h-139v-897h139v-403h-145v276h-742v-276h-145v403zM379 127h409v897h-290v-582q0 -104 -33 -191t-86 -124z" />
<glyph unicode="&#x415;" horiz-adv-x="1077" d="M100 0v127h139v897h-139v127h889v-336h-147v209h-443v-367h295v-129h-295v-401h443v219h147v-346h-889z" />
<glyph unicode="&#x416;" horiz-adv-x="1534" d="M27 0v127h133l98 274q55 151 139 182q-86 36 -157 238l-74 203h-133v127h246l100 -291q41 -118 82.5 -164.5t106.5 -46.5h121v375h-140v127h436v-127h-138v-375h120q64 0 105 45q43 48 83 166l101 291h246v-127h-135l-72 -203q-72 -203 -160 -238q88 -34 141 -182 l97 -274h135v-127h-246l-123 356q-32 90 -71 128t-101 38h-120v-395h138v-127h-436v127h140v395h-121q-63 0 -103 -38.5t-70 -127.5l-122 -356h-246z" />
<glyph unicode="&#x417;" horiz-adv-x="967" d="M90 823v328h109l14 -115q78 142 277 142q185 0 280 -107q74 -83 74 -207q0 -96 -46 -165q-48 -75 -142 -105q125 -33 185 -126q46 -72 46 -167q0 -174 -136 -259q-106 -67 -272 -67q-141 0 -256 54q-19 10 -119 71l84 115q46 -46 121.5 -75.5t147.5 -29.5q135 0 203 66 q55 55 55 145q0 205 -283 205h-55v123h55q142 0 204 75q40 49 40 122q0 98 -64 152q-57 47 -153 47q-208 0 -242 -222h-127z" />
<glyph unicode="&#x418;" horiz-adv-x="1288" d="M100 0v127h139v897h-139v127h426v-127h-140v-778l513 905h288v-127h-139v-897h139v-127h-425v127h139v764l-507 -891h-294z" />
<glyph unicode="&#x419;" horiz-adv-x="1288" d="M100 0v127h139v897h-139v127h426v-127h-140v-778l513 905h288v-127h-139v-897h139v-127h-425v127h139v764l-507 -891h-294zM338 1563h121q0 -195 192 -195q195 0 195 195h119q0 -112 -49 -184q-78 -113 -265 -113q-208 0 -280 140q-33 65 -33 157z" />
<glyph unicode="&#x41a;" horiz-adv-x="1085" d="M100 0v127h139v897h-139v127h424v-127h-127v-375h121q64 0 105 45q42 48 83 166l100 291h246v-127h-135l-72 -203q-72 -204 -159 -238q87 -33 141 -182l96 -274h135v-127h-245l-123 356q-32 90 -71 128t-101 38h-121v-395h127v-127h-424z" />
<glyph unicode="&#x41b;" horiz-adv-x="1194" d="M55 0v127h66q86 0 132 47q66 69 66 242v608h-139v127h903v-127h-129v-897h139v-127h-438v127h139v897h-313v-608q0 -232 -103 -332q-86 -84 -253 -84h-70z" />
<glyph unicode="&#x41c;" horiz-adv-x="1511" d="M100 0v127h139v897h-139v127h375l280 -573l280 573h376v-127h-140v-897h140v-127h-437v127h139v864l-301 -606h-114l-301 608v-866h139v-127h-436z" />
<glyph unicode="&#x41d;" horiz-adv-x="1290" d="M100 0v127h139v897h-139v127h438v-127h-139v-373h489v373h-139v127h441v-127h-140v-897h140v-127h-441v127h139v397h-489v-397h139v-127h-438z" />
<glyph unicode="&#x41e;" horiz-adv-x="1174" d="M88 582q0 257 134 425q135 171 366 171q261 0 397 -216q100 -161 100 -380q0 -260 -133 -432q-134 -175 -364 -175q-262 0 -399 222q-101 164 -101 385zM262 582q0 -209 84 -338q86 -134 242 -134q176 0 261 170q62 123 62 302q0 207 -82 332q-86 129 -241 129 q-177 0 -263 -164q-63 -120 -63 -297z" />
<glyph unicode="&#x41f;" horiz-adv-x="1264" d="M100 0v127h139v897h-139v127h1063v-127h-139v-897h139v-127h-434v127h139v897h-471v-897h139v-127h-436z" />
<glyph unicode="&#x420;" horiz-adv-x="1069" d="M90 0v127h139v897h-139v127h485q198 0 309 -77q123 -86 123 -261q0 -202 -163 -287q-107 -55 -269 -55h-184v-344h139v-127h-440zM391 600h184q140 0 210 67q58 55 58 146q0 104 -76 160q-69 51 -192 51h-184v-424z" />
<glyph unicode="&#x421;" horiz-adv-x="1018" d="M88 572q0 296 146 464q124 142 313 142q114 0 201 -75q20 -16 69 -77l13 125h108v-348h-125q-15 92 -71 158q-70 82 -181 82q-157 0 -235 -148q-66 -123 -66 -328q0 -233 109 -357q88 -100 221 -100q69 0 138 34t106 87l100 -100q-49 -68 -149 -112t-205 -44 q-236 0 -372 184q-120 161 -120 413z" />
<glyph unicode="&#x422;" horiz-adv-x="1090" d="M49 705l31 446h927l33 -446l-133 -9l-21 328h-261v-897h161v-127h-483v127h162v897h-262l-19 -328z" />
<glyph unicode="&#x423;" horiz-adv-x="1112" d="M35 1024v127h403v-127h-131l240 -535l256 535h-111v127h385v-127h-125l-401 -825q-57 -118 -117 -158.5t-178 -40.5h-166v127h166q61 0 100 26.5t66 86.5l53 108l-319 676h-121z" />
<glyph unicode="&#x424;" horiz-adv-x="1106" d="M47 582q0 145 138 235q114 75 288 88v119h-158v127h475v-127h-157v-119q199 -15 318 -112q107 -88 107 -215q0 -149 -134 -240q-113 -77 -291 -88v-123h157v-127h-475v127h158v123q-195 11 -312 101q-114 88 -114 231zM209 578q0 -106 80 -163q68 -49 184 -57v439 q-135 -10 -203 -72q-61 -56 -61 -147zM633 358q132 9 201 69q62 55 62 146q0 104 -80 164q-69 50 -183 58v-437z" />
<glyph unicode="&#x425;" horiz-adv-x="1149" d="M45 0v127h127l297 448l-297 449h-127v127h440v-127h-131l221 -352l228 352h-137v127h438v-127h-127l-297 -436l297 -461h127v-127h-438v127h137l-228 362l-227 -362h137v-127h-440z" />
<glyph unicode="&#x426;" horiz-adv-x="1290" d="M100 0v127h139v897h-139v127h436v-127h-137v-897h489v897h-135v127h437v-127h-140v-897h127v-403h-145v276h-932z" />
<glyph unicode="&#x427;" horiz-adv-x="1190" d="M27 1024v127h438v-127h-139v-252q0 -128 49 -182q44 -47 135 -47q70 0 153.5 30t127.5 70v381h-139v127h438v-127h-139v-897h139v-127h-438v127h139v395q-57 -48 -142 -77t-172 -29q-311 0 -311 321v287h-139z" />
<glyph unicode="&#x428;" horiz-adv-x="1589" d="M100 0v127h139v897h-139v127h393v-127h-94v-897h313v897h-94v127h348v-127h-94v-897h315v897h-92v127h394v-127h-140v-897h140v-127h-1389z" />
<glyph unicode="&#x429;" horiz-adv-x="1589" d="M100 0v127h139v897h-139v127h393v-127h-94v-897h313v897h-94v127h348v-127h-94v-897h315v897h-92v127h394v-127h-140v-897h140v-403h-147v276h-1242z" />
<glyph unicode="&#x42a;" horiz-adv-x="1309" d="M49 829v322h858v-127h-292v-367h204q183 0 291 -75q121 -85 121 -254q0 -190 -153 -273q-103 -55 -259 -55h-504v127h140v897h-259v-195h-147zM615 127h200q115 0 183 51q71 52 71 150q0 111 -90 163q-65 37 -164 37h-200v-401z" />
<glyph unicode="&#x42b;" horiz-adv-x="1606" d="M100 0v127h139v897h-139v127h438v-127h-139v-367h205q182 0 290 -75q121 -85 121 -254q0 -190 -153 -273q-103 -55 -258 -55h-504zM399 127h200q115 0 184 51q72 53 72 150q0 109 -91 162q-66 38 -165 38h-200v-401zM1075 0v127h135v897h-135v127h430v-127h-135v-897h135 v-127h-430z" />
<glyph unicode="&#x42c;" horiz-adv-x="1094" d="M100 0v127h139v897h-139v127h438v-127h-139v-367h205q182 0 290 -75q121 -85 121 -254q0 -190 -153 -273q-103 -55 -258 -55h-504zM399 127h200q115 0 184 51q72 53 72 150q0 109 -91 162q-66 38 -165 38h-200v-401z" />
<glyph unicode="&#x42d;" horiz-adv-x="1028" d="M80 803v348h109l12 -131l40 51q96 107 232 107q216 0 344 -184q113 -164 113 -423q0 -289 -154 -454q-133 -142 -336 -142q-159 0 -279 86q-50 36 -75 70l98 100q37 -53 106 -87t140 -34q143 0 233 116q84 108 95 288h-416v121h416q-12 207 -98 313q-77 95 -203 95 q-125 0 -196 -103q-44 -62 -54 -137h-127z" />
<glyph unicode="&#x42e;" horiz-adv-x="1704" d="M100 0v127h135v897h-135v127h430v-127h-135v-383h217q17 235 148 385q133 152 347 152q262 0 397 -216q101 -161 101 -381q0 -259 -133 -431q-135 -175 -365 -175q-241 0 -378 195q-101 144 -117 348h-217v-391h135v-127h-430zM784 579q0 -207 83 -336q86 -133 240 -133 q177 0 263 168q63 124 63 301q0 209 -82 334q-85 130 -244 130q-175 0 -260 -165q-63 -121 -63 -299z" />
<glyph unicode="&#x42f;" horiz-adv-x="1159" d="M39 0v127h137l224 389q-128 31 -195 118q-59 78 -59 187q0 330 459 330h454v-127h-139v-897h139v-127h-440v127h143v364h-149q-41 0 -62 2l-272 -493h-240zM310 821q0 -203 268 -203h184v406h-157q-295 0 -295 -203z" />
<glyph unicode="&#x430;" horiz-adv-x="1026" d="M88 266q0 158 125 229q85 48 210 48h236v68q0 180 -227 180q-144 0 -244 -47l-39 118q139 50 291 50q183 0 281 -86q96 -85 96 -242v-461h139v-123h-274l-11 109q-128 -134 -294 -134q-136 0 -213 76q-76 76 -76 215zM240 258q0 -76 43 -117t123 -41q61 0 129 34.5 t124 95.5v196h-190q-229 0 -229 -168z" />
<glyph unicode="&#x431;" horiz-adv-x="1010" d="M94 506v137q0 273 79 414q95 168 308 168q268 0 340 49l37 -113q-86 -57 -315 -57q-288 0 -293 -330q43 65 112.5 101.5t149.5 36.5q196 0 306 -145q95 -125 95 -324q0 -210 -110 -339q-111 -129 -306 -129q-192 0 -298 139q-105 138 -105 392zM250 440q0 -169 79 -260 q68 -78 177 -78q126 0 193 102q58 89 58 239q0 171 -76 263q-66 79 -173 79q-126 0 -196 -104q-62 -91 -62 -241z" />
<glyph unicode="&#x432;" horiz-adv-x="1024" d="M90 0v123h139v643h-139v123h436q170 0 262 -55q93 -56 93 -164q0 -152 -162 -202q227 -48 227 -220q0 -130 -127 -196q-102 -52 -264 -52h-465zM387 123h172q229 0 229 141q0 142 -235 142h-166v-283zM387 515h149q187 0 187 131q0 56 -51.5 88t-141.5 32h-143v-251z" />
<glyph unicode="&#x433;" horiz-adv-x="924" d="M90 766v123h752l21 -395l-132 -11l-18 283h-311v-643h139v-123h-441v123h140v643h-150z" />
<glyph unicode="&#x434;" horiz-adv-x="1124" d="M41 123h133q69 48 100 123q31 77 31 197v323h-127v123h856v-123h-127v-643h121v-399h-145v276h-695v-276h-147v399zM346 123h403v643h-286v-323q0 -222 -117 -320z" />
<glyph unicode="&#x435;" horiz-adv-x="963" d="M80 461q0 191 98 314q108 137 312 137q237 0 332 -203q55 -118 55 -281v-31h-633q3 -142 87 -223q75 -72 193 -72q64 0 134 33t114 84l99 -88q-55 -68 -155 -112t-200 -44q-254 0 -364 185q-72 121 -72 301zM244 514h471q0 120 -56 193q-60 78 -169 78q-133 0 -198 -98 q-48 -72 -48 -173z" />
<glyph unicode="&#x436;" horiz-adv-x="1538" d="M51 0v123h139l95 186q57 109 127 141q-79 33 -146 166l-76 150h-139v123h248l106 -226q46 -94 82.5 -127t98.5 -33h108v263h-139v123h436v-123h-139v-263h108q64 0 100 33q38 34 81 127l106 226h240v-123h-139l-74 -150q-40 -78 -70.5 -113.5t-68.5 -50.5 q79 -40 127 -143l86 -186h139v-123h-240l-123 274q-32 70 -68 97.5t-96 27.5h-108v-276h139v-123h-436v123h139v276h-108q-60 0 -96 -27.5t-68 -97.5l-123 -274h-248z" />
<glyph unicode="&#x437;" horiz-adv-x="840" d="M78 633v256h90l12 -92q85 115 257 115q169 0 250 -87q61 -65 61 -163q0 -79 -43 -134.5t-121 -76.5q186 -55 186 -222q0 -137 -122 -203q-95 -51 -245 -51q-190 0 -323 80l64 111q43 -30 114 -49t138 -19q227 0 227 148q0 139 -230 139h-55v119h55q214 0 214 142 q0 143 -211 143q-132 0 -185 -86q-23 -36 -24 -70h-109z" />
<glyph unicode="&#x438;" horiz-adv-x="1200" d="M90 0v123h139v643h-139v123h426v-123h-140v-559l443 682h291v-123h-139v-643h139v-123h-428v123h139v545l-437 -668h-294z" />
<glyph unicode="&#x439;" horiz-adv-x="1200" d="M90 0v123h139v643h-139v123h426v-123h-140v-559l443 682h291v-123h-139v-643h139v-123h-428v123h139v545l-437 -668h-294zM299 1411h121q0 -195 192 -195q94 0 144.5 50.5t50.5 144.5h119q0 -111 -56 -188q-80 -109 -258 -109q-199 0 -274 136q-39 70 -39 161z" />
<glyph unicode="&#x43a;" horiz-adv-x="1057" d="M90 0v123h139v643h-139v123h297v-375h113q60 0 99.5 44.5t88.5 166.5l65 164h252v-123h-139l-66 -143q-38 -82 -66.5 -118t-68.5 -54q82 -30 129 -152l72 -176h139v-123h-252l-82 221q-31 90 -70.5 128t-100.5 38h-113v-387h-297z" />
<glyph unicode="&#x43b;" horiz-adv-x="1100" d="M49 0v123h54q85 0 121 47t36 158v438h-139v123h889v-123h-140v-643h140v-123h-437v123h139v643h-294v-416q0 -183 -61 -259q-73 -91 -254 -91h-54z" />
<glyph unicode="&#x43c;" horiz-adv-x="1354" d="M90 0v123h139v643h-139v123h356l232 -438l229 438h357v-123h-140v-643h140v-123h-435v123h139v604l-233 -424h-115l-233 426v-606h139v-123h-436z" />
<glyph unicode="&#x43d;" horiz-adv-x="1182" d="M90 0v123h139v643h-139v123h424v-123h-127v-258h409v258h-128v123h423v-123h-139v-643h139v-123h-423v123h128v262h-409v-262h127v-123h-424z" />
<glyph unicode="&#x43e;" horiz-adv-x="979" d="M80 443q0 218 127 351q113 118 282 118q196 0 311 -151q99 -129 99 -318q0 -219 -127 -351q-113 -117 -283 -117q-195 0 -310 150q-99 128 -99 318zM238 443q0 -171 76 -262q67 -79 175 -79q127 0 195 102q59 90 59 239q0 171 -78 263q-66 79 -176 79q-125 0 -192 -103 q-59 -90 -59 -239z" />
<glyph unicode="&#x43f;" horiz-adv-x="1178" d="M90 0v123h139v643h-139v123h997v-123h-139v-643h139v-123h-424v123h129v643h-405v-643h127v-123h-424z" />
<glyph unicode="&#x440;" horiz-adv-x="1120" d="M80 -242h139v1008h-139v123h297v-154q44 85 120 131t172 46q158 0 258 -107q113 -121 113 -358q0 -267 -143 -390q-96 -82 -230 -82q-93 0 -170.5 48t-119.5 133v-398h139v-123h-436v123zM373 447q0 -183 97 -277q70 -68 161 -68q103 0 173 82q78 93 78 263 q0 192 -97 280q-65 58 -152 58q-111 0 -182 -82q-78 -90 -78 -256z" />
<glyph unicode="&#x441;" horiz-adv-x="936" d="M80 443q0 210 119 344q110 125 281 125q120 0 194 -67q31 -28 43 -54l11 98h102v-317h-117q-7 73 -49 131q-60 82 -170 82q-129 0 -198 -107q-58 -90 -58 -235q0 -166 80 -258q71 -83 188 -83q67 0 133.5 33t104.5 84l98 -86q-139 -158 -352 -158q-196 0 -311 149 q-99 128 -99 319z" />
<glyph unicode="&#x442;" horiz-adv-x="1044" d="M70 494l20 395h863l20 -395l-121 -6l-18 278h-233v-643h139v-123h-434v123h139v643h-236l-16 -278z" />
<glyph unicode="&#x443;" horiz-adv-x="1139" d="M47 766v123h399v-123h-131l248 -615l254 615h-115v123h392v-123h-123l-404 -906q-59 -128 -124.5 -176.5t-182.5 -48.5h-154v123h154q56 0 94 25.5t69 85.5l64 133l-328 764h-112z" />
<glyph unicode="&#x444;" horiz-adv-x="1642" d="M80 447q0 266 145 386q96 79 228 79q197 0 291 -173v416l-134 -10l-8 119l300 22v-547q39 80 116.5 126.5t170.5 46.5q156 0 257 -107q116 -122 116 -358q0 -266 -143 -389q-96 -83 -230 -83q-97 0 -179 46t-121 122v-389h145v-119h-436v119h146v389q-86 -168 -291 -168 q-157 0 -259 112q-114 124 -114 360zM234 447q0 -192 96 -284q67 -65 160 -65q113 0 184 82q78 91 78 267q0 191 -99 280q-68 62 -163 62q-111 0 -180 -82q-76 -90 -76 -260zM893 447q0 -198 98 -288q66 -61 161 -61q109 0 180 86q76 93 76 263q0 192 -96 281 q-66 61 -160 61q-110 0 -181 -83q-78 -91 -78 -259z" />
<glyph unicode="&#x445;" horiz-adv-x="987" d="M57 0v123h78l254 326l-244 317h-74v123h330v-123h-98l190 -252l193 252h-84v123h311v-123h-68l-249 -315l252 -328h81v-123h-344v123h105l-197 268l-201 -268h109v-123h-344z" />
<glyph unicode="&#x446;" horiz-adv-x="1178" d="M90 0v123h139v643h-139v123h424v-123h-127v-643h405v643h-129v123h424v-123h-139v-643h139v-399h-145v276h-852z" />
<glyph unicode="&#x447;" horiz-adv-x="1110" d="M20 766v123h426v-123h-129v-135q0 -131 44 -183q41 -47 130 -47q123 0 231 101v264h-127v123h424v-123h-139v-643h139v-123h-436v123h139v258q-123 -109 -264 -109q-165 0 -236 90q-63 78 -63 234v170h-139z" />
<glyph unicode="&#x448;" horiz-adv-x="1554" d="M90 0v123h139v643h-139v123h395v-123h-98v-643h311v643h-98v123h354v-123h-98v-643h313v643h-98v123h393v-123h-139v-643h139v-123h-1374z" />
<glyph unicode="&#x449;" horiz-adv-x="1554" d="M90 0v123h139v643h-139v123h395v-123h-98v-643h311v643h-98v123h354v-123h-98v-643h313v643h-98v123h393v-123h-139v-643h139v-399h-145v276h-1229z" />
<glyph unicode="&#x44a;" horiz-adv-x="1083" d="M35 571v318h610v-123h-139v-258h192q153 0 237 -61q89 -65 89 -193q0 -143 -113 -207q-82 -47 -213 -47h-489v123h139v643h-180v-195h-133zM506 123h182q87 0 128 26q50 31 50 105q0 70 -42 101.5t-136 31.5h-182v-264z" />
<glyph unicode="&#x44b;" horiz-adv-x="1489" d="M90 0v123h139v643h-139v123h436v-123h-139v-258h190q154 0 238 -61q88 -65 88 -193q0 -144 -112 -207q-82 -47 -214 -47h-487zM387 123h180q87 0 129 26q51 31 51 105q0 70 -42.5 101.5t-137.5 31.5h-180v-264zM969 0v123h135v643h-135v123h430v-123h-135v-643h135v-123 h-430z" />
<glyph unicode="&#x44c;" d="M90 0v123h139v643h-139v123h436v-123h-139v-258h190q154 0 238 -61q88 -65 88 -193q0 -144 -112 -207q-82 -47 -214 -47h-487zM387 123h180q87 0 129 26q51 31 51 105q0 70 -42.5 101.5t-137.5 31.5h-180v-264z" />
<glyph unicode="&#x44d;" horiz-adv-x="936" d="M94 133l102 90q36 -49 102 -81t132 -32q121 0 191 84q58 69 73 185h-309v123h311q-11 139 -85 215q-66 68 -169 68q-123 0 -182 -102q-31 -52 -37 -111h-117v317h103l8 -98q27 54 93.5 87.5t146.5 33.5q195 0 308 -159q91 -130 91 -310q0 -220 -127 -352 q-112 -116 -283 -116q-212 0 -352 158z" />
<glyph unicode="&#x44e;" horiz-adv-x="1466" d="M90 0v123h139v643h-139v123h438v-123h-139v-258h182q20 191 142 304q109 100 264 100q194 0 310 -151q99 -129 99 -319q0 -218 -127 -350q-113 -117 -282 -117q-182 0 -296 131q-96 111 -112 281h-180v-264h139v-123h-438zM725 442q0 -170 76 -261q67 -79 176 -79 q126 0 194 102q59 90 59 238q0 172 -78 264q-66 79 -175 79q-126 0 -193 -103q-59 -90 -59 -240z" />
<glyph unicode="&#x44f;" horiz-adv-x="1069" d="M70 0v123h131l170 271q-117 18 -171 96q-40 58 -40 139q0 131 81 194q84 66 263 66h475v-123h-139v-643h139v-123h-276v369h-193l-221 -369h-219zM301 629q0 -137 191 -137h211v274h-211q-191 0 -191 -137z" />
<glyph unicode="&#x450;" horiz-adv-x="963" d="M80 461q0 191 98 314q108 137 312 137q237 0 332 -203q55 -118 55 -281v-31h-633q3 -142 87 -223q75 -72 193 -72q64 0 134 33t114 84l99 -88q-55 -68 -155 -112t-200 -44q-254 0 -364 185q-72 121 -72 301zM244 514h471q0 120 -56 193q-60 78 -169 78q-133 0 -198 -98 q-48 -72 -48 -173zM260 1397h168l231 -307h-141z" />
<glyph unicode="&#x451;" horiz-adv-x="963" d="M80 461q0 191 98 314q108 137 312 137q237 0 332 -203q55 -118 55 -281v-31h-633q3 -142 87 -223q75 -72 193 -72q64 0 134 33t114 84l99 -88q-55 -68 -155 -112t-200 -44q-254 0 -364 185q-72 121 -72 301zM201 1090v180h186v-180h-186zM244 514h471q0 120 -56 193 q-60 78 -169 78q-133 0 -198 -98q-48 -72 -48 -173zM615 1090v180h184v-180h-184z" />
<glyph unicode="&#x452;" horiz-adv-x="1040" d="M74 0v123h139v911h-139v121h139v148h158v-148h244v-121h-244v-260q126 137 283 137q150 0 218 -80q62 -73 62 -221v-620q0 -161 -80 -255q-85 -100 -245 -100v123q90 0 128.5 54t38.5 178v571q0 128 -33 175.5t-122 47.5q-66 0 -119.5 -27.5t-130.5 -101.5v-532h139v-123 h-436z" />
<glyph unicode="&#x453;" horiz-adv-x="924" d="M90 766v123h752l21 -395l-132 -11l-18 283h-311v-643h139v-123h-441v123h140v643h-150zM330 1090l231 307h170l-258 -307h-143z" />
<glyph unicode="&#x454;" horiz-adv-x="936" d="M80 443q0 210 118 344q110 125 281 125q120 0 195 -67q31 -28 43 -54l10 98h103v-317h-117q-8 73 -49 130q-60 83 -170 83q-118 0 -186 -89q-58 -74 -68 -194h311v-123h-309q15 -133 90 -204q69 -65 174 -65q66 0 132 32t102 81l102 -90q-139 -158 -352 -158 q-196 0 -311 149q-99 128 -99 319z" />
<glyph unicode="&#x455;" horiz-adv-x="926" d="M102 0v268h113q12 -48 58 -92q79 -76 216 -76q182 0 182 133q0 63 -46 93t-177 51q-170 26 -243 76q-97 67 -97 203q0 105 62 171q78 85 243 85q89 0 159 -30t91 -77l13 84h98v-256h-113q-6 44 -43 85q-64 69 -186 69q-84 0 -130 -31.5t-46 -89.5q0 -70 47 -99.5 t199 -54.5q162 -25 233 -75q92 -64 92 -188q0 -148 -106 -219q-83 -55 -213 -55q-121 0 -216 55q-64 38 -79 72l-11 -102h-100z" />
<glyph unicode="&#x456;" horiz-adv-x="645" d="M94 0v123h160v643h-160v123h318v-766h159v-123h-477zM233 1090v180h184v-180h-184z" />
<glyph unicode="&#x457;" horiz-adv-x="578" d="M-10 1090v180h186v-180h-186zM58 0v123h159v643h-159v123h317v-766h160v-123h-477zM404 1090v180h184v-180h-184z" />
<glyph unicode="&#x458;" horiz-adv-x="606" d="M-104 -242h131q231 0 231 252v756h-219v123h377v-867q0 -387 -373 -387h-147v123zM247 1090v180h184v-180h-184z" />
<glyph unicode="&#x459;" horiz-adv-x="1407" d="M49 0v123h53q85 0 121.5 47t36.5 158v438h-150v123h857v-123h-139v-258h192q153 0 237 -61q89 -65 89 -193q0 -143 -113 -207q-82 -47 -213 -47h-488v123h140v643h-254v-416q0 -183 -61 -259q-73 -91 -255 -91h-53zM828 123h182q87 0 128 26q50 31 50 105q0 70 -42 101.5 t-136 31.5h-182v-264z" />
<glyph unicode="&#x45a;" horiz-adv-x="1526" d="M90 0v123h133v645h-133v121h416v-121h-127v-260h411v258h-129v123h424v-123h-139v-258h192q153 0 237 -61q89 -65 89 -193q0 -143 -113 -207q-82 -47 -213 -47h-477v123h129v264h-411v-264h127v-123h-416zM946 123h184q86 0 127 26q49 31 49 105q0 70 -42 101.5 t-136 31.5h-182v-264z" />
<glyph unicode="&#x45b;" horiz-adv-x="1143" d="M74 0v123h139v919h-139v121h139v121h158v-121h266v-121h-266v-268q129 137 282 137q160 0 222 -89q59 -85 59 -283v-416h139v-123h-426v123h129v416q0 137 -33 186q-35 51 -126 51q-64 0 -129.5 -34.5t-116.5 -94.5v-524h127v-123h-424z" />
<glyph unicode="&#x45c;" horiz-adv-x="1057" d="M90 0v123h139v643h-139v123h297v-375h113q60 0 99.5 44.5t88.5 166.5l65 164h252v-123h-139l-66 -143q-38 -82 -66.5 -118t-68.5 -54q82 -30 129 -152l72 -176h139v-123h-252l-82 221q-31 90 -70.5 128t-100.5 38h-113v-387h-297zM389 1090l231 307h170l-258 -307h-143z " />
<glyph unicode="&#x45d;" horiz-adv-x="1200" d="M90 0v123h139v643h-139v123h426v-123h-140v-559l443 682h291v-123h-139v-643h139v-123h-428v123h139v545l-437 -668h-294zM379 1397h168l231 -307h-141z" />
<glyph unicode="&#x45e;" horiz-adv-x="1139" d="M47 766v123h399v-123h-131l248 -615l254 615h-115v123h392v-123h-123l-404 -906q-59 -128 -124.5 -176.5t-182.5 -48.5h-154v123h154q56 0 94 25.5t69 85.5l64 133l-328 764h-112zM280 1411h121q0 -195 192 -195q94 0 144.5 50.5t50.5 144.5h119q0 -111 -56 -188 q-80 -109 -258 -109q-199 0 -274 136q-39 70 -39 161z" />
<glyph unicode="&#x45f;" horiz-adv-x="1178" d="M90 0v123h139v643h-139v123h424v-123h-127v-643h403v643h-127v123h424v-123h-139v-643h139v-123h-426v-276h-145v276h-426z" />
<glyph unicode="&#x462;" horiz-adv-x="1200" d="M35 756v256h330v139h160v-139h317v-256h-123v129h-194v-228h204q183 0 291 -75q121 -85 121 -254q0 -190 -153 -273q-103 -55 -259 -55h-504v127h140v758h-207v-129h-123zM525 127h198q116 0 185 51q71 52 71 150q0 110 -90 162q-66 38 -166 38h-198v-401z" />
<glyph unicode="&#x463;" horiz-adv-x="1094" d="M35 649v240h324v262h158v-262h321v-240h-121v117h-200v-258h190q154 0 238 -61q88 -65 88 -193q0 -144 -112 -207q-82 -47 -214 -47h-488v123h140v643h-201v-117h-123zM517 123h180q87 0 129 26q51 31 51 105q0 70 -42.5 101.5t-137.5 31.5h-180v-264z" />
<glyph unicode="&#x472;" horiz-adv-x="1174" d="M88 581q0 258 134 426q135 171 366 171q261 0 397 -216q100 -161 100 -381q0 -259 -133 -431q-134 -175 -364 -175q-262 0 -399 222q-101 164 -101 384zM264 520q12 -184 93 -295q86 -115 231 -115q167 0 252 146q59 104 69 264h-645zM264 643h645q-13 182 -93 288 q-84 112 -228 112q-157 0 -246 -142q-67 -107 -78 -258z" />
<glyph unicode="&#x473;" horiz-adv-x="979" d="M80 443q0 218 127 351q113 118 282 118q196 0 311 -151q99 -129 99 -318q0 -219 -127 -351q-113 -117 -283 -117q-195 0 -310 150q-99 128 -99 318zM240 383q13 -140 86 -215q64 -66 164 -66q114 0 181 86q58 74 68 195h-499zM240 504h497q-11 138 -84 214 q-64 67 -163 67q-114 0 -181 -87q-58 -73 -69 -194z" />
<glyph unicode="&#x474;" horiz-adv-x="1249" d="M45 1024v127h395v-127h-129l279 -885l223 705q46 149 113 215q93 92 258 92v-127q-96 0 -147.5 -44t-90.5 -159l-272 -831h-181l-338 1034h-110z" />
<glyph unicode="&#x475;" horiz-adv-x="1110" d="M47 766v123h385v-123h-131l233 -637l183 492q52 143 135 205.5t223 62.5v-123q-89 0 -138 -37t-85 -133l-234 -606h-178l-295 776h-98z" />
<glyph unicode="&#x490;" horiz-adv-x="997" d="M100 0v127h139v897h-139v127h698v240h133v-367h-532v-897h139v-127h-438z" />
<glyph unicode="&#x491;" horiz-adv-x="903" d="M78 0v123h139v643h-139v123h635v223h145v-346h-483v-643h139v-123h-436z" />
<glyph unicode="&#x4c0;" horiz-adv-x="694" d="M86 0v127h180v897h-180v127h522v-127h-180v-897h180v-127h-522z" />
<glyph unicode="&#x4cf;" horiz-adv-x="694" d="M86 0v127h180v897h-180v127h522v-127h-180v-897h180v-127h-522z" />
<glyph unicode="&#x2000;" horiz-adv-x="796" />
<glyph unicode="&#x2001;" horiz-adv-x="1593" />
<glyph unicode="&#x2002;" horiz-adv-x="796" />
<glyph unicode="&#x2003;" horiz-adv-x="1593" />
<glyph unicode="&#x2004;" horiz-adv-x="531" />
<glyph unicode="&#x2005;" horiz-adv-x="398" />
<glyph unicode="&#x2006;" horiz-adv-x="265" />
<glyph unicode="&#x2007;" horiz-adv-x="265" />
<glyph unicode="&#x2008;" horiz-adv-x="199" />
<glyph unicode="&#x2009;" horiz-adv-x="318" />
<glyph unicode="&#x200a;" horiz-adv-x="88" />
<glyph unicode="&#x2010;" horiz-adv-x="1026" d="M164 463v123h698v-123h-698z" />
<glyph unicode="&#x2011;" horiz-adv-x="1026" d="M164 463v123h698v-123h-698z" />
<glyph unicode="&#x2012;" horiz-adv-x="1026" d="M164 463v123h698v-123h-698z" />
<glyph unicode="&#x2013;" horiz-adv-x="1415" d="M164 463v123h1087v-123h-1087z" />
<glyph unicode="&#x2014;" horiz-adv-x="1505" d="M164 463v123h1178v-123h-1178z" />
<glyph unicode="&#x2018;" horiz-adv-x="406" d="M35 809l195 475h139l-158 -475h-176z" />
<glyph unicode="&#x2019;" horiz-adv-x="406" d="M35 809l160 475h174l-195 -475h-139z" />
<glyph unicode="&#x201a;" horiz-adv-x="432" d="M25 -332l180 541h176l-221 -541h-135z" />
<glyph unicode="&#x201c;" horiz-adv-x="745" d="M35 809l195 475h139l-158 -475h-176zM375 809l195 475h139l-160 -475h-174z" />
<glyph unicode="&#x201d;" horiz-adv-x="750" d="M41 809l160 475h174l-195 -475h-139zM381 809l158 475h176l-197 -475h-137z" />
<glyph unicode="&#x201e;" horiz-adv-x="760" d="M25 -332l180 541h176l-221 -541h-135zM353 -332l180 541h176l-221 -541h-135z" />
<glyph unicode="&#x2026;" horiz-adv-x="1526" d="M152 0v190h197v-190h-197zM666 0v190h197v-190h-197zM1178 0v190h197v-190h-197z" />
<glyph unicode="&#x202f;" horiz-adv-x="318" />
<glyph unicode="&#x2039;" horiz-adv-x="631" d="M31 479l434 377l78 -88l-332 -289l332 -284l-80 -92z" />
<glyph unicode="&#x203a;" horiz-adv-x="631" d="M88 195l332 284l-332 289l78 88l434 -377l-432 -376z" />
<glyph unicode="&#x205f;" horiz-adv-x="398" />
<glyph unicode="&#x20ac;" horiz-adv-x="1098" d="M49 383l39 127h82q-2 20 -2 61q0 29 4 84h-123l39 127h104q48 200 176 305q110 91 256 91q117 0 204 -78q12 -10 69 -80l12 131h109v-348h-127q-13 90 -69 158q-70 82 -181 82q-112 0 -186 -77q-65 -67 -93 -184h369l-39 -127h-350q-4 -57 -4 -88q0 -39 2 -57h299 l-39 -127h-236q34 -141 127 -213q76 -60 176 -60q71 0 140.5 34t105.5 87l99 -100q-50 -68 -149.5 -112t-205.5 -44q-188 0 -316 122q-112 108 -151 286h-141z" />
<glyph unicode="&#x2122;" horiz-adv-x="1516" d="M61 922l20 229h521l22 -229l-92 -8l-14 143h-126v-426h132v-94h-363v94h131v426h-125l-14 -143zM690 537v94h78v426h-78v94h235l148 -315l151 315h230v-94h-80v-426h80v-94h-265v94h85v420l-159 -328h-87l-160 332v-424h86v-94h-264z" />
<glyph unicode="&#x25fc;" horiz-adv-x="890" d="M0 0v890h890v-890h-890z" />
</font>
</defs>
</svg>
