<?xml version="1.0" standalone="no"?>
<!DOCTYPE svg PUBLIC "-//W3C//DTD SVG 1.1//EN" "http://www.w3.org/Graphics/SVG/1.1/DTD/svg11.dtd" >
<svg xmlns="http://www.w3.org/2000/svg">
<metadata></metadata>
<defs>
<font id="for_smartpicto" horiz-adv-x="1843" >
<font-face units-per-em="2048" ascent="1536" descent="-512" />
<missing-glyph horiz-adv-x="1024" />
<glyph horiz-adv-x="0" />
<glyph horiz-adv-x="682" />
<glyph unicode=" "  horiz-adv-x="1024" />
<glyph unicode="&#x09;" horiz-adv-x="1024" />
<glyph unicode="&#xa0;" horiz-adv-x="1024" />
<glyph unicode="!" horiz-adv-x="772" d="M205 180q0 81 60 135q52 47 122 47q80 0 134 -60q46 -52 46 -122q0 -79 -59 -133q-51 -47 -121 -47q-80 0 -135 60q-47 51 -47 120zM217 1434h340l-51 -934h-235z" />
<glyph unicode="&#x22;" horiz-adv-x="2216" d="M205 264v906q0 122 68 196q62 68 163 68h596v-1434h-596q-115 0 -179 87q-52 72 -52 177zM1183 0v1434h597q115 0 179 -87q52 -72 52 -177v-607h-549v-563h-279zM1610 25v389h401v-8z" />
<glyph unicode="#" horiz-adv-x="1638" d="M205 98v852h1229v-852q0 -40 -30.5 -69t-71.5 -29h-1025q-41 0 -71.5 29t-30.5 69zM205 1030v306q0 40 30.5 69t71.5 29h1025q41 0 71.5 -29t30.5 -69v-306h-1229zM303 1124h1039v171q0 21 -20 37t-48 16h-903q-28 0 -48 -16t-20 -37v-171zM346 141h178v105h-178v-105z M346 338h178v104h-178v-104zM346 522h178v105h-178v-105zM346 719h178v104h-178v-104zM602 141h178v105h-178v-105zM602 338h178v104h-178v-104zM602 522h178v105h-178v-105zM602 719h178v104h-178v-104zM858 141h178v105h-178v-105zM858 338h178v104h-178v-104zM858 522 h178v105h-178v-105zM858 719h178v104h-178v-104zM1114 141h179v301h-179v-301zM1114 522h179v105h-179v-105zM1114 719h179v104h-179v-104z" />
<glyph unicode="$" horiz-adv-x="1831" d="M205 963l322 260l282 -309l596 416l-78 104l299 -20l-63 -295l-74 98l-700 -490l-277 302l-219 -177zM453 0v745h133v-745h-133zM731 0v526h135v-526h-135zM1010 0v668h135v-668h-135zM1289 0v879h135v-879h-135z" />
<glyph unicode="%" horiz-adv-x="1503" d="M205 176v1082q0 89 67 137q54 39 136 39h461v-418h430v-840q0 -88 -67 -137q-55 -39 -136 -39h-688q-95 0 -151 51q-52 48 -52 125zM400 377l158 -158l229 230l-61 61l-168 -168l-97 94zM400 664l158 -158l229 229l-61 62l-168 -168l-97 94zM983 1128v308l6 -2l289 -306 h-295z" />
<glyph unicode="&#x26;" d="M205 569v295h569v570h295v-570h570v-295h-570v-569h-295v569h-569z" />
<glyph unicode="'" d="M205 717q0 194 98 362q95 162 257 257q168 98 362 98t362 -98q162 -95 257 -257q98 -168 98 -362t-98 -362q-95 -162 -257 -257q-168 -98 -362 -98t-362 98q-162 95 -257 257q-98 168 -98 362zM434 660l371 -338l604 608l-137 137l-467 -471l-233 203z" />
<glyph unicode="(" d="M205 717q0 194 98 362q95 162 257 257q168 98 362 98t362 -98q162 -95 257 -257q98 -168 98 -362t-98 -362q-95 -162 -257 -257q-168 -98 -362 -98t-362 98q-162 95 -257 257q-98 168 -98 362zM578 709l426 -422l131 129l-295 293l311 307l-131 131z" />
<glyph unicode=")" d="M205 717q0 194 98 362q95 162 257 257q168 98 362 98t362 -98q162 -95 257 -257q98 -168 98 -362t-98 -362q-95 -162 -257 -257q-168 -98 -362 -98t-362 98q-162 95 -257 257q-98 168 -98 362zM692 1016l312 -307l-295 -293l131 -129l426 422l-443 438z" />
<glyph unicode="*" d="M205 717q0 194 98 362q95 162 257 257q168 98 362 98t362 -98q162 -95 257 -257q98 -168 98 -362q0 -186 -97 -353q-95 -164 -256 -261q-168 -103 -364 -103q-188 0 -355 98q-164 96 -261 257q-101 169 -101 362zM365 717q0 -145 71 -272l347 331l106 496 q-236 -13 -390 -193q-134 -156 -134 -362zM477 381q84 -110 209 -169q112 -52 236 -52q142 0 266 68q105 57 176 153l-442 137zM950 1272l107 -502l350 -327q72 130 72 274q0 239 -173 403q-150 142 -356 152z" />
<glyph unicode="+" horiz-adv-x="1835" d="M205 938q0 208 147 353q144 143 348 143q208 0 353 -148q141 -144 141 -348q0 -146 -76 -265q6 -2 19 -10l30 -35l17 2q37 0 59 -22l365 -371q22 -22 22 -59q0 -65 -57 -121q-59 -57 -123 -57q-37 0 -59 23l-365 370q-22 22 -22 65l-13 9l-26 26q-10 9 -13 18 q-116 -67 -254 -67q-206 0 -352 145q-141 145 -141 349zM467 891h172v-175h121v175h174v121h-174v172h-121v-172h-172v-121z" />
<glyph unicode="," d="M205 717q0 194 98 362q95 162 257 257q168 98 362 98t362 -98q162 -95 257 -257q98 -168 98 -362t-98 -362q-95 -162 -257 -257q-168 -98 -362 -98t-362 98q-162 95 -257 257q-98 168 -98 362zM621 637l88 -90l213 213l213 -213l88 90l-301 301z" />
<glyph unicode="-" horiz-adv-x="1835" d="M205 938q0 208 147 353q144 143 349 143q208 0 352 -148q141 -144 141 -348q0 -146 -76 -264q30 -10 49 -46l19 3q35 0 57 -23l365 -371q22 -22 22 -59q0 -65 -57 -121q-59 -57 -123 -57q-37 0 -59 23l-365 370q-22 22 -22 57v8q-36 15 -51 54q-117 -68 -254 -68 q-207 0 -353 146q-141 144 -141 348zM477 895h441v121h-441v-121z" />
<glyph unicode="." d="M205 717q0 194 98 362q95 162 257 257q168 98 362 98t362 -98q162 -95 257 -257q98 -168 98 -362t-98 -362q-95 -162 -257 -257q-168 -98 -362 -98t-362 98q-162 95 -257 257q-98 168 -98 362zM619 805l301 -301l301 301l-88 90l-213 -213l-211 213z" />
<glyph unicode="/" horiz-adv-x="2947" d="M207 473q-2 209 151 350q133 122 314 125q197 2 338 -139q121 -122 135 -291l6 6q37 106 37 200q0 36 -8 57q-68 192 -136 497q-5 29 -5 47t6 18q23 0 87 -206q73 -235 123 -299q3 -3 8 -3l322 177q224 115 346 156q-26 54 -43 121q-2 10 -4 22q0 6 4 12q13 7 27 21 q-51 14 -51 40q0 7 4 13q10 19 59 19q17 0 27 -2l49 -39q22 0 48 -9t26 -16l1 -31q0 -18 -7 -18q-55 0 -127 -14l4 -9q28 -59 78 -178l100 -184q71 22 141 22q208 3 349 -150q123 -133 124 -313q3 -209 -150 -351q-133 -123 -313 -124q-209 -2 -351 151q-123 133 -124 314 q-2 141 75 259q65 100 169 157l-100 217q-7 12 -19 12q-18 0 -73 -37l-121 -83q-104 -70 -152 -125t-73 -134l-53 -168q-34 -99 -64 -149l20 -8q7 -2 13 -2q15 0 20 8q2 3 2 8l-2 16q0 15 2 23q20 -24 20 -68q0 -18 -3 -37q-13 -68 -76 -90q-22 -6 -45 -6q-48 0 -84.5 24.5 t-48.5 65.5l16 -14q57 -48 83 -48q7 0 9 5q3 7 3 21q0 8 -3 38q-10 4 -22 6q-56 3 -160 17q-40 -168 -178 -271q-122 -91 -275 -94q-209 -2 -351 152q-123 133 -124 313zM291 475q2 -171 131 -285q111 -99 258 -96q143 2 250 95q92 79 121 196q-71 12 -217 39 q-20 -52 -63.5 -82.5t-98.5 -30.5q-77 -2 -129 56q-45 49 -47 116q0 78 56 130q49 46 116 47q63 0 112 -38.5t62 -98.5q2 -10 2 -29h55q116 4 162 8q-10 164 -136 270q-109 93 -253 92q-171 -2 -285 -131q-97 -111 -96 -258zM549 483q1 -49 37 -84t86 -35q77 0 108 70 q-92 21 -102 23q-30 7 -30 22t38 17q3 -1 105 -4q0 10 -2 18q-12 44 -45 71t-74 26q-51 -1 -86.5 -37t-34.5 -87zM857 1409q0 25 44 25q11 0 29 -2l206 -19q87 -9 99 -34v-1q0 -7 -34 -7h-30h-18q-19 0 -39 -3l-174 -26q-6 -1 -12 -1q-37 0 -60 38q-11 17 -11 30zM1161 1092 q0 7 52 12q206 -18 317 -18q41 0 57 3q64 13 310 154q2 -3 2 -8q0 -36 -153 -123q-114 -65 -148 -74q-5 -1 -15 -1q-61 0 -385 44q-37 5 -37 11zM1245 553q0 -8 7 -8q10 0 16 13q7 14 22 77q23 99 45 131q43 62 93 96l133 101q16 12 16 14q-12 0 -141 -84q-6 -4 -35 -25 q-71 -50 -80 -61q-37 -42 -55 -128l-21 -123v-3zM1346 350q0 -6 2 -16q0 -10 2 -37q1 -11 9 -11q3 0 9 1q37 4 60 40q16 25 14 38q0 8 -26 9l-40 1q-12 -19 -30 -25zM1886 465q2 -171 130 -285q111 -97 259 -96q171 2 285 131q97 111 96 258q-2 171 -130 285 q-110 97 -259 96q-56 0 -102 -14l16 -37q47 -102 88 -264h2q29 0 49.5 -20t20.5 -48q0 -29 -20 -49t-49 -20q-28 -2 -48 18t-22 49q0 33 26 53q-6 11 -14 31q-57 138 -125 256q-99 -54 -155 -152q-49 -90 -48 -192z" />
<glyph unicode="0" horiz-adv-x="3168" d="M205 106v78q0 197 18 267q26 93 64 135q12 13 13 25l-2 22v8q4 37 4 150q0 12 -6 19q-9 9 -11 13q-1 2 -1 5q0 11 16 29l18 20l28 77l94 90l134 250v4l-68 60q-1 1 -1 2q0 12 156 33q315 41 592 41q64 0 127 -2q117 -6 235.5 -29t184.5 -53l-31 -12l-49 22 q-32 14 -221 34t-266 17t-250.5 -17.5t-179.5 -19.5q-8 -5 -60.5 -76t-79.5 -112q-49 -76 -133 -258h-1q0 -2 43 -14q35 -13 96 -82l102 -125l385 -498q61 -51 150 -67q3 -1 127 -15q87 -9 316 -24t287 -15h17q51 6 55 49q-184 21 -299 37l-300 39q-182 26 -224 53 q-47 30 -121 125l-102 135q-70 86 -189 318q37 1 86 8q87 13 131 43q15 10 15 28q0 10 -4 21q814 -78 900 -78q7 0 7 1q-1 3 -1 12q0 31 9 86q5 28 33 51l4 53q117 -90 256 -198q168 -29 178 -29q43 0 84 4l172 -133q-90 43 -110 43q-4 0 -4 -4q0 -27 80 -107 q45 -45 171 -80l13 -47q18 -14 22 -24q8 -11 8 -92l27 -82q10 -41 14 -263l-51 -28q-16 131 -24 166q-36 150 -156 207q-80 37 -164 37q-83 0 -160 -35q-112 -50 -184 -217q-27 -62 -37 -187l-1225 4q-4 148 -47 250q-23 56 -66.5 96.5t-133.5 87.5q-45 25 -139 25 q-73 0 -113 -12q-49 -15 -104 -62t-85 -98q-26 -46 -26 -117q0 -54 12 -98q-7 -2 -15 -2q-11 0 -20 4q-14 7 -20 28zM314 663q0 -15 1 -22q2 -9 17 -9q9 0 32 5q17 4 46.5 18t39.5 23q5 6 5 12q0 19 -27 35q-54 32 -82 33q-8 0 -15 -15q-9 -19 -10 -20q-7 -11 -7 -60z M322 809q0 -11 2 -16q2 -11 19 -11q11 0 30 5q55 14 88 43q5 5 5 11q0 22 -28 36q-50 27 -82 31l-25 -35q-9 -10 -9 -64zM516 672q0 -35 25.5 -60.5t60.5 -25.5t60.5 25.5t25.5 60.5t-25.5 60.5t-60.5 25.5t-60.5 -25.5t-25.5 -60.5z" />
<glyph unicode="1" d="M205 717q0 194 98 362q95 162 257 257q167 98 361 98q195 0 362 -98q162 -95 257 -257q98 -168 98 -362q0 -195 -98 -362q-95 -162 -257 -257q-167 -98 -362 -98q-194 0 -361 98q-162 95 -257 257q-98 167 -98 362zM797 764q63 21 110 72v-357h86v494h-70 q-15 -46 -53 -78q-42 -35 -73 -47v-84z" />
<glyph unicode="2" horiz-adv-x="2982" d="M205 486q0 154 88 278q8 -10 16 -18q-66 -105 -66 -236l1 -29q45 83 122.5 129t170.5 46q164 0 268 -127l2 2q-93 148 -276 148q-74 0 -130 -19l-102 114q-4 93 27 185q18 55 53 69l65 35q58 31 94 64q23 20 103 100q80 81 90 115q2 8 2 17q0 13 -4 22q236 54 537 54 q105 0 204 -9q128 -13 206.5 -37.5t160.5 -75.5q172 -106 393 -301l-184 33q-84 98 -236 205q-95 68 -203 96q-96 27 -344 27q-196 0 -260 -17q-81 -21 -135 -86q-35 -42 -82 -123q-53 -94 -53 -185q0 -50 16 -97q28 -80 92 -191t121 -176q55 -64 95.5 -85.5t148.5 -43.5 q348 -72 885 -111q20 114 70 199q41 70 116 110.5t162 40.5q120 0 207 -74q75 -65 98 -163v25q0 199 -133 276q-3 94 -31 143q-27 49 -112 80q-139 51 -281 62q7 -15 7 -32q0 -45 -56 -46q-43 -2 -467.5 37.5t-566.5 58.5q-57 8 -99 29q-3 1 -33 18q-36 18 -100 23 q-45 4 -96 12q-7 0 -7 7t9 7q9 1 28 1q53 0 101 -3q47 -3 86 -22q51 -25 79.5 -32t106.5 -11l853 -53q41 1 43 22q2 25 -19 53q271 -44 416 -94q137 -47 153 -156l17 -94q135 -83 135 -288q0 -74 -15 -105q-5 -13 -32 -47q-20 -112 -111 -181q-79 -61 -180 -61 q-113 0 -199 76q-84 6 -147 43l-47 33q-683 45 -996 45q-72 0 -96 -2q-41 -49 -102.5 -81.5t-116.5 -35.5q-81 -78 -198 -78q-128 0 -216 94q-75 80 -79 191q-37 115 -37 201zM313 295q0 -99 74 -165q64 -58 150 -58q98 0 165 74q58 64 58 149q0 99 -74 166q-64 58 -149 58 q-99 0 -166 -74q-58 -64 -58 -150zM323 850q1 -33 25 -35q8 -1 27 4q22 6 39 29q16 25 31 66t15 61q0 37 -34 37h-5q-17 -2 -39 -15q-29 -16 -41 -51q-19 -58 -18 -96zM377 1047l186 256q5 9 5 18q0 14 -9 22q72 15 152 33l2 -12v-6q0 -14 -13 -33q-59 -86 -180 -190 q-36 -32 -90 -60q-27 -14 -53 -28zM2216 295q0 -99 74 -165q63 -58 149 -58q99 0 165 74q58 64 58 149q0 99 -74 165q-64 58 -149 58q-99 0 -165 -74q-58 -63 -58 -149z" />
<glyph unicode="3" horiz-adv-x="2757" d="M205 387v137l33 144l43 69q4 20 4 43q0 15 -2 45q-3 28 -3 43q0 9 1 17l198 458q18 -18 18 -40q0 -24 -23 -62l-34 -53l-44 -91q-22 -48 -22 -72q0 -4 1 -7l29 -43q-8 5 -22 5q-21 0 -25 -9q-22 -48 -22 -128q0 -75 17 -143l136 -21q68 -13 104 -36q-122 18 -190 18 q-49 0 -89 -8q-37 -86 -37 -144q0 -9 1 -18l75 62q71 42 152 42q138 0 238 -106q88 -93 88 -215v-18q396 -5 1026 -43q12 157 91 250q75 88 197 100q22 2 40 2q132 0 212 -85q67 -71 80 -187q36 32 36 113q0 65 -21 100l-336 133q116 2 274 -53l-10 114l-141 133 q-30 13 -96 17l-93 6q-386 40 -588 57q-552 45 -772 84q55 3 116 3l675 -44q454 -30 588 -43q161 -15 188 -25q34 -11 104 -79q34 -33 52 -60q46 -70 49 -186q27 -7 38 -46l13 -62v-97l-33 -131q-12 -5 -31 -5q-10 0 -22 1q-54 -182 -231 -223h-91q-44 3 -97 37 q-72 46 -77 49l-90 41l-76 53q-43 15 -147 10q-144 -7 -150 -7q-26 0 -49 2q-61 4 -178 4l-129 -1l-177 6q-63 0 -93 -9l-127 -77q-81 -83 -191 -108h-94q-231 55 -250 246q-1 12 -1 25l2 65q-2 30 -15 51zM299 293q0 -93 75 -155q62 -51 140 -51q34 0 66 11q70 26 109 76 t39 114q0 88 -66 149q-62 57 -150 57q-18 0 -37 -2q-82 -12 -131 -69q-45 -54 -45 -130zM455 979l151 369q-11 15 -54 15l-39 -1q-30 0 -44 6q147 31 535 66h205q139 -11 267 -58t304 -151q204 -120 332 -221q71 -57 90 -86q-186 18 -189 18q-74 107 -270 227 q-301 189 -592 199q-29 1 -52 1q-199 0 -294 -52q-44 -25 -69 -94t-25 -165q0 -35 4 -69q7 -71 41 -134t135 -196q95 -125 118 -151q62 -68 117 -90q63 -26 177 -40l165 -18l163 -16q77 -8 188 -31q-25 -34 -86 -34l-90 6q-145 4 -207 10l-219 13q-113 10 -166 34 q-42 19 -146 141q-54 64 -260 318l-93 117q-48 51 -97 67zM1979 288q-4 -103 70 -162q58 -45 137 -45q67 0 118.5 33t71.5 89q15 39 15 79q0 89 -67 148q-58 51 -139 51q-21 0 -44 -4q-65 -11 -105 -51q-34 -34 -44.5 -59t-12.5 -79z" />
<glyph unicode="4" horiz-adv-x="3320" d="M205 484q0 155 90 282q2 -6 14 -18q-64 -119 -64 -243q0 -19 3 -28q42 82 122 130.5t173 48.5q84 0 158 -40t120 -110q-23 50 -72.5 94.5t-103.5 63.5t-116 19q-75 0 -130 -21l-100 112q7 108 24 172q17 62 74 84q55 23 88 45l215 214q37 32 72 43q70 21 192 39 q-122 -11 -204 -33q-47 -13 -84 -45l-205 -209q-31 -23 -105 -54l195 246q4 8 4 18q0 22 -16 44q167 36 475 66t507 30q111 0 199 -8q203 -18 346 -86q191 -91 529 -338l-201 33q-185 170 -340 253q-145 77 -340 99q-67 7 -168 7q-234 0 -434 -26q-120 -16 -179.5 -43 t-100.5 -84q-86 -119 -107 -190q-10 -37 -10 -70q0 -36 19 -86q20 -54 97 -178.5t126 -181.5q78 -92 152 -131.5t198 -57.5q95 -14 492.5 -35.5t633.5 -25.5q9 66 40.5 136.5t70.5 113.5q94 102 231 102q109 0 194 -67q73 -58 103 -146q0 83 -34.5 149t-94.5 99 q-3 57 -14 102q-24 96 -133 131q-86 29 -283 62q14 -24 14 -47q0 -41 -55 -41l-871 80l-849 60q-9 0 -9 8t9 8q80 0 420.5 -11.5t439.5 -17.5q235 -12 766 -57q41 0 43 24q2 25 -15 43q249 -41 377 -76q146 -39 176 -159l19 -103q127 -77 127 -275q0 -85 -19 -122 q-18 -125 -116 -203q-85 -68 -195 -68q-124 0 -213 82q-106 10 -197 78q-385 16 -753 27q-342 10 -672 14q-63 -84 -168 -107q-94 -104 -233 -104t-232 103q-80 88 -82 208q-30 72 -30 173zM311 314q0 -106 78 -177q68 -61 160 -61q105 0 176 79q61 68 61 159q0 106 -78 177 q-68 61 -159 61q-106 0 -177 -79q-61 -67 -61 -159zM319 840q3 -29 31 -35q3 -1 7 -1q10 0 20 3q23 6 41 33t34.5 69.5t16.5 63.5q1 39 -35 39h-6q-21 -2 -43 -15q-28 -15 -45 -55q-21 -47 -21 -96v-6zM830 881q0 6 2 12q6 16 30 19h11q91 0 147 -13q22 -5 28 -18q1 -4 1 -8 q0 -9 -3 -13q-6 -12 -22 -15q-8 -1 -31 -1q-61 0 -84 4q-57 0 -71 12q-8 7 -8 21zM1505 1362v8q0 5 4 6h6q7 -4 11 -12q14 -38 37.5 -163t25.5 -175q0 -6 -4 -8h-18l-5 6l-2 8q-25 187 -55 330zM1663 844q0 7 2 12q2 15 28 19h10q94 0 150 -13q24 -5 27 -18q1 -7 1 -13 q0 -5 -1 -8q-6 -11 -25 -14q-6 -1 -29 -1q-61 0 -83 3q-58 0 -72 12q-8 7 -8 21zM2547 323q0 -105 79 -176q68 -61 159 -61q106 0 177 78q61 68 61 159q0 106 -79 177q-68 61 -159 61q-106 0 -177 -78q-61 -68 -61 -160z" />
<glyph unicode="5" horiz-adv-x="2822" d="M206 471q0 72 21 158q14 59 36 95l19 26q7 4 7 16q-7 38 -7 80q0 81 25 154q5 14 14 16q4 6 6 16q1 6 1 15q0 29 -7 51l-41 61q-2 7 -2 13q0 11 9 16q20 12 66 12q59 0 128 -16q28 -6 35 -20v-3l10 25q40 93 96 187l13 16q22 2 186 10q2 1 3 1q8 0 8 -6v-3 q-3 -10 -27 -37q-30 -34 -43 -67q-34 -87 -34 -199q0 -47 5 -78q9 -118 250 -432q36 -47 88.5 -95t81.5 -61q14 -7 112 -20l598 -82q-22 -29 -51 -33q-5 -1 -23 -1l-186 5q-64 2 -258 18q-225 18 -264 39q-50 28 -127 113l-424 518q-20 21 -45 25q-10 2 -22 4q-39 4 -86 4 l-7 -2q-6 -4 -8 -10q-21 -65 -21 -146q0 -33 9 -112q2 -15 12 -23h10h2l25 -4q102 -15 137 -25q60 -16 70 -26q-51 11 -109 16q-33 3 -79 3l-62 -1q-6 -2 -16 -2h-2q-20 -2 -25 -14q-36 -96 -36 -152q0 -11 1 -18q39 50 72 69q63 37 147 43q9 1 21 1q79 0 155 -40 q62 -32 105 -90q20 -27 41 -83t27 -99q2 -17 2 -27v-6q233 -6 294 -8l560 -25q26 -1 198 -12q14 91 27 131q15 48 41 93q16 27 51.5 57.5t67.5 44.5q81 37 151 37q41 0 84 -12q87 -26 133 -78q67 -76 76 -160q2 -19 2 -29q15 4 21 10q11 13 16 50q4 25 4 46q0 17 -12 85 q-5 28 -26 47q-61 39 -152 69q-74 25 -183 50q49 -1 80 -5q50 -5 101 -18q68 -18 110 -33l-12 103q-2 18 -10 29q-72 74 -102.5 99.5t-51.5 29.5q-67 12 -408 45q-31 2 -63 6l-1024 96q-6 2 -10 2t-13 2h-2q-6 0 -36 6q-11 3 -11 7v1q8 2 15 2q6 3 12 3h43q82 0 182 -7 q94 -5 338 -24l967 -82q6 -1 16 -2q12 0 19 -2q10 -2 16 -6l22 -15q68 -48 121 -106q19 -21 31 -39q12 -19 12 -27v-10q2 -12 2 -25l7 -63q0 -6 2 -15l12 -38q8 -5 14 -7q15 -5 19 -16l16 -104q1 -8 1 -17q0 -48 -11 -94q-5 -22 -20 -63q-5 -13 -5 -20v-5v-12q-8 -3 -20 -5 q-13 -2 -19 -2h-6h-8q-9 -38 -33 -79q-43 -73 -104 -109q-67 -38 -138 -41h-10q-75 0 -149 37q-49 25 -72 49q-16 5 -25 8q-33 15 -61 33q-30 19 -86 61q-436 7 -487 9q-52 0 -465 -4q-25 -27 -68 -54q-26 -16 -65 -28q-17 -19 -27 -29q-37 -37 -113 -66q-43 -16 -97 -16 q-69 0 -128 24q-58 23 -104 72.5t-62 106.5q-10 34 -10 84q0 35 4 61q-6 0 -8 15q-11 35 -12 77q-1 15 -1 31zM303 301q1 -94 71 -157q61 -54 142 -54q94 0 156 71q54 60 53 142q-1 94 -70 157q-60 54 -141 54q-94 0 -157 -71q-55 -61 -54 -142zM1441 1368q9 52 15 64 q1 2 5 2q9 0 24 -6q95 -31 139 -52.5t211 -117.5q148 -86 301 -205q43 -34 123 -98q1 -1 1 -3t-7 -2q-3 0 -7 1l-188 16q-12 39 -41 64q-100 86 -240.5 172t-251.5 129q-45 16 -81 28zM2027 289q0 -94 70 -157q61 -54 141 -54q94 0 158 71q54 61 54 142q0 94 -70 157 q-61 54 -142 54q-93 0 -157 -71q-54 -60 -54 -142z" />
<glyph unicode="6" horiz-adv-x="4127" d="M205 395q0 151 94 260q98 111 242 133q29 5 59 5q108 0 201 -56q118 -69 168 -196q28 -70 28 -145q0 -60 -18 -115l2 6q-3 -9 -3 -16q0 -21 30 -21h233q28 0 28 -15q0 -16 -28 -46q-118 -104 -364 -113q-47 0 -66 -14q-97 -62 -212 -62q-29 0 -56 4q-147 23 -242 133 q-96 113 -96 258zM221 673q0 61 10 107q12 55 46 86l53 39q35 26 37 53q0 1 -9 74v28q0 69 13 87q37 62 92 107q2 2 2 6q0 8 -12 12q-9 4 -9 8q0 17 90 39q194 50 537 90l8 2l68 7q32 2 78 6q177 10 264 10q204 0 377 -41q95 -17 263.5 -88t334.5 -164q148 -88 231 -122.5 t164 -43.5q117 -14 141 -16q17 -3 17 -13q0 -8 -6 -12q-14 -14 -14 -17q0 -2 3 -2t9 2q55 19 131 33q89 18 168 18q113 0 219 -30q10 -4 22 -8q7 2 25 -41v-1q0 -3 21 -11l96 -27q20 -4 35 -29l24 -45l149 -106q22 -24 22 -57q0 -54 -62 -249q-5 -15 -5 -38q0 -31 11 -58 l11 -24q0 -18 -60 -33q-108 -26 -187 -33q-22 -31 -30 -41q-95 -110 -242 -133q-30 -5 -60 -5q-111 0 -204 60h-2q-27 17 -68 17q-187 9 -306 112q-28 21 -28 33t29 12h174q30 0 30 21q0 7 -3 16q-17 64 -17 121q0 75 29 149q48 126 168 197q93 56 200 56q29 0 58 -5 q144 -22 242 -133q96 -109 96 -260q0 -54 -17 -113l35 2q20 -1 37 17.5t25 48.5l51 211q3 25 3 30q0 37 -32 71q-245 250 -522 250h-19q-200 -7 -381 -76l-51 -19q-18 -5 -29 -5q-9 0 -9 4q0 10 49 42q8 6 18 12q16 10 16 18q0 10 -26 13l-133 21q-541 90 -1360 151l-41 2 q-23 2 -25 17l2 12q12 8 32 8q13 0 34 -1q729 -46 1001 -75q14 -2 28 -2q26 0 26 11q0 10 -25 30q-100 89 -284 173q-312 141 -666 141q-61 0 -119 -4q-57 -4 -70 -14q-28 -91 -44 -158q-8 -33 -8 -66q0 -79 45 -164q110 -203 208 -342q106 -149 304 -177q423 -55 837 -92 q107 -11 107 -50q0 -17 -29 -38q-34 -24 -64 -37q-23 -10 -45 -10l-1151 39q-50 1 -76 39q-191 279 -337 564q-49 92 -49 172q0 36 9 69q24 89 74 216l-2 6q-12 20 -35 20q-20 0 -121 -13.5t-122 -19.5l-50 -9q-97 -27 -165 -169q243 -5 362 -10q18 -2 18 -12q0 -3 -2 -7 q-2 -15 -34 -16q-35 -1 -291 -16q6 -11 6 -19q0 -11 -21 -26q-19 -15 -80 -35q-24 -6 -28 -15l-8 -41q-13 -39 -32.5 -61t-58.5 -39q-41 -21 -61 -49q-19 -28 -23 -66q-2 -10 -6 -16q-13 -16 -37 -54q-3 -4 -6 -4q-6 0 -6 8zM314 398q0 -129 95 -215q82 -74 192 -74 q128 0 213 95q73 82 73 194q0 127 -94 212q-82 74 -192 74q-127 0 -213 -95q-74 -82 -74 -191zM3013 397q0 -129 94 -215q81 -74 193 -74q126 0 212 95q74 83 74 194q0 127 -95 213q-82 74 -191 74q-128 0 -214 -95q-73 -82 -73 -192z" />
<glyph unicode="7" horiz-adv-x="4174" d="M205 399q0 154 96 262q94 110 244 133q30 5 62 5q107 0 200 -54q120 -71 170 -200q28 -69 28 -147q0 -61 -18 -115v6q-2 -8 -2 -15q0 -22 29 -22h238q28 0 28 -16t-28 -47q-127 -105 -369 -111q-44 0 -66 -16q-100 -62 -215 -62q-29 0 -57 4q-148 23 -244 135t-96 260z M219 680q0 63 10 109q13 57 45 88l56 38q32 27 35 54l-4 41l6 28l-2 41v15q0 11 -11 28q-9 13 -9 22q0 17 34 17q54 2 120 2q172 0 396 -12q19 0 19 -14q0 -2 -1 -5q-4 -13 -37 -16l-292 -16q6 -10 6 -17q0 -14 -20 -28q-19 -14 -82 -35q-25 -6 -29 -14l-8 -41 q-22 -68 -90 -103q-41 -19 -64 -49q-19 -25 -22 -65l-7 -17l-36 -53q-4 -5 -8 -5q-5 0 -5 7zM316 399q0 -128 95 -214q83 -74 194 -74q129 0 215 95q74 82 74 193q0 129 -95 216q-83 75 -194 75q-128 0 -215 -96q-74 -83 -74 -195zM947 1063q0 37 10 70q30 106 84 238 q21 52 47 55q79 8 147 8q30 0 30 -17q0 -3 -1 -8q-31 -81 -58 -184q-8 -32 -8 -65q0 -79 47 -166q109 -203 209 -346q103 -148 307 -177q402 -55 846 -94q108 -11 108 -50q0 -18 -30 -40q-28 -20 -63 -37q-22 -10 -46 -10l-1163 39q-48 1 -75 39q-178 249 -342 569 q-49 95 -49 176zM1304 1108q0 19 34 17q500 -26 1050 -78q12 -1 22 -1q24 0 24 10q0 11 -32 34q-49 37 -390 283q-8 5 -8 14q0 10 7.5 18.5t16.5 8.5q4 0 8 -3q299 -157 682 -364q78 -42 194 -57q15 0 47 -5q89 -13 89 -29q0 -3 -3 -7q-6 -11 -16 -21q4 0 19 4q51 15 100 25 q105 21 198 21q129 0 244 -40l53 -53q47 -9 99 -33l65 -71q68 -49 123 -99q38 -33 38 -76q0 -7 -1 -14l-57 -217q-7 -25 -7 -48l18 -81q0 -8 -7 -14q-31 -27 -134 -40l-118 -11q-7 -13 -31 -42q-96 -112 -243 -135q-31 -5 -62 -5q-113 0 -207 60q-20 15 -69 19 q-183 6 -310 111q-27 24 -27 35q0 12 29 12h177q29 0 29 22q0 7 -3 15q-17 69 -17 128q0 75 28 144q52 131 170 201q93 54 200 54q32 0 62 -5q150 -23 244 -133q96 -109 96 -262q0 -54 -17 -113q52 2 69.5 13.5t28.5 52.5q20 69 53 223q3 13 3 23q0 36 -38 77 q-224 248 -540 248q-146 0 -311 -53q-131 -49 -152 -49q-8 0 -8 4q0 9 29 29l38 27q17 12 15 18q-2 8 -39 14l-92 14q-698 111 -1434 160q-29 3 -29 20zM3040 400q0 -129 95 -215q82 -75 193 -75q129 0 215 95q74 83 74 195q0 129 -95 216q-83 75 -194 75q-128 0 -214 -97 q-74 -83 -74 -194z" />
<glyph unicode="8" horiz-adv-x="3666" d="M206 623v26q2 46 17 70l18 22q8 13 103 86l135 -28q0 -11 -6 -11q-73 -7 -112.5 -24t-82.5 -59q-21 -21 -21 -74q0 -48 13 -99l-45 -59l-2 4q-17 61 -17 146zM237 332q0 143 107 239q93 84 217 84q145 0 242 -107q83 -92 83 -216q0 -20 12.5 -52t20.5 -32l100 -4 q-22 -41 -51 -66q-27 -23 -63.5 -44t-48.5 -21q-35 0 -70 -17q-97 -90 -225 -90q-144 0 -240 107q-84 93 -84 219zM317 325q0 -108 81 -182q71 -63 165 -63q109 0 182 81q64 70 64 164q0 110 -81 183q-70 63 -165 63q-109 0 -182 -80q-64 -70 -64 -166zM342 877 q94 429 133 473q24 27 295 55.5t506 28.5q80 0 133 -4q169 -14 261 -30.5t216 -54.5q386 -119 739 -388q24 -24 24 -53t-18 -66q-178 -422 -250 -514q-30 -43 -47 -68q-24 -24 -57 -26h-10l-1202 20q-22 0 -28.5 3t-10.5 16l-52 173q-52 146 -112 208q-76 79 -191.5 127.5 t-322.5 87.5zM777 1171q0 -18 5 -48v-2v-2v-2q10 -21 29 -74l278 -522q55 -103 154 -134q25 -8 92 -14q68 -5 438 -21t434 -16h17q56 3 69 17q2 1 52 77q57 87 133 398q1 11 1 22q0 71 -77 135q-119 99 -312.5 185.5t-418.5 141.5q-141 36 -355 36q-276 0 -440 -44 q-99 -26 -99 -133zM860 1024v2l71 -4q25 0 488 -16l94 -7l4 7q1 3 -16 69q-8 28 -43 139l-17 50l-2 2h6q10 -9 37 -54q30 -49 70 -161q14 -40 18 -54q359 -28 456 -38t323 -39q69 -8 69 -35q-24 1 -51 4l-45 4q-125 16 -381 39l-201 16l-55 4q-108 11 -205 15l-256 18 l-252 14q-43 2 -73 2l-33 3q-4 12 -6 20zM1972 1342q0 1 1 1q216 -144 531 -280q222 -96 254 -96q-16 0 -16 -9q0 7 -49 17q-44 44 -222 135t-409 186zM2382 213q0 9 57 9l91 -3q13 0 13 27q0 17 -4 41q-6 28 -6 38q0 145 110 242q95 84 224 84q147 0 246 -107 q86 -93 86 -218v-2q38 2 127 10q8 2 10 14q46 122 46 252q0 56 -9 76q-14 28 -66 61q-30 19 -510 205l-2 4l457 -131q130 -57 157 -80q34 -31 41 -96q3 -23 3 -51q0 -107 -29 -236q-5 -19 -5 -30q0 -15 29 -50q11 -11 11 -21q0 -22 -43 -34q-33 -9 -242 -16 q-42 -96 -132 -151q-81 -50 -175 -50q-140 0 -236 96h-8l-80 8q-10 2 -48.5 22.5t-45.5 27.5l-66 57q-1 1 -1 2zM2621 328q0 -109 81 -183q71 -63 165 -63q109 0 182 81q64 70 64 165q0 109 -81 182q-70 63 -165 63q-109 0 -182 -80q-64 -70 -64 -165z" />
<glyph unicode="9" horiz-adv-x="2404" d="M206 915q0 27 43 117t97 177q127 201 201 209q165 16 341 16l384 -16q169 0 600 -320q181 -135 327 -262h-180q-160 140 -335 273q-297 225 -400 231q-202 14 -352 14q-188 0 -232 -24q-89 -50 -135 -160q-35 -85 -35 -183q0 -65 16 -118q40 -125 229 -380 q166 -224 255 -270q65 -33 306 -67.5t550 -55.5l-43 -96q-813 34 -901 55l-733 853q-3 1 -3 7z" />
<glyph unicode=":" horiz-adv-x="2583" d="M205 0v1434h1642l531 -682l-531 -752h-1642zM764 633h297v-297h168v297h297v168h-297v297h-168v-297h-297v-168z" />
<glyph unicode=";" horiz-adv-x="2583" d="M205 752l530 682h1643v-1434h-1643zM1163 596h742v217h-742v-217z" />
<glyph unicode="&#x3c;" horiz-adv-x="1364" d="M205 717l737 717l217 -213l-518 -504l518 -504l-217 -213z" />
<glyph unicode="=" d="M205 688l270 273l287 -287l621 622l256 -252l-895 -907z" />
<glyph unicode="&#x3e;" horiz-adv-x="1364" d="M205 213l518 504l-518 504l217 213l737 -717l-737 -717z" />
<glyph unicode="?" horiz-adv-x="4092" d="M205 29q78 250 156 405q75 154 290 504q-55 37 -71 66q-6 11 -6 25q0 43 41 84q8 8 20 8l92 -46l6 3q0 10 -34 45q-42 32 -60 53q-8 9 -8 18q0 21 80 37l248 45q243 50 850 109q467 49 897 49q320 0 563 -31q337 -43 518 -127q77 -36 100 -63q-24 -2 -125 -25 q-274 90 -399 113q-87 17 -394.5 38t-469.5 21q-168 0 -610 -46q-377 -39 -400 -58q-36 -32 -295.5 -427.5t-298.5 -478.5q-65 -137 -149 -350q-316 18 -363 25q-47 4 -178 4z" />
<glyph unicode="@" d="M205 422q0 164 161 321q43 43 94.5 79.5t80.5 45.5q12 4 26 4q64 0 179 -38l-322 -322q-51 -51 -51 -98q0 -57 88 -142l16 -16q85 -88 142 -88q47 0 98 51l324 324q32 -115 32 -181q0 -19 -4 -32q-10 -34 -57 -95t-98 -107q-142 -128 -287 -128q-146 0 -275 131l-16 16 q-131 132 -131 275zM606 518q0 43 23 66l393 393q25 24 61 24q45 0 84 -39t39 -84q0 -36 -24 -61l-393 -393q-28 -18 -66 -18q-51 0 -82 30q-35 32 -35 82zM766 1076q0 16 2 22q13 36 60.5 97.5t97.5 108.5q145 130 291 130q143 0 274 -131l17 -16q131 -132 131 -275 q0 -162 -158 -319q-43 -42 -93.5 -78.5t-78.5 -44.5q-14 -4 -31 -4q-67 0 -182 32l323 324q50 49 50 98q0 56 -86 142l-17 16q-84 88 -141 88q-47 0 -98 -51l-322 -322q-39 119 -39 183z" />
<glyph unicode="A" horiz-adv-x="1651" d="M205 256q0 63 23 164.5t54 174.5q96 229 261 229l287 -287l266 287q190 0 288 -243q62 -153 62 -304q0 -160 -44.5 -218.5t-166.5 -58.5h-840q-100 0 -140 46q-50 58 -50 210zM555 1172q0 117 86 195q74 67 174 67q117 0 195 -86q67 -75 67 -176q0 -115 -86 -193 q-75 -67 -176 -67q-115 0 -193 86q-67 74 -67 174z" />
<glyph unicode="B" horiz-adv-x="1753" d="M205 552q0 47 17 123t40 130q72 171 195 171l215 -215q-2 -4 -10 -14q-111 -133 -158 -387h-158q-74 0 -104 36q-37 44 -37 156zM467 1238q0 87 65 145q55 51 129 51q88 0 146 -65q51 -56 51 -131q0 -86 -65 -145q-56 -50 -132 -50q-85 0 -144 65q-50 55 -50 130z M621 192q0 48 17 123.5t39 129.5q71 171 196 171l213 -215l200 215q142 0 215 -182q47 -115 47 -227q0 -124 -34 -165.5t-133 -41.5h-601q-86 0 -116 30q-43 42 -43 162zM881 877q0 87 65 145q56 51 132 51q85 0 144 -65q50 -56 50 -131q0 -86 -65 -145q-55 -50 -129 -50 q-88 0 -146 65q-51 55 -51 130z" />
<glyph unicode="C" horiz-adv-x="1948" d="M205 488q0 50 18 131.5t43 139.5q76 183 209 183l232 -229l215 229q103 0 176 -94q-138 -72 -214 -205q-69 -120 -69 -260q0 -47 11 -102h-467q-81 0 -113 38q-41 47 -41 169zM486 1223q0 94 70 157q60 54 141 54q93 0 155 -70q54 -60 54 -141q0 -92 -69 -155 q-60 -54 -140 -54q-94 0 -157 69q-54 60 -54 140zM993 276q0 24 35 52l31 22q-4 17 -4 49q0 31 2 45l-29 25q-35 24 -35 49q0 27 29 76q44 74 76 74q10 0 39 -13l33 -14q32 30 86 51l4 35q5 42 23 54q21 14 83 14q66 0 85.5 -12t25.5 -56q0 -10 4 -35q48 -19 86 -51l33 14 q29 13 41 13q32 0 69 -70q33 -57 33 -82q0 -23 -35 -47l-30 -25q4 -14 4 -45q0 -15 -4 -49l30 -24q35 -25 35 -47q0 -26 -33 -82q-37 -70 -69 -70q-13 0 -41 12l-37 15q-33 -28 -82 -48q-4 -28 -4 -38q-6 -43 -23 -54q-22 -14 -88 -14q-62 0 -81.5 12.5t-24.5 55.5l-4 38 q-53 22 -84 48l-35 -15q-29 -12 -39 -12q-32 0 -76 74q-29 49 -29 75zM1200 399q0 -75 56 -125q48 -43 113 -43q74 0 124 55q44 48 44 113q0 75 -56 125q-48 44 -112 44q-75 0 -125 -56q-44 -48 -44 -113z" />
<glyph unicode="D" horiz-adv-x="1841" d="M205 497q0 50 18 130.5t42 138.5q76 182 208 182l227 -229l213 229q85 0 144 -59v-365h-240v-231h-461q-80 0 -111 38q-40 46 -40 166zM484 1225q0 94 68 156q59 53 139 53q93 0 155 -68q54 -60 54 -141q0 -92 -69 -154q-60 -53 -140 -53q-92 0 -154 68q-53 59 -53 139z M936 272v154h272v272h156v-272h273v-154h-273v-272h-156v272h-272z" />
<glyph unicode="E" horiz-adv-x="1853" d="M205 492q0 50 18 131.5t42 139.5q76 183 208 183l230 -229l215 229q160 0 235 -213v-176h-446v-270h-350q-79 0 -112 38q-40 46 -40 167zM484 1225q0 92 69 155q60 54 140 54q94 0 156 -69q53 -60 53 -140q0 -93 -68 -155q-60 -54 -141 -54q-92 0 -155 69q-54 60 -54 140 zM860 211v211h420v211l369 -317l-369 -316v211h-420z" />
<glyph unicode="F" horiz-adv-x="2038" d="M205 682q0 40 14.5 105t33.5 111q61 146 167 146l182 -184l172 184q74 0 128 -61t79 -174q-276 -24 -287 -111q-1 -12 -26 -180h-340q-69 0 -96 36t-27 128zM428 1266q0 74 55 125q47 43 111 43q74 0 125 -56q43 -48 43 -112q0 -74 -56 -123q-48 -43 -112 -43 q-74 0 -123 55q-43 47 -43 111zM721 186v70q1 2 6 27q3 18 10 39q3 6 11 16q8 12 8 16q3 8 3 19l-1 18q-2 15 -2 31q3 52 59 151q26 40 35 64v2l-27 10l29 4q81 17 219 29l31 4h96q116 -11 270 -98q85 -50 156 -105l4 -4q27 -19 39 -39l2 -2q26 -3 39 -8q16 -5 49 -37 q18 -17 27 -31q22 -35 24 -86q13 -7 21 -40q1 -7 4 -15v-45l-8 -29q-8 -20 -8 -32v-6l-4 -3q-13 -4 -21 -4l-2 2q-27 -83 -113 -104h-43q-20 2 -63 27l-23 14q-10 4 -16 6q-23 11 -27 14l-12 11l-20 12q-16 4 -43 4q-29 0 -45 -2l-49 -1q-14 0 -23 1q-27 2 -92 2h-49 q-27 0 -39 2h-43q-25 0 -41 -4q-11 -3 -25 -16q-23 -19 -35 -19q-39 -39 -90 -51h-45q-118 27 -127 123v24q1 10 1 15q0 13 -5 22zM772 256q11 11 23 18q31 21 71 21q70 0 119 -53q45 -45 45 -107q177 -2 461 -18q16 148 141 161q10 1 20 1q116 0 140 -111q5 14 5 31 q0 26 -9 41q-15 25 -100 43q-51 15 -54 16l-34 14l38 2q61 0 119 -22l-2 12l-2 27l-22 22q-24 28 -39 35q-8 4 -58 8q-18 0 -26 2q-61 7 -275 27l-41 4q-198 14 -315 35q6 -51 72 -137l18 -25q58 -78 96 -94q30 -12 115 -23l41 -4q26 -3 51 -6q68 -7 113 -16l14 -2l-8 -11 q-14 -20 -47 -20q-17 0 -25 2h-16l-23 2l-75 4l-45 2q-99 2 -138 21q-24 11 -63 59l-6 8l-119 144l-4 4l-17 22l-33 40q-17 17 -34 22l-6 2v8q6 24 43 106q25 57 26 60q-6 2 -14 2h-10h-10h-5q6 -9 6 -19q0 -15 -18 -43q-3 -4 -8 -14l-6 -12q-27 -53 -25 -64l4 -4 q11 -8 11 -16v-19l-15 13h-10q-7 -30 -7 -64q0 -29 5 -51l29 -4q63 -11 82 -23l32 -20l-47 6q-59 7 -82 7q-19 0 -33 -3q-12 -33 -14 -49zM782 145q0 -35 25 -59q29 -29 66 -29q16 0 28 6q63 21 63 79q0 8 -1 16q-6 32 -31.5 52.5t-58.5 20.5q-11 -2 -17 -2q-34 -4 -54 -27 t-20 -57zM975 481q16 2 53 2q58 0 203 -12l113 -8l55 -4l160 -10q-33 40 -117 94q-138 87 -270 92h-27q-89 0 -131 -23q-39 -23 -39 -118v-13zM1057 1067v141h219v219h141v-219h220v-141h-220v-219h-141v219h-219zM1565 140q0 -34 22 -58q25 -27 66 -27q63 0 82 51 q5 16 5 32q0 28 -16 50q-26 37 -71 37q-1 0 -19 -2q-25 -3 -45 -22l-4 -4q-20 -21 -20 -57z" />
<glyph unicode="G" horiz-adv-x="2036" d="M205 682q0 39 14.5 103.5t33.5 110.5q61 146 167 146l182 -182l172 182q74 0 127.5 -60.5t79.5 -172.5q-275 -24 -287 -111q-1 -12 -26 -180h-344q-63 0 -88 31q-31 37 -31 133zM428 1266q0 74 55 125q47 43 111 43q74 0 125 -56q43 -48 43 -112q0 -74 -56 -123 q-48 -43 -112 -43q-74 0 -123 55q-43 47 -43 111zM721 186v70q2 6 6 27q3 18 10 39q3 6 11 16q8 12 8 16q2 8 2 19v18q-2 13 -2 31q1 33 10.5 56.5t48.5 92.5q27 47 35 66l-27 10l29 6q81 17 219 29l31 2h94q122 -9 272 -98q95 -56 154 -105l4 -2q31 -23 41 -39l2 -2 q21 -3 37 -8q18 -6 51 -37q18 -17 27 -31q19 -31 22 -86q13 -6 23 -40q0 -7 2 -15v-45q-3 -18 -8 -29q-6 -15 -6 -32v-6l-7 -3q-12 -4 -20 -4q-27 -80 -113 -102h-2h-43q-21 2 -61 27q-13 8 -23 14q-7 2 -16 6q-17 7 -27 14q-8 7 -14 11l-18 12q-21 4 -43 4q-31 0 -45 -2 l-50 -1q-14 0 -22 1q-27 2 -92 2h-52q-24 0 -38 2h-41q-27 0 -43 -4q-9 -2 -23 -16q-23 -19 -35 -19q-39 -39 -90 -51h-47q-116 27 -125 123v24q1 10 1 15q0 13 -5 22zM772 256l21 18q33 19 73 19q72 0 119 -52q43 -43 43 -106q180 -2 463 -18q16 149 141 162q11 1 20 1 q113 0 140 -112q4 14 4 32q0 27 -8 40q-15 24 -102 43q-47 14 -52 16l-36 14l38 2q54 0 121 -22l-2 12q-2 8 -2 25q-16 16 -22 24q-26 30 -39 35q-10 4 -58 8q-20 0 -28 2q-63 7 -273 27l-43 2q-212 19 -313 37q6 -49 72 -139l18 -23q61 -82 96 -96q24 -10 115 -21l41 -4 q34 -4 49 -6q71 -7 115 -16l12 -2l-6 -11q-16 -20 -47 -20q-17 0 -25 2h-18l-21 2l-75 4l-45 2q-99 2 -138 21q-24 11 -63 59l-8 8l-117 144l-4 4q-16 20 -17 22q-41 54 -67 62l-8 2l2 8q4 24 41 106q17 32 28 60q-6 2 -16 2h-8h-13h-2q6 -9 6 -19q0 -15 -18 -43 q-6 -10 -8 -16l-6 -10q-27 -53 -25 -64l4 -6q9 -6 9 -14l2 -19l-15 13l-10 -2q-7 -28 -7 -63q0 -28 5 -50q16 -4 29 -4q60 -9 79 -23l35 -20l-47 6q-59 7 -83 7q-18 0 -32 -3q-14 -29 -14 -49zM782 145q0 -33 25 -59q27 -29 66 -29q13 0 28 6q63 22 63 80q0 8 -1 14 q-6 33 -31.5 53.5t-59.5 20.5l-16 -2q-33 -2 -53.5 -25.5t-20.5 -58.5zM974 503q0 -9 1 -22q16 2 53 2q60 0 201 -12q34 -4 115 -8l53 -4l162 -13q-34 45 -117 97q-140 87 -273 92h-24q-89 0 -131 -23q-40 -22 -40 -109zM1041 1139q0 131 97 219q84 76 198 76t200 -80l66 64 l8 -246l-225 41l65 61q-52 43 -114 43q-81 0 -134 -59q-46 -50 -46 -119q0 -79 59 -132q51 -46 121 -46q58 0 105.5 35.5t63.5 91.5l9 27l106 -48l-6 -22q-33 -96 -118 -152q-73 -49 -160 -49q-132 0 -219 98q-76 84 -76 197zM1565 140q0 -36 22 -60q23 -25 66 -25 q61 0 80 51q6 19 6 36q0 26 -15 47q-25 37 -73 37q-1 0 -19 -2q-23 -3 -43 -23l-4 -4q-20 -17 -20 -57z" />
<glyph unicode="H" horiz-adv-x="2038" d="M205 682q0 40 14.5 105t33.5 111q61 146 167 146l182 -184l172 184q74 0 128 -61t79 -174q-276 -24 -287 -111q-1 -12 -26 -180h-340q-69 0 -96 36t-27 128zM428 1266q0 74 55 125q47 43 111 43q74 0 125 -56q43 -48 43 -112q0 -74 -56 -123q-48 -43 -112 -43 q-74 0 -123 55q-43 47 -43 111zM721 186v70q2 6 6 27q3 18 10 39q3 6 11 16q8 12 8 16q3 8 3 19l-1 18q-2 15 -2 31q3 52 59 151q26 40 35 64v2l-27 10l29 4q81 17 219 29l31 4h96q116 -11 270 -98q85 -50 156 -105l4 -4q27 -19 39 -39l2 -2q26 -3 39 -8q16 -5 49 -37 q18 -17 27 -31q22 -35 24 -86q13 -7 21 -40q1 -7 2 -15l2 -45l-8 -29q-8 -20 -8 -32v-6l-4 -3q-7 -2 -21 -2h-2q-28 -83 -113 -104h-43q-20 2 -63 27l-23 14q-10 4 -16 6q-23 11 -27 14l-12 11l-20 12q-16 4 -43 4q-29 0 -45 -2l-50 -1q-14 0 -22 1q-27 2 -92 2h-49 q-27 0 -39 2h-43q-25 0 -41 -4q-11 -3 -25 -16q-23 -19 -35 -19q-39 -39 -90 -51h-45q-118 27 -127 123v24q1 10 1 15q0 13 -5 22zM772 256q11 11 23 18q31 21 71 21q70 0 119 -53q45 -45 45 -107q177 -2 461 -18q16 148 141 161q10 1 20 1q116 0 140 -111q5 14 5 31 q0 26 -9 41q-15 25 -100 43q-51 15 -54 16l-34 14l38 2q61 0 119 -22l-2 12l-2 27l-22 22q-24 28 -39 35q-8 4 -58 8q-18 0 -26 2q-61 7 -275 27l-41 4q-198 14 -315 35q6 -51 72 -137l18 -25q58 -78 96 -94q30 -12 115 -23l41 -4q26 -3 51 -6q68 -7 113 -16l14 -2l-8 -11 q-14 -20 -47 -20q-17 0 -25 2h-16l-23 2l-75 4l-45 2q-99 2 -138 21q-24 11 -63 59l-6 8l-119 144l-4 4l-17 22l-33 40q-17 17 -34 22l-6 2v8q6 24 43 106q25 57 26 60q-6 2 -14 2h-10h-10h-5q6 -9 6 -19q0 -15 -18 -43q-3 -4 -8 -14l-6 -12q-27 -53 -25 -64l4 -6 q11 -6 11 -14v-19l-15 13h-10q-7 -30 -7 -64q0 -29 5 -51l29 -4q63 -11 82 -23l32 -20l-47 6q-59 7 -82 7q-19 0 -33 -3q-12 -33 -14 -49zM782 145q0 -35 25 -59q29 -29 66 -29q16 0 28 6q63 21 63 79q0 8 -1 16q-6 32 -31.5 52.5t-58.5 20.5q-11 -2 -17 -2q-34 -4 -54 -27 t-20 -57zM975 481q16 2 53 2q58 0 203 -12l113 -8l55 -4l160 -10q-35 43 -117 96q-133 85 -270 90h-27q-89 0 -131 -23q-39 -23 -39 -118v-13zM1067 965l164 164l-164 164l105 106l163 -164l164 164l105 -106l-164 -164l164 -164l-105 -104l-164 163l-163 -163zM1565 140 q0 -34 22 -58q25 -27 66 -27q63 0 82 51q5 16 5 32q0 28 -16 50q-26 37 -71 37q-1 0 -19 -2q-25 -3 -45 -22l-4 -4q-20 -21 -20 -57z" />
<glyph unicode="I" horiz-adv-x="1931" d="M205 461q0 52 19 136t44 144q79 189 216 189l235 -238l221 238q107 0 180 -99q-139 -74 -217 -211q-71 -124 -71 -266q0 -50 10 -104h-479q-84 0 -117 39q-41 47 -41 172zM494 1219q0 96 71 160q61 55 144 55q96 0 160 -71q55 -61 55 -144q0 -97 -71 -161 q-61 -56 -144 -56q-96 0 -160 71q-55 62 -55 146zM1016 354q0 158 118 263q101 91 238 91q158 0 263 -116q92 -101 92 -238q0 -158 -117 -263q-102 -91 -238 -91q-158 0 -264 116q-92 101 -92 238zM1292 548q0 -32 22 -52.5t56 -20.5q36 0 59 21q22 20 22 49q0 35 -23 57 q-22 20 -56 20t-57 -21t-23 -53zM1309 94h125v328h-125v-328z" />
<glyph unicode="J" horiz-adv-x="1860" d="M205 236v90q5 9 8 32q4 34 10 49q4 10 15 21l10 18q1 6 1 15l-1 30q-3 16 -2 37q3 70 72 189q29 54 39 77l2 17l6 12q74 16 250 33l47 4h115q124 -10 270 -90v-84q-149 95 -303 102h-4h-25q-105 0 -154 -28q-45 -27 -45 -136v-14h58q92 0 235 -14h15q80 -8 127 -10l78 -7 l149 -10l195 -20l10 -4q20 -7 61 -47h2q19 -22 31 -41q26 -41 29 -105q18 -12 26 -55l2 -14l2 -60q-2 -14 -10 -35v-2q-8 -24 -8 -39v-10l-10 -4q-8 -4 -25 -4q-34 -104 -135 -129h-2h-51q-29 2 -78 33q-16 12 -27 18q-10 6 -16 8h-4l-31 17l-14 12l-2 2q-6 6 -21 14 q-24 5 -49 5q-37 0 -55 -2l-59 -1q-14 0 -25 1q-31 2 -109 2h-61l-45 2l-51 2q-30 0 -48 -6q-13 -5 -26 -19q-30 -25 -43 -25q-46 -48 -109 -63h-55q-137 34 -153 158q-1 4 -1 10v20q0 31 -6 43zM279 338q8 8 14 12q40 25 92 25q86 0 144 -66q50 -57 53 -129l195 -6 q-62 7 -95 23q-28 13 -75 73l-11 13q-31 38 -139 176l-4 6q-13 16 -21 28q-48 64 -77 74l-37 -2q-8 -30 -8 -73q0 -31 4 -58q-11 -29 -23 -55q-10 -23 -12 -41zM289 187q0 -43 27 -70q32 -34 76 -34q16 0 30 5q71 29 71 94q0 8 -2 17q-7 39 -34.5 63.5t-65.5 24.5l-20 -2 q-36 -3 -59 -31t-23 -67zM521 575q10 -61 83 -161l21 -29q70 -99 113 -117q39 -16 133 -24l6 -2q16 0 45 -4l51 -7h11q74 -8 133 -22l14 -2q29 108 115 139l47 14q29 0 63 11q52 10 58 10l20 -2v6q-2 8 -2 29q-10 8 -27 28q-24 33 -43 41q-4 2 -67 8q-21 3 -33 4 q-24 4 -326 33l-49 4q-272 26 -366 43zM948 983v164h275v287h158v-287h274v-164h-274v-289h-158v289h-275zM1219 182q-1 -44 25 -71q29 -31 73 -31q71 0 92 59q7 21 7 40q0 33 -16 56q-30 43 -83 43q-13 0 -22 -2q-32 -7 -49 -24l-4 -4q-21 -24 -23 -66zM1403 338 q56 -28 78 -98q1 7 1 14q0 31 -9 47q-12 22 -70 37z" />
<glyph unicode="K" horiz-adv-x="2562" d="M205 0v129h242q-208 52 -224 221q-1 9 -1 21l2 52q0 36 -13 58v125l31 129l38 66q3 13 3 30q0 14 -2 48l-1 36q0 10 1 19l180 418q16 -17 16 -38t-21 -56q-29 -48 -30 -50l-40 -80q-20 -44 -20 -66q0 -3 1 -7l24 -39q-6 4 -17 4q-19 0 -26 -8q-16 -55 -16 -132 q0 -65 12 -114l125 -21q63 -12 96 -32q-123 15 -172 15q-46 0 -84 -7q-35 -78 -35 -139v-7l70 56q65 39 139 39q126 0 218 -97q80 -86 80 -197q0 -7 -1 -16q365 -4 936 -38q10 143 83 227q67 80 179 92q19 2 36 2q120 0 193 -77q61 -65 74 -171q32 30 32 104q0 58 -19 89 l-308 121h23q97 0 229 -47l-10 104l-129 121q-27 11 -86 15l-86 5q-209 24 -534 51q-530 48 -703 78q48 3 101 3l618 -41q401 -25 534 -39l101 -8q49 -4 74 -13q29 -10 94 -74q31 -30 47 -55q40 -63 43 -168q26 -7 36 -43l11 -57v-86l-31 -121q-10 -4 -47 -4 q-48 -162 -205 -201h291v-129h-2152zM297 395q0 -86 68 -142q55 -46 126 -46q31 0 60 10q64 24 99.5 69.5t35.5 103.5q0 81 -60 136q-55 52 -135 52q-18 0 -34 -3q-72 -10 -116 -59t-44 -121zM438 1020l140 336q-11 12 -41 14l-47 -1q-25 0 -37 5q110 23 487 60h185 q127 -10 245 -53t277 -138q164 -98 301 -203q65 -50 82 -78l-172 19q-68 95 -246 207q-268 170 -539 180q-26 1 -51 1q-179 0 -264 -48t-85 -234q0 -32 3 -63q7 -65 36 -119t124 -182q89 -117 108 -139q57 -62 107 -82q58 -23 161 -36l150 -16l320 -43q-23 -31 -79 -31 l-81 5q-148 5 -191 8l-198 12q-102 10 -150 31q-39 19 -135 131q-80 94 -235 289l-85 106q-44 47 -90 62zM543 129h1423q-37 5 -81 34q-62 39 -66 42l-82 38q-68 47 -68 48q-32 7 -92 7l-179 -4q-22 0 -44 1q-57 4 -164 4h-117l-159 4q-59 0 -87 -8l-116 -70 q-71 -74 -168 -96zM1827 389v-8q0 -88 64 -140q52 -41 124 -41q61 0 108 30.5t66 82.5q13 35 13 71q0 82 -61 136q-54 47 -128 47q-20 0 -39 -3q-56 -11 -94 -50q-32 -33 -41.5 -54.5t-11.5 -70.5z" />
<glyph unicode="L" horiz-adv-x="2003" d="M205 986q0 41 49 67l653 367q29 14 60 14q29 0 57 -14l654 -367q49 -26 49 -67q0 -10 -5 -19q-11 -19 -46 -19q-29 0 -50 13q-657 367 -659 369l-6 -5l-656 -364q-23 -14 -51 -14q-33 0 -45 20q-4 6 -4 19zM303 248v86l20 92l27 43q6 15 6 29q0 16 -4 28q-3 18 -2 37 l127 293q12 -12 12 -25t-16 -40l-21 -33q-41 -74 -41 -104v-5l17 -28l-12 4q-6 0 -17 -7q-12 -36 -12 -92q0 -49 8 -80l88 -14q43 -8 66 -22q-75 12 -119 12q-32 0 -59 -6q-23 -53 -23 -103l47 39q49 29 103 29q88 0 148 -70q54 -62 54 -149q297 -3 656 -27q7 101 64 164 q54 59 132 59q88 0 141 -50q47 -45 56 -122q24 25 24 76q0 36 -14 60l-215 86q74 0 176 -33l-6 63v8l-90 84q-19 8 -62 11l-59 4q-170 19 -375 37q-341 27 -491 55q22 2 67 2l437 -31q234 -12 374 -26q110 -11 119 -15q23 -8 68 -51q17 -17 33 -39q27 -40 30 -119 q18 -4 25 -29l8 -40v-60l-20 -84q-9 -4 -35 -4q-32 -114 -148 -141h-57q-29 0 -62 21l-49 32l-57 29l-49 33q-15 4 -60 4l-356 2l-106 2q-47 0 -66 -6l-82 -47q-50 -54 -121 -70h-59q-77 19 -119.5 65.5t-42.5 112.5q0 17 2 33q0 21 -8 37zM362 186q0 -53 40.5 -92t94.5 -39 t95 37.5t41 87.5q0 56 -41 94.5t-101 38.5q-56 0 -92.5 -36t-36.5 -91zM463 625l96 235q-8 8 -32 8h-29q-21 0 -27 2q137 29 204.5 37t172.5 8q44 0 94 -2q86 -4 161.5 -31t203.5 -102q117 -68 211 -141q45 -36 57 -53q-85 4 -121 10q-44 64 -172 145q-110 69 -197 98 t-180 29q-162 0 -219 -32q-57 -31 -57 -209q0 -53 40 -117q9 -13 71 -94q69 -92 93 -116.5t58 -37.5q40 -15 112 -24l105 -13l104 -9q50 -5 119 -19q-17 -23 -55 -23l-57 4q-94 2 -133 6l-139 8q-72 5 -105 21q-22 10 -51 42l-43 50q-65 76 -164 201l-60 76q-30 33 -61 43z M1433 184q0 -59 36.5 -96t95.5 -37q42 0 75 21.5t45 56.5q11 31 11 53q0 54 -39 89.5t-99 35.5q-52 0 -88.5 -36t-36.5 -87z" />
<glyph unicode="M" horiz-adv-x="2027" d="M207 409l156 232q0 34 -29 60q-119 101 -119 280q0 201 181 336q157 117 368 117q245 0 409 -149q142 -129 142 -303q0 -202 -181 -336q-157 -117 -370 -117q-59 0 -102 8h-12l-435 -129q-3 -1 -5 -1q-3 0 -3 2zM897 395q249 4 416 158q144 133 144 311q169 -31 273 -147 q91 -102 91 -230q0 -148 -100 -239q-25 -19 -25 -51l126 -196q0 -1 -1 -1l-369 111q-4 -1 -12 -2q-43 -7 -88 -7q-174 0 -306 94q-112 81 -149 199z" />
<glyph unicode="N" horiz-adv-x="2429" d="M205 221v992q0 117 92 175q73 46 189 46h1458q133 0 208 -60q72 -58 72 -161v-992q0 -118 -92 -176q-73 -45 -188 -45h-1458q-134 0 -209 60q-72 57 -72 161zM502 305q0 -31 2 -51h662q2 18 2 45q0 160 -60 267q-82 146 -262 146q-214 0 -298 -177q-46 -97 -46 -230z M643 1013q0 -84 62 -140q54 -48 127 -48q82 0 138 62q48 54 48 126q0 83 -62 139q-53 48 -124 48q-84 0 -141 -62q-48 -53 -48 -125zM1313 989h553v193h-553v-193z" />
<glyph unicode="O" d="M205 717q0 195 98 362q95 162 257 257q168 98 362 98t362 -98q162 -95 257 -257q98 -167 98 -362q0 -194 -98 -362q-95 -162 -257 -257q-168 -98 -362 -98t-362 98q-162 95 -257 257q-98 168 -98 362zM314 715q0 -24 4 -61q65 -130 276 -207q-29 118 -36 264 q-205 4 -244 4zM316 764q37 0 242 -4q3 117 32 225q-220 -86 -274 -221zM334 875q97 103 269 156q58 182 159 272q-167 -44 -285 -172q-103 -110 -143 -256zM336 551q46 -159 166 -273q104 -100 240 -143q-90 93 -137 269q-172 54 -269 147zM605 711q3 -148 41 -281 q116 -37 229 -37v314zM605 760q82 0 270 -4v289q-117 -4 -229 -39q-38 -118 -41 -246zM656 389q74 -237 186 -274q12 -4 33 -4v250q-101 0 -219 28zM660 1047q107 27 215 31v245q-137 -52 -215 -276zM945 109l63 6q111 68 175 281q-113 -26 -238 -33v-254zM945 393 q124 10 248 43q33 135 37 271h-285v-314zM945 756l285 -4q0 115 -43 254q-132 33 -242 39v-289zM945 1076q105 -3 227 -29q-87 228 -227 270v-241zM1054 1311q110 -87 172 -278q185 -48 280 -144q-51 170 -185 287q-118 102 -267 135zM1097 133q163 50 277 177 q101 112 136 256q-86 -101 -278 -156q-49 -185 -135 -277zM1240 990q32 -124 35 -238q110 -2 254 -2v16q0 13 -2 21q-36 124 -287 203zM1242 451q269 92 289 248l-256 4q-4 -129 -33 -252z" />
<glyph unicode="P" horiz-adv-x="1923" d="M205 260v633q0 54 37.5 91.5t91.5 37.5h1255q54 0 91.5 -37.5t37.5 -91.5v-633q0 -54 -37.5 -91.5t-91.5 -37.5h-168v629h-927v-629h-160q-54 0 -91.5 37.5t-37.5 91.5zM471 1108v326h981v-326h-981zM551 0v702h821v-702h-821zM688 115h537v90h-537v-90zM688 295h537v90 h-537v-90zM688 475h539v90h-539v-90z" />
<glyph unicode="Q" horiz-adv-x="1604" d="M205 926q0 148 89 275q77 111 198 172q123 61 262 61q158 0 293 -78q117 -69 184 -180q72 -119 72 -250q0 -67 -18 -131q-37 -131 -142 -230l236 -368q18 -30 18 -65q0 -79 -74 -116q-32 -16 -69 -16q-87 0 -127 68l-234 364q-72 -16 -139 -16q-133 0 -260 66 q-128 67 -205 180q-84 121 -84 264zM414 926q0 -75 41 -143q44 -73 124.5 -115.5t174.5 -42.5q87 0 168 39q126 63 162 188q10 41 10 72q0 75 -41 143q-44 73 -124.5 115.5t-174.5 42.5q-89 0 -168 -41q-129 -65 -162 -186q-10 -39 -10 -72z" />
<glyph unicode="R" horiz-adv-x="1769" d="M205 172q0 55 29 94l551 594q-25 64 -25 154q0 188 135 324q96 96 232 96q73 0 129 -23q-99 -57 -156 -125v-313h336q55 64 94 145q35 -63 35 -151q0 -119 -82 -211q-127 -150 -428 -150h-37l-524 -579q-58 -27 -121 -27q-86 0 -129 61q-39 56 -39 111zM318 183 q0 -30 20.5 -51t49.5 -21q28 0 48.5 21t20.5 51q0 29 -20 49t-49 20q-30 0 -50 -20t-20 -49z" />
<glyph unicode="S" horiz-adv-x="1503" d="M205 176v1082q0 87 67 136q54 40 136 40h461v-418h430v-840q0 -88 -67 -137q-54 -39 -136 -39h-688q-95 0 -151 51q-52 48 -52 125zM700 412l218 -213l217 213h-152v244h-131v-244h-152zM983 1128v308l6 -2l289 -306h-295z" />
<glyph unicode="T" horiz-adv-x="1473" d="M205 1138q0 44 31.5 75.5t74.5 31.5h238q0 84 62 140q54 49 126 49q82 0 137 -61q48 -52 52 -128h237q44 0 74.5 -31t30.5 -76q0 -43 -30.5 -73.5t-74.5 -30.5h-852q-43 0 -74.5 31t-31.5 73zM307 112v398v463h861v-867q-3 -45 -37 -75.5t-82 -30.5h-629q-45 0 -76 31 t-37 81zM477 229q0 -17 12 -29t29 -12t29 12t12 29v627q0 17 -12 29t-29 12t-29 -12t-12 -29v-627zM696 229q0 -17 12 -29t29 -12q18 0 30 12t12 29v627q0 17 -12 29t-30 12q-17 0 -29 -12t-12 -29v-627zM916 229q0 -17 12 -29t29 -12t29 12t12 29v627q0 17 -12 29t-29 12 t-29 -12t-12 -29v-627z" />
<glyph unicode="U" horiz-adv-x="1118" d="M205 114v628q0 52 35.5 83t95.5 31h299v-270h279v-472q0 -51 -36 -82.5t-95 -31.5h-447q-59 0 -95 31.5t-36 82.5zM355 143h409v58h-409v-58zM355 287h409v57h-409v-57zM355 430h409v58h-409v-58zM365 1204h129v230h131v-230h129l-195 -227zM709 657v199l192 -199h-192z " />
<glyph unicode="V" d="M205 0v1434h311v-562h724v562h55l344 -314v-1120h-1434zM899 983v375h233v-375h-233z" />
<glyph unicode="W" horiz-adv-x="1765" d="M205 1155l565 67l19 -317h-281v-514l-182 -16zM666 0v719h823v-719h-823zM686 1432q17 2 45 2q180 0 333 -64q211 -87 306 -280h191l-307 -258l-342 258h206q-12 108 -93 193q-114 116 -339 149z" />
<glyph unicode="X" d="M205 717q0 194 98 362q95 162 257 257q168 98 362 98t362 -98q162 -95 257 -257q98 -168 98 -362t-98 -362q-95 -162 -257 -257q-168 -98 -362 -98t-362 98q-162 95 -257 257q-98 168 -98 362zM539 473l143 -145l234 235l245 -247l144 145l-254 256l254 256l-144 145 l-245 -247l-234 235l-143 -145l239 -244z" />
<glyph unicode="Y" horiz-adv-x="1622" d="M205 131v670q0 28 20 45.5t54 17.5h255q34 0 54 -17.5t20 -45.5v-129h566q78 0 122 -35t44 -96v-410q0 -62 -43.5 -96.5t-122.5 -34.5h-803q-78 0 -122 35t-44 96zM453 987l98 313l504 -155l-109 -352h-215v8q0 86 -63 139q-55 47 -133 47h-82zM891 1330l51 104l475 -233 l-202 -410q-13 2 -41 2h-99l136 436z" />
<glyph unicode="Z" d="M205 717q0 194 98 362q95 162 257 257q168 98 362 98t362 -98q162 -95 257 -257q98 -168 98 -362t-98 -362q-95 -162 -257 -257q-168 -98 -362 -98t-362 98q-162 95 -257 257q-98 168 -98 362zM367 717q0 -150 76 -280q74 -125 200 -199q129 -76 279 -76t279 76 q125 74 198 199q76 130 76 280q0 151 -76 280q-73 126 -198 199q-129 76 -279 76t-279 -76q-126 -73 -200 -199q-76 -129 -76 -280zM391 717q0 235 175 394q152 138 356 138q235 0 393 -176q137 -152 137 -356q0 -236 -175 -394q-151 -137 -355 -137q-236 0 -394 175 q-137 151 -137 356zM537 743l254 43v2l-92 242q-150 -106 -162 -287zM539 680q15 -175 160 -279l92 239v1zM682 786q14 49 51 93q25 -64 25 -74v-2q-31 -10 -76 -17zM686 637q41 -6 72 -16q-8 -31 -23 -70q-33 37 -49 86zM750 1063l168 -205l168 207q-77 37 -164 37 q-88 0 -172 -39zM756 369q81 -38 166 -38q84 0 160 36l-166 200q-4 0 -160 -198zM858 956q28 9 64 9q35 0 53 -4q-33 -39 -59 -68q-27 27 -58 63zM864 475q27 33 52 55q24 -22 53 -57q-16 -4 -47 -4q-30 0 -58 6zM1043 641l92 -246q157 108 170 291zM1043 786q1 -1 264 -41 q-8 89 -52.5 165.5t-117.5 125.5zM1071 623q37 10 88 18q-20 -60 -61 -98q-16 45 -27 80zM1071 805q11 37 29 84q43 -43 61 -103q-84 11 -90 19z" />
<glyph unicode="[" d="M205 457l717 737l717 -737l-213 -217l-504 518l-504 -518z" />
<glyph unicode="\" horiz-adv-x="1851" d="M205 717q0 194 98 362q95 162 257 257q167 98 362 98q265 0 465 -174l145 135l115 -645l-615 180l160 148q-120 92 -270 92q-201 0 -336 -150q-117 -129 -117 -303q0 -201 149 -336q130 -117 304 -117q158 0 283 101q109 87 149 219l18 55l244 -106q-91 -266 -299 -410 q-178 -123 -395 -123q-195 0 -362 98q-162 95 -257 257q-98 168 -98 362z" />
<glyph unicode="]" d="M205 977l213 217l504 -518l504 518l213 -217l-717 -737z" />
<glyph unicode="^" d="M205 457l717 737l717 -737l-213 -217l-504 518l-504 -518z" />
<glyph unicode="_" horiz-adv-x="1462" d="M205 0v764h1053v-764h-1053zM305 807v162q0 206 141 345q122 120 285 120q188 0 316 -154q110 -133 110 -311v-162h-176v162q0 128 -83 215q-71 74 -167 74q-111 0 -185 -95q-65 -83 -65 -194v-162h-176zM606 471q0 -72 70 -100l8 -2l-64 -195h188l-66 195l8 2 q70 28 70 100q0 45 -31 76t-76 31q-44 0 -75.5 -31.5t-31.5 -75.5z" />
<glyph unicode="`" horiz-adv-x="1851" d="M205 1143l2 242l49 47l275 2q364 0 397 -33l684 -680q35 -35 35 -82q0 -45 -31 -76l-537 -532q-30 -31 -73 -31q-49 0 -84 35l-684 680q-33 33 -33 428zM375 1180q0 -37 29 -65q28 -29 67 -29t68 28q26 27 26 66t-27 65q-26 27 -67 27t-67 -27q-29 -28 -29 -65z" />
<glyph unicode="a" d="M205 684l422 449v-283h590v283l422 -449l-422 -383v281h-590v-281z" />
<glyph unicode="b" d="M205 379v170h326l166 172l-160 166h-332v168h416l201 -205l200 205h275v131l336 -221l-336 -223v143h-197l-151 -164l155 -172h199v143l336 -223l-336 -221v131h-264l-12 2l-205 211l-205 -213h-412z" />
<glyph unicode="c" d="M205 242v950q0 114 83 182q73 60 181 60h906q125 0 199 -77q65 -66 65 -165v-950q0 -115 -83 -183q-72 -59 -181 -59h-906q-125 0 -199 76q-65 66 -65 166zM332 242q0 -53 37 -84t100 -31h906q63 0 100 31t37 84v721h-1180v-721zM531 289v92q20 34 57 72q23 23 90 71 q29 20 45 33l29 27q9 13 12 25q4 16 4 26q0 26 -16 44q-15 16 -53 16q-25 0 -41 -8q-21 -11 -29 -17v-41h-88v98l33 23q14 10 41 20q19 8 47 15q26 6 55 6q73 0 119 -41q43 -39 43 -113q0 -59 -27 -94q-27 -36 -75 -70q-47 -31 -68 -49q-26 -23 -37 -39h121v45h86v-141h-348 zM547 1215q0 -37 25.5 -62.5t62.5 -25.5t62.5 25.5t25.5 62.5t-25.5 62.5t-62.5 25.5t-62.5 -25.5t-25.5 -62.5zM939 317l41 91q34 -16 55 -24q29 -10 67 -10q46 0 66 15q22 14 22 39q0 29 -27 43q-26 14 -67 14h-57v97h55q37 0 59 16q23 16 23 39q0 25 -18 40 q-19 14 -54 14q-33 0 -57 -9l-51 -23l-41 84q42 25 76 36q40 12 92 12q81 0 125 -35q45 -33 45 -98q0 -28 -6 -48q-7 -21 -19 -34q-18 -21 -24 -25q-18 -12 -29 -16q15 -3 33 -13q22 -12 30 -22q15 -18 21 -35q10 -29 10 -49q0 -38 -16 -66q-18 -29 -39 -43q-26 -17 -62 -25 q-37 -8 -73 -8q-53 0 -96 10q-41 10 -84 33zM1110 1215q0 -36 26 -62t63 -26t62.5 25.5t25.5 62.5t-25.5 62.5t-62.5 25.5t-63 -26t-26 -62z" />
<glyph unicode="d" horiz-adv-x="1716" d="M205 0v1190h909v-1190h-909zM336 215h271v59h-271v-59zM336 344h657v59h-657v-59zM336 471h657v61h-657v-61zM336 600h657v61h-657v-61zM336 729h657v59h-657v-59zM363 988q0 -37 26.5 -63t63.5 -26t63.5 26t26.5 63t-26 63.5t-64 26.5t-64 -26.5t-26 -63.5zM581 1235 l31 199l899 -144l-192 -1204l-160 25v1124h-578zM625 860h368v56h-368v-56z" />
<glyph unicode="e" d="M205 725q0 154 56 284q57 129 159 203l14 -22l17 22q27 0 27 -10l-31 -68q0 -8 4 -16q9 -1 16 -1l125 48l250 -526q81 -3 155 -61q99 -76 109 -82q-43 -28 -43 -77q0 -45 38 -112q5 -9 52 -82l-108 -223q-33 -2 -65 -2q-383 0 -603 256q-172 201 -172 469zM545 1342 q178 92 373 92q189 0 353 -93q167 -94 264 -258q104 -176 104 -394q-18 -216 -116 -369q-88 -135 -228 -205l8 23l-25 8l111 239l-125 177q-28 2 -48 2q-87 0 -124 -35l-76 93q0 14 12 34q-7 3 -15 3l-59 -21q-12 0 -20 17q-9 16 -9 31q0 32 36.5 57t83.5 25l50 -65 q5 0 11 2q-1 90 48 139t171 82q-41 194 -172 240q-18 -1 -18 -27l5 -57q0 -26 -17 -27q-113 49 -125 143q4 15 33 15l40 -1q36 0 36 24q0 4 -1 10q-25 50 -101 50l-165 -15q-61 0 -92 28q-39 -23 -84 -23q-74 0 -119 56z" />
<glyph unicode="f" horiz-adv-x="954" d="M205 782v195h88v131q0 168 57 232q58 94 287 94q20 0 47 -2q44 -3 58 -4v-224q-25 5 -89 5q-44 0 -63 -25q-21 -25 -21 -55v-152h181v-195h-181v-782h-272v782h-92z" />
<glyph unicode="g" horiz-adv-x="2032" d="M205 264q0 74 44.5 136.5t125.5 103.5q124 63 317 69l-41 76q-8 19 -8 45q0 41 19 78q-17 -2 -47 -2q-139 0 -231 85q-87 80 -87 201q0 125 87 219q67 72 163 103q92 31 256 31l240 -4q55 0 82 2l-117 -68h-109q127 -115 127 -252q0 -16 -2 -31q-14 -97 -82 -165l-82 -71 q-41 -38 -41 -79q0 -14 2 -22q5 -21 14 -31t58 -49q60 -47 82 -68q64 -59 89.5 -107.5t25.5 -111.5l-2 -29q-6 -127 -120 -213q-83 -63 -206 -92q-69 -16 -153 -16q-177 0 -287 64q-117 69 -117 198zM369 307q0 -52 23 -96q31 -60 113 -96.5t188 -36.5q115 0 182 41 q88 53 88 153q0 30 -8 58q-14 59 -94 130q-68 62 -113 62l-47 -2q-163 -4 -250 -63q-52 -35 -72 -93q-10 -29 -10 -57zM461 1147q0 -112 56 -207q49 -83 116 -109q27 -10 61 -10q49 0 91 25t61 65q16 35 16 92q0 62 -22 134t-54 116q-64 88 -155 88h-14q-48 -4 -86.5 -30.5 t-55.5 -65.5q-14 -35 -14 -98zM1217 1078v104h252v252h106v-252h252v-104h-252v-255h-106v255h-252z" />
<glyph unicode="h" horiz-adv-x="2994" d="M205 729q0 23 14 23q53 0 166 -37q214 -68 412 -68q232 0 443 80q45 17 93.5 41t48.5 29h-1h-2q-17 -1 -81 49q-69 54 -122 109q-154 159 -154 289q0 45 17 77l8 4q21 0 60 -20.5t253 -143.5q-35 77 -35 187q0 86 29 86q8 -2 14 -6q116 -84 412 -324l198 162 q107 74 216 74q105 0 211 -72l225 -270q43 -19 160 -60q-172 -58 -213 -82l-474 -663q-83 -79 -271 -142q-153 -51 -253 -51q-382 0 -663 129q-389 178 -586 388q-125 134 -125 212zM2212 1031q0 -35 17.5 -55.5t45.5 -20.5q31 0 52.5 21.5t21.5 52.5t-21.5 53t-52.5 22 q-28 0 -45.5 -20t-17.5 -53z" />
<glyph unicode="i" d="M205 717q0 194 98 361q95 163 257 258q167 98 362 98q194 0 361 -98q162 -95 257 -258q98 -167 98 -361q0 -195 -98 -362q-95 -162 -257 -257q-167 -98 -361 -98q-195 0 -362 98q-162 95 -257 257q-98 167 -98 362zM782 1079q0 -58 38.5 -94.5t98.5 -36.5q63 0 103 36 q39 36 39 92q1 60 -39 96q-38 36 -100 36t-101 -36t-39 -93zM811 270h221v584h-221v-584z" />
<glyph unicode="j" horiz-adv-x="1720" d="M205 717q0 125 93 209q80 72 188 72q131 0 215 -101l323 228q-8 24 -8 59q0 111 83 185q71 65 167 65q110 0 185 -83q65 -71 65 -167q0 -110 -83 -184q-71 -64 -167 -64q-98 0 -170 66l-338 -211q8 -30 8 -74q0 -37 -8 -68l332 -223q71 72 176 72q111 0 185 -82 q65 -70 65 -166q0 -112 -83 -186q-71 -64 -167 -64q-111 0 -185 82q-65 71 -65 168l2 37l-319 246q-83 -97 -213 -97q-124 0 -208 92q-73 81 -73 189z" />
<glyph unicode="k" horiz-adv-x="1874" d="M205 342q0 25 4 55q50 378 499 729q163 129 339 219q113 59 186 79q37 10 82 10q126 0 239 -98q71 -62 99 -121q16 -36 16 -78q0 -78 -37 -115q-34 -33 -176.5 -88t-195.5 -55q-33 0 -39 16q-17 37 -61 96t-60 66h-16q-87 0 -312 -184q-89 -74 -148 -189 q-42 -83 -42 -127v-8l133 -113q0 -42 -48.5 -225t-66.5 -207q-10 -4 -20 -4q-48 0 -116 24.5t-119 60.5q-140 98 -140 257z" />
<glyph unicode="l" horiz-adv-x="1944" d="M205 207v1227h1374v-824h-266v-147h-305v-256h-803zM377 793h72v79h-72v-79zM510 938q0 -65 43 -109t107 -44q59 0 96 30q37 31 43 92h-78q-7 -59 -61 -59q-29 0 -48.5 26.5t-19.5 65.5q0 43 19.5 70t50.5 27q50 0 59 -52h78q0 30 -12 52q-35 63 -125 63q-69 0 -114 -54 q-38 -46 -38 -108zM834 889q0 -47 37.5 -75.5t99.5 -28.5q85 0 123 53q12 21 12 51q0 22 -8 35q-17 25 -51 38q-5 2 -96 25q-13 3 -23 13q-8 10 -8 16q0 29 45 29q53 0 55 -41h78q-4 32 -14 47q-36 49 -115 49q-60 0 -94.5 -25.5t-34.5 -70.5q0 -33 19.5 -49.5t74.5 -30.5 q47 -10 68 -19q22 -9 22 -28q0 -17 -14.5 -28t-36.5 -11q-37 0 -57 28q-6 9 -6 23h-76zM1125 1092l102 -299h90l98 299h-80l-63 -205l-61 205h-86zM1166 164v164h288v164l285 -246l-285 -246v164h-288z" />
<glyph unicode="m" horiz-adv-x="1944" d="M205 207v1227h1374v-824h-266v-147h-305v-256h-803zM391 793h72v79h-72v-79zM533 674h75v149q13 -26 35 -37q20 -10 45 -10q33 0 53 13q23 13 37 36q15 24 21 51q8 27 8 62q0 30 -8 63q-8 31 -23 56q-12 20 -37 37q-21 14 -55 14q-24 0 -45 -12q-19 -11 -35 -37v41h-71 v-426zM604 940q0 14 4 39q4 22 11 31q6 15 20 24q14 8 29 8q17 0 31 -8q9 -5 20 -24q7 -15 10 -33q4 -24 4 -37q0 -12 -4 -37q-3 -20 -10 -32q-9 -17 -19 -23q-13 -8 -30 -8q-18 0 -31 8q-6 4 -20 22q-9 21 -11 33q-4 26 -4 37zM856 944q0 -39 6 -64q9 -34 23 -55 q15 -22 39 -36q20 -13 53 -13q29 0 47 10q19 11 35 37v-41h70v437h-74v-158q-13 22 -35 35q-21 12 -45 12q-29 0 -53 -14q-21 -12 -37 -37q-15 -22 -23 -52q-6 -23 -6 -61zM930 942q0 25 2 37q3 14 12 32q9 16 21 23q15 8 28 8q18 0 31 -8q7 -4 21 -22q8 -21 10 -33t2 -37 q0 -27 -2 -39q-3 -18 -10 -30q-10 -18 -21 -25q-13 -8 -31 -8q-11 0 -28 10q-13 8 -21 23q-4 8 -10 32q-4 17 -4 37zM1166 164v164h288v164l285 -246l-285 -246v164h-288zM1202 1036h45v-256h74v256h51v60h-51v18q0 13 6 27q7 10 23 10l26 -2v64l-39 2q-45 0 -67 -27 q-23 -27 -23 -67v-25h-45v-60z" />
<glyph unicode="n" horiz-adv-x="1944" d="M205 207v1227h1374v-824h-266v-147h-305v-256h-803zM428 793h74v79h-74v-79zM561 793h87l55 91l57 -91h88l-100 157l92 142h-86l-51 -82l-47 82h-90l96 -146zM914 793h71v414h-71v-414zM1049 895q0 -26 10 -45q11 -20 29 -33q16 -11 41 -18q23 -6 47 -6q36 0 55 6 q22 7 39 20q14 11 25 29q8 24 8 36q0 22 -12 41q-10 16 -25 25q-16 10 -53 19l-45 12q-17 4 -29 8q-6 2 -12 10q-2 5 -4 13q0 8 4 16q8 17 41 17q39 0 55 -21q4 -12 4 -23h66q0 23 -10 44q-8 14 -27 28q-12 9 -39 17q-22 6 -45 6q-21 0 -41 -6q-24 -7 -37 -17 q-18 -12 -27 -26q-8 -13 -8 -39q0 -20 6 -35q13 -18 21 -23q32 -21 94 -33q7 -1 29 -8q8 -3 22 -12q6 -9 6 -19q0 -8 -6 -18q-8 -8 -14 -12q-12 -4 -19 -4q-6 -2 -18 -2l-27 4q-9 1 -20 8q-6 4 -15 16q-6 9 -6 25h-63zM1166 164v164h288v164l285 -246l-285 -246v164h-288z " />
<glyph unicode="o" d="M205 717q0 194 98 362q95 162 257 257q168 98 362 98t362 -98q162 -95 257 -257q98 -168 98 -362t-98 -362q-95 -162 -257 -257q-168 -98 -362 -98t-362 98q-162 95 -257 257q-98 168 -98 362zM492 717q0 -191 142 -319q123 -111 288 -111q191 0 319 142q111 123 111 288 q0 191 -142 319q-123 111 -288 111q-191 0 -319 -142q-111 -123 -111 -288z" />
<glyph unicode="p" horiz-adv-x="1864" d="M205 0l102 408l301 -302zM404 502l708 694l299 -301l-706 -692zM1209 1289l112 120q25 25 60 25q31 0 57 -23l197 -190q24 -24 24 -59q0 -36 -24 -58l-125 -114z" />
<glyph unicode="q" d="M205 225v983h1020v-276h-154v122h-712v-675h712v121h154v-275h-1020zM748 637v147h628v147l262 -220l-262 -221v147h-628z" />
<glyph unicode="r" horiz-adv-x="1769" d="M205 172q0 55 29 94l551 594q-25 64 -25 154q0 188 135 324q96 96 234 96q73 0 127 -23q-99 -57 -156 -125v-313h336q55 64 94 145q35 -63 35 -151q0 -119 -82 -211q-127 -150 -428 -150h-37l-524 -579q-58 -27 -121 -27q-86 0 -129 61q-39 56 -39 111zM318 183 q0 -30 20.5 -51t49.5 -21q28 0 48.5 21t20.5 51q0 29 -20 49t-49 20q-30 0 -50 -20t-20 -49z" />
<glyph unicode="s" horiz-adv-x="1948" d="M205 719q0 297 209 506q108 108 247 163q123 48 256 48h5q140 0 264 -49l31 -14v-412q-30 20 -43 26q-126 65 -242 65q-83 0 -170 -42q-73 -38 -121 -120t-48 -169q0 -53 18 -107q18 -64 77 -125q99 -102 259 -102h11q52 0 120 23q76 26 139 69v-411q-63 -32 -146 -50 q-71 -16 -130 -16h-19q-297 0 -508 211q-108 107 -162 251q-47 124 -47 255zM1292 106v1227q308 -251 451 -614q-141 -353 -445 -608z" />
<glyph unicode="t" horiz-adv-x="1475" d="M205 0v1434h1065v-1434h-1065zM361 222q31 -29 71 -29q34 0 55 13.5t21 35.5q0 43 -61 49q-41 5 -41 19q0 16 33 16q25 0 45 -16l22 22q-31 25 -74 25q-27 0 -45 -14t-18 -35q0 -40 67 -49q33 -4 33 -19t-29 -15q-37 0 -57 21zM361 869q0 -145 104 -250 q102 -102 247 -102h16q67 0 130 30v203q-69 -45 -128 -45h-5q-58 0 -104.5 31t-59.5 80q-9 26 -9 53q0 43 23.5 83.5t59.5 57.5q33 24 87 24q56 0 114 -34q20 -13 22 -15v203q-10 4 -16 6q-61 24 -130 25h-5q-139 0 -244 -102q-102 -106 -102 -248zM528 197h35v103 q0 24 25 24q24 0 24 -29v-98h35v98q0 29 25 29q24 0 24 -24v-103h35v107q-1 23 -17.5 38t-39.5 15q-29 0 -43 -21q-18 21 -45 21q-24 0 -40 -15t-18 -38v-107zM754 275q0 -35 23 -58.5t59 -23.5q27 0 43 18v-14h34v78q0 36 -22.5 59t-57.5 23q-33 0 -56 -23.5t-23 -58.5z M787 274q0 20 14 34.5t33 14.5q20 0 33.5 -14.5t13.5 -34.5q0 -49 -47 -49q-19 0 -33 14.5t-14 34.5zM895 566l2 2q154 129 219 301q-69 175 -221 301v-604zM938 197h35v98q0 27 24 27h17v33h-17q-24 0 -40.5 -16.5t-18.5 -40.5v-101zM1032 252q2 -23 18.5 -39t38.5 -16h19 v33h-16q-10 0 -17.5 7.5t-7.5 16.5v68h39v33h-39v31h-35v-134z" />
<glyph unicode="u" horiz-adv-x="1520" d="M205 205v1024q0 97 72 155q63 50 158 50h475v-396h405v-833q0 -97 -72 -155q-63 -50 -157 -50h-651q-109 0 -174 65q-56 56 -56 140zM281 205q0 -59 42 -94t112 -35h651q69 0 111 35t42 94v755h-405v398h-399q-70 0 -112 -35.5t-42 -93.5v-1024zM416 264v66h686v-66h-686 zM416 432v63h686v-63h-686zM416 598v66h686v-66h-686zM416 765v66h686v-66h-686zM416 944v66h291v-66h-291zM985 1106v289l274 -289h-274z" />
<glyph unicode="v" d="M205 717q0 194 98 362q95 162 257 257q168 98 362 98t362 -98q162 -95 257 -257q98 -168 98 -362t-98 -362q-95 -162 -257 -257q-168 -98 -362 -98t-362 98q-162 95 -257 257q-98 168 -98 362zM361 668q18 -217 180 -366q141 -129 330 -146v309h102v-309q217 19 365 182 q128 141 145 330h-307v102h307q-21 216 -183 363q-140 128 -327 145v-305h-102v305q-215 -20 -364 -181q-128 -140 -146 -327h307v-102h-307z" />
<glyph unicode="w" horiz-adv-x="2138" d="M205 0v999h1008v-653h61l107 109h86l106 -105h66v649h295v-999h-1729zM205 1158v186l96 90h543l115 -152h975v-124h-295v65h-428v-65h-1006z" />
<glyph unicode="x" d="M205 213l504 504l-504 504l213 213l504 -504l504 504l213 -213l-504 -504l504 -504l-213 -213l-504 504l-504 -504z" />
<glyph unicode="y" horiz-adv-x="1499" d="M205 637l375 61l164 342l174 -338l377 -49l-269 -270l70 -373l-340 172l-334 -182l59 375zM262 928v506h928v-516l-160 -150l-92 13l-199 387l-186 -393l-96 -15z" />
<glyph unicode="z" horiz-adv-x="1909" d="M205 887l518 76l232 471l231 -471l518 -76l-375 -369l88 -518l-462 246l-463 -246l88 518z" />
<glyph unicode="{" d="M205 717q0 194 98 362q95 162 257 257q168 98 362 98t362 -98q162 -95 257 -257q98 -168 98 -362t-98 -362q-95 -162 -257 -257q-168 -98 -362 -98t-362 98q-162 95 -257 257q-98 168 -98 362zM504 717l295 -293l86 86l-207 207l207 207l-86 86zM885 717l295 -293l86 86 l-207 207l207 207l-86 86z" />
<glyph unicode="|" d="M205 717q0 194 98 362q95 162 257 257q168 98 362 98t362 -98q162 -95 257 -257q98 -168 98 -362t-98 -362q-95 -162 -257 -257q-168 -98 -362 -98t-362 98q-162 95 -257 257q-98 168 -98 362zM619 569l301 -303l90 90l211 213l-88 89l-213 -211l-211 211zM621 865 l90 -89l213 211l211 -211l90 89l-301 303z" />
<glyph unicode="}" d="M205 717q0 194 98 362q95 162 257 257q168 98 362 98t362 -98q162 -95 257 -257q98 -168 98 -362t-98 -362q-95 -162 -257 -257q-168 -98 -362 -98t-362 98q-162 95 -257 257q-98 168 -98 362zM578 510l86 -86l295 293l-295 293l-86 -86l207 -207zM959 510l86 -86 l295 293l-295 293l-86 -86l207 -207z" />
<glyph unicode="~" horiz-adv-x="2546" />
<glyph unicode="&#xab;" horiz-adv-x="2138" d="M205 715l735 715l219 -211l-518 -504l518 -504l-219 -211zM979 719l735 715l220 -211l-519 -504l519 -504l-220 -211z" />
<glyph unicode="&#xad;" horiz-adv-x="1835" d="M205 938q0 208 147 353q144 143 349 143q208 0 352 -148q141 -144 141 -348q0 -146 -76 -264q30 -10 49 -46l19 3q35 0 57 -23l365 -371q22 -22 22 -59q0 -65 -57 -121q-59 -57 -123 -57q-37 0 -59 23l-365 370q-22 22 -22 57v8q-36 15 -51 54q-117 -68 -254 -68 q-207 0 -353 146q-141 144 -141 348zM477 895h441v121h-441v-121z" />
<glyph unicode="&#xbb;" horiz-adv-x="2138" d="M205 215l518 504l-518 504l217 211l737 -715l-153 -147l-584 -568zM979 211l518 504l-518 504l219 211l736 -715l-736 -715z" />
<glyph unicode="&#x2dc;" horiz-adv-x="1724" d="M205 0v1122h858v-1122h-858zM350 281h545v86h-545v-86zM350 490h545v83h-545v-83zM350 696h545v84h-545v-84zM643 1247l29 187l848 -136l-180 -1134l-152 22v1061h-545z" />
<glyph unicode="&#x2000;" horiz-adv-x="718" />
<glyph unicode="&#x2001;" horiz-adv-x="1436" />
<glyph unicode="&#x2002;" horiz-adv-x="718" />
<glyph unicode="&#x2003;" horiz-adv-x="1436" />
<glyph unicode="&#x2004;" horiz-adv-x="478" />
<glyph unicode="&#x2005;" horiz-adv-x="359" />
<glyph unicode="&#x2006;" horiz-adv-x="239" />
<glyph unicode="&#x2007;" horiz-adv-x="239" />
<glyph unicode="&#x2008;" horiz-adv-x="179" />
<glyph unicode="&#x2009;" horiz-adv-x="287" />
<glyph unicode="&#x200a;" horiz-adv-x="79" />
<glyph unicode="&#x2010;" horiz-adv-x="1835" d="M205 938q0 208 147 353q144 143 349 143q208 0 352 -148q141 -144 141 -348q0 -146 -76 -264q30 -10 49 -46l19 3q35 0 57 -23l365 -371q22 -22 22 -59q0 -65 -57 -121q-59 -57 -123 -57q-37 0 -59 23l-365 370q-22 22 -22 57v8q-36 15 -51 54q-117 -68 -254 -68 q-207 0 -353 146q-141 144 -141 348zM477 895h441v121h-441v-121z" />
<glyph unicode="&#x2011;" horiz-adv-x="1835" d="M205 938q0 208 147 353q144 143 349 143q208 0 352 -148q141 -144 141 -348q0 -146 -76 -264q30 -10 49 -46l19 3q35 0 57 -23l365 -371q22 -22 22 -59q0 -65 -57 -121q-59 -57 -123 -57q-37 0 -59 23l-365 370q-22 22 -22 57v8q-36 15 -51 54q-117 -68 -254 -68 q-207 0 -353 146q-141 144 -141 348zM477 895h441v121h-441v-121z" />
<glyph unicode="&#x2012;" horiz-adv-x="1835" d="M205 938q0 208 147 353q144 143 349 143q208 0 352 -148q141 -144 141 -348q0 -146 -76 -264q30 -10 49 -46l19 3q35 0 57 -23l365 -371q22 -22 22 -59q0 -65 -57 -121q-59 -57 -123 -57q-37 0 -59 23l-365 370q-22 22 -22 57v8q-36 15 -51 54q-117 -68 -254 -68 q-207 0 -353 146q-141 144 -141 348zM477 895h441v121h-441v-121z" />
<glyph unicode="&#x2013;" d="M205 717q0 194 98 362q95 162 257 257q168 98 362 98t362 -98q162 -95 257 -257q98 -168 98 -362t-98 -362q-95 -162 -257 -257q-168 -98 -362 -98t-362 98q-162 95 -257 257q-98 168 -98 362zM529 399l122 -38q78 164 78 356q0 193 -78 354l-122 -36q75 -155 75 -318 t-75 -318zM776 322l125 -39q121 202 121 434t-121 434l-125 -39q119 -180 119 -395t-119 -395zM1014 248l129 -39q172 228 172 508t-172 508l-129 -39q174 -204 174 -469t-174 -469z" />
<glyph unicode="&#x2014;" d="M205 516v399h1434v-399h-1434z" />
<glyph unicode="&#x2018;" d="M205 717q0 194 98 362q95 162 257 257q167 98 362 98q193 0 359 -97q162 -94 257 -254q99 -165 101 -358v-16q-2 -193 -101 -358q-95 -160 -257 -254q-166 -97 -359 -97q-195 0 -362 98q-162 95 -257 257q-98 168 -98 362zM385 670l39 -53q16 3 38 3q35 0 62 -12 q69 -30 105 -82q40 -57 45 -114q6 -43 12 -47l664 -6l80 241l16 224l-10 8l-203 176q-51 47 -76 57q-53 23 -129 27q-84 7 -179 7q-31 0 -58 -1q-119 -6 -236 -25l-151 -362zM576 781q0 15 10 36q13 19 64 103q42 58 57 73q29 29 121 31l84 2q62 0 141 -8q55 -6 80 -19 q38 -19 141 -110q14 -15 47 -45q4 -1 4 -45q0 -23 -1 -60q-27 -237 -32 -245q0 -21 -30 -50q-47 -24 -64 -28q-3 -1 -18 -1q-48 0 -172 7q-139 10 -182 18q-74 15 -168 162q-73 108 -80 154q-2 16 -2 25z" />
<glyph unicode="&#x2019;" d="M205 717q0 195 98 362q95 162 257 257q168 98 362 98t362 -98q162 -95 257 -257q98 -167 98 -362q0 -194 -98 -362q-95 -162 -257 -257q-168 -98 -362 -98t-362 98q-162 95 -257 257q-98 168 -98 362zM307 668l45 -68q37 26 88 26q16 0 31 -3q36 -8 52.5 -17t43.5 -36 q46 -46 54 -111q6 -35 8 -43h770l100 197l15 163l-33 23l-168 119q-68 53 -139 78q-61 21 -164 24q-54 6 -153 6q-42 0 -95 -2q-135 -4 -268 -35l-166 -288zM549 781q0 56 29 98q23 34 53 53q13 9 64.5 16.5t99.5 8.5q76 1 82 1q75 0 174 -8q61 -6 90 -16q38 -11 162 -88 q14 -12 90 -72q1 -80 -4 -125q-7 -55 -22 -89l-15 -29q-13 -20 -29 -29q-39 -21 -71 -22q-8 -1 -28 -1q-70 0 -224 5q-161 5 -207 16q-79 19 -137 90q-28 31 -54 80l-34 53q-19 34 -19 58z" />
<glyph unicode="&#x201c;" d="M205 717q0 239 143 430q127 171 328 244q120 43 246 43q238 0 430 -143q170 -127 244 -328q43 -120 43 -246q0 -239 -143 -430q-127 -171 -328 -244q-123 -43 -248 -43q-238 0 -429 144q-169 127 -243 327q-43 120 -43 246zM410 619l57 -156l277 100l-58 158zM754 746 l57 -158l279 100l-58 158zM1100 871l57 -158l277 100l-58 158z" />
<glyph unicode="&#x201d;" d="M205 717q0 194 98 362q95 162 257 257q168 98 362 98t362 -98q162 -95 257 -257q98 -168 98 -362t-98 -362q-95 -162 -257 -257q-168 -98 -362 -98t-362 98q-162 95 -257 257q-98 168 -98 362zM545 731q0 -217 129 -407q56 -82 164 -82q107 0 230 73q120 71 199 178 q85 116 85 226q0 114 -89 229q-80 105 -204 175q-124 69 -229 69q-104 0 -156 -69q-129 -177 -129 -392zM772 713l80 79v-59h232v-41h-232v-59zM815 461l29 108l29 -51l200 115l21 -35l-201 -115l31 -51zM817 967l109 28l-31 -51l201 -115l-21 -34l-198 114l-31 -51z" />
<glyph unicode="&#x201e;" horiz-adv-x="1706" />
<glyph unicode="&#x202f;" horiz-adv-x="287" />
<glyph unicode="&#x205f;" horiz-adv-x="359" />
<glyph unicode="&#x20ac;" horiz-adv-x="2599" />
<glyph unicode="&#x25fc;" horiz-adv-x="1435" d="M0 0v1435h1435v-1435h-1435z" />
</font>
</defs>
</svg>
