<?xml version="1.0" standalone="no"?>
<!DOCTYPE svg PUBLIC "-//W3C//DTD SVG 1.1//EN" "http://www.w3.org/Graphics/SVG/1.1/DTD/svg11.dtd" >
<svg xmlns="http://www.w3.org/2000/svg">
<metadata></metadata>
<defs>
<font id="for_smartbold" horiz-adv-x="975" >
<font-face units-per-em="2048" ascent="1638" descent="-410" />
<missing-glyph horiz-adv-x="487" />
<glyph horiz-adv-x="0" />
<glyph horiz-adv-x="682" />
<glyph unicode=" "  horiz-adv-x="487" />
<glyph unicode="&#x09;" horiz-adv-x="487" />
<glyph unicode="&#xa0;" horiz-adv-x="487" />
<glyph unicode="!" horiz-adv-x="557" d="M143 0v268h266v-268h-266zM147 1151h264l-39 -723h-186z" />
<glyph unicode="&#x22;" horiz-adv-x="924" d="M104 1286h287l-29 -541h-227zM532 1286h287l-31 -541h-227z" />
<glyph unicode="#" horiz-adv-x="991" d="M31 326v182h156l28 248h-184v182h205l43 348h201l-41 -348h166l43 348h200l-41 -348h154v-182h-176l-29 -248h205v-182h-225l-43 -351h-201l41 351h-166l-43 -351h-201l41 351h-133zM387 508h168l29 248h-168z" />
<glyph unicode="$" horiz-adv-x="1012" d="M63 852q0 144 104 234q93 80 242 90v176h182v-199q76 -27 123 -70l23 68h176v-362h-211q-4 54 -37 104q-56 86 -172 86q-163 0 -163 -125q0 -68 51 -106.5t200 -82.5q190 -56 262 -114q105 -86 105 -240q0 -175 -119 -264q-94 -72 -238 -72v-190h-182v217q-84 27 -121 74 l-20 -76h-185v348h211q12 -49 52 -96q69 -78 186 -78q149 0 149 121q0 58 -46 90.5t-182 71.5q-198 57 -276 122q-114 96 -114 273z" />
<glyph unicode="%" horiz-adv-x="1350" d="M61 909q0 123 88 206q79 73 189 73q124 0 204 -94q68 -79 68 -185q0 -123 -86 -205q-77 -73 -186 -73q-127 0 -208 94q-69 79 -69 184zM225 910q0 -56 31 -90.5t81 -34.5q49 0 79 34.5t30 90.5q0 55 -30 88.5t-79 33.5q-50 0 -81 -33.5t-31 -88.5zM262 0l663 1151h162 l-666 -1151h-159zM739 254q0 122 89 205q79 73 188 73q124 0 204 -94q68 -79 68 -184q0 -124 -86 -206q-77 -73 -186 -73q-127 0 -208 94q-69 79 -69 185zM905 254q0 -55 30.5 -89t80.5 -34q48 0 78 33.5t30 89.5q0 55 -30 89.5t-78 34.5q-49 0 -80 -34.5t-31 -89.5z" />
<glyph unicode="&#x26;" horiz-adv-x="1157" d="M63 313q0 106 55 183t184 151q-74 93 -103.5 152.5t-29.5 114.5q0 115 78 185q87 79 258 79q178 0 264 -94q62 -69 62 -170q0 -173 -217 -320l129 -170q39 113 47 219h301v-182h-117q-34 -149 -82 -238l170 -223h-252l-57 70q-125 -95 -309 -95q-162 0 -267 81 q-114 90 -114 257zM309 313q0 -60 51 -102.5t123 -42.5q85 0 145 64l-199 256q-120 -81 -120 -175zM402 914q0 -29 15 -55t74 -101q111 79 111 156q0 39 -27.5 64.5t-69.5 25.5q-47 0 -75 -24.5t-28 -65.5z" />
<glyph unicode="'" horiz-adv-x="496" d="M104 1286h287l-29 -541h-227z" />
<glyph unicode="(" horiz-adv-x="627" d="M106 393q0 247 90 547q38 128 74 211h260q-81 -164 -133.5 -377.5t-52.5 -380.5q0 -252 101 -551q43 -127 83 -209h-246q-77 168 -126.5 382t-49.5 378z" />
<glyph unicode=")" horiz-adv-x="627" d="M96 1151h260q72 -167 118 -380.5t46 -377.5q0 -247 -97 -549q-41 -127 -79 -211h-246q80 165 132 379t52 381q0 252 -102 550q-44 126 -84 208z" />
<glyph unicode="*" horiz-adv-x="866" d="M62 1152l49 147l246 -78v252h158v-252l248 78l43 -147l-244 -74l156 -209l-140 -96l-145 206l-142 -206l-135 96l152 209z" />
<glyph unicode="+" horiz-adv-x="973" d="M133 485v174h254v256h197v-256h256v-174h-256v-256h-197v256h-254z" />
<glyph unicode="," horiz-adv-x="590" d="M10 -332l166 541h293l-232 -541h-227z" />
<glyph unicode="-" horiz-adv-x="1053" d="M164 463v182h725v-182h-725z" />
<glyph unicode="." horiz-adv-x="553" d="M143 0v258h266v-258h-266z" />
<glyph unicode="/" horiz-adv-x="768" d="M-20 -264l520 1442h207l-526 -1442h-201z" />
<glyph unicode="0" d="M72 557q0 295 109 459q107 162 306 162q225 0 332 -208q82 -159 82 -413q0 -288 -108 -437q-106 -145 -306 -145q-228 0 -333 186q-82 146 -82 396zM310 557q0 -194 39 -287q43 -102 138 -102q92 0 134 93t42 296q0 428 -176 428q-177 0 -177 -428z" />
<glyph unicode="1" d="M127 1022l362 129h145v-969h200v-182h-641v182h198v723l-198 -65z" />
<glyph unicode="2" d="M80 813v223q53 62 148.5 102t191.5 40q169 0 281 -88q118 -92 118 -254q0 -197 -221 -408l-254 -246h323v158h199v-340h-776v170l365 408q79 88 110 144.5t31 112.5q0 67 -49 108.5t-127 41.5q-90 0 -141 -47v-125h-199z" />
<glyph unicode="3" d="M86 94l129 156q35 -36 91.5 -59t109.5 -23q104 0 155 61q38 44 38 105q0 80 -51.5 117.5t-162.5 37.5h-55v183h55q92 0 141 49q40 40 40 102q0 75 -46 118.5t-124 43.5q-49 0 -100 -23.5t-83 -60.5l-133 152q143 125 346 125q183 0 282 -112q77 -88 77 -210 q0 -94 -41 -167t-109 -101q191 -75 191 -269q0 -182 -132 -274q-101 -70 -251 -70q-233 0 -367 119z" />
<glyph unicode="4" d="M63 309v168l412 674h270v-666h154v-176h-154v-127h104v-182h-432v182h111v127h-465zM284 485h244v416z" />
<glyph unicode="5" d="M111 94l129 156q30 -36 88 -59t117 -23q90 0 142 63q47 57 47 146q0 196 -207 196q-88 0 -191 -67l-102 100l94 545h551v-182h-383l-39 -225q72 32 153 32q164 0 258 -111q89 -105 89 -284q0 -190 -119 -303q-109 -103 -287 -103q-98 0 -194 33.5t-146 85.5z" />
<glyph unicode="6" d="M90 549q0 391 211 546q113 83 254 83q72 0 152.5 -22.5t132.5 -57.5l-91 -164q-75 51 -184 51q-237 0 -237 -311q78 88 233 88q165 0 255 -113q81 -101 81 -272q0 -223 -152 -330q-101 -72 -231 -72q-211 0 -321 156q-103 147 -103 418zM326 457q0 -287 190 -287 q72 0 114 56t42 151q0 82 -45 137q-44 55 -117 55q-57 0 -109 -31.5t-75 -80.5z" />
<glyph unicode="7" d="M119 805v346h752v-182l-393 -969h-232l396 969h-312v-164h-211z" />
<glyph unicode="8" d="M86 317q0 209 199 297q-71 29 -113.5 95.5t-42.5 148.5q0 183 141 266q92 54 215 54q153 0 245 -66q114 -82 114 -254q0 -82 -42.5 -147.5t-115.5 -96.5q99 -35 154 -127q47 -78 47 -170q0 -177 -150 -272q-110 -70 -252 -70q-166 0 -281 92q-118 94 -118 250zM317 332 q0 -79 58 -126q47 -38 110 -38q73 0 124 49q47 47 47 115q0 79 -59 127q-48 39 -112 39q-73 0 -122 -51q-46 -46 -46 -115zM346 858q0 -66 37.5 -104.5t101.5 -38.5q62 0 102 40.5t40 102.5q0 64 -40 106t-102 42q-61 0 -100 -41.5t-39 -106.5z" />
<glyph unicode="9" d="M78 776q0 224 152 331q101 71 231 71q201 0 308 -138q114 -145 114 -436q0 -403 -209 -552q-108 -77 -256 -77q-94 0 -187 33.5t-143 85.5l129 156q32 -36 89.5 -59t115.5 -23q223 0 223 311q-80 -90 -231 -90q-161 0 -253 114q-83 104 -83 273zM301 776q0 -84 46 -139 q45 -53 118 -53q57 0 109 32t73 80q0 162 -64 234q-47 53 -124 53t-117.5 -53.5t-40.5 -153.5z" />
<glyph unicode=":" horiz-adv-x="635" d="M184 0v258h266v-258h-266zM184 643v256h266v-256h-266z" />
<glyph unicode=";" horiz-adv-x="676" d="M31 -332l166 541h295l-234 -541h-227zM211 643v256h266v-256h-266z" />
<glyph unicode="&#x3c;" horiz-adv-x="860" d="M43 567l580 480l133 -160l-383 -320l383 -319l-133 -160z" />
<glyph unicode="=" horiz-adv-x="973" d="M133 297v182h707v-182h-707zM133 674v182h707v-182h-707z" />
<glyph unicode="&#x3e;" horiz-adv-x="860" d="M104 248l383 319l-383 320l133 160l580 -480l-580 -479z" />
<glyph unicode="?" horiz-adv-x="1006" d="M102 815v281q66 33 180.5 57.5t202.5 24.5q175 0 286 -87q109 -85 109 -231q0 -85 -36.5 -140t-135.5 -120q-78 -51 -104.5 -86t-26.5 -86v-37h-244v37q0 97 36 155.5t132 118.5q71 44 95 76t24 82q0 111 -162 111q-71 0 -131 -29v-127h-225zM323 0v268h264v-268h-264z " />
<glyph unicode="@" horiz-adv-x="1335" d="M66 575q0 166 81 306q80 136 216 215q140 82 305 82q280 0 447 -152q155 -141 155 -369q0 -205 -134 -313q-97 -78 -222 -78q-65 0 -111 23t-59 61q-67 -84 -191 -84q-98 0 -155 61q-56 60 -56 166q0 207 121 324q87 84 187 84q125 0 168 -98l16 63h143l-104 -362 q-14 -40 -14 -66q0 -53 66 -53q88 0 145 82q53 76 53 191q0 195 -144 299q-120 86 -311 86q-211 0 -345 -158q-112 -132 -112 -310q0 -206 144 -343q129 -122 313 -122q81 0 159.5 24.5t119.5 61.5l77 -106q-57 -50 -157.5 -82.5t-198.5 -32.5q-165 0 -305 81 q-136 79 -216 214q-81 140 -81 305zM492 493q0 -108 90 -108q101 0 139 135l27 90q12 37 12 70q0 102 -92 102q-79 0 -131 -96q-45 -82 -45 -193z" />
<glyph unicode="A" horiz-adv-x="1167" d="M31 0v193h84l301 765h-133v193h418l352 -958h84v-193h-416v193h104l-59 165h-364l-62 -165h107v-193h-416zM467 528h234l-117 326z" />
<glyph unicode="B" horiz-adv-x="1094" d="M84 0v193h104v765h-104v193h499q153 0 260 -74q121 -84 121 -240q0 -91 -39.5 -156.5t-105.5 -84.5q104 -28 160 -102q51 -68 51 -168q0 -168 -142 -257q-111 -69 -276 -69h-528zM438 193h164q97 0 145 53q35 39 35 94q0 68 -49 108.5t-131 40.5h-164v-296zM438 684h121 q155 0 155 137t-157 137h-119v-274z" />
<glyph unicode="C" horiz-adv-x="1010" d="M63 572q0 284 151 456q132 150 328 150q65 0 126.5 -26t97.5 -68l20 67h162v-362h-193q-28 182 -184 182q-240 0 -240 -406q0 -202 83 -302q67 -81 177 -81q58 0 114.5 30.5t86.5 78.5l152 -152q-49 -71 -153.5 -117.5t-217.5 -46.5q-251 0 -391 188q-119 160 -119 409z " />
<glyph unicode="D" horiz-adv-x="1137" d="M84 0v193h104v765h-104v193h461q267 0 412 -196q114 -155 114 -373q0 -258 -149 -423q-144 -159 -377 -159h-461zM438 193h96q269 0 269 389q0 210 -99 308q-69 68 -170 68h-96v-765z" />
<glyph unicode="E" horiz-adv-x="1038" d="M84 0v193h104v765h-104v193h891v-342h-225v149h-312v-272h215v-193h-215v-300h312v167h225v-360h-891z" />
<glyph unicode="F" horiz-adv-x="1016" d="M84 0v193h104v765h-104v193h891v-342h-225v149h-312v-301h281v-193h-281v-271h205v-193h-559z" />
<glyph unicode="G" horiz-adv-x="1147" d="M63 576q0 341 200 499q131 103 302 103q77 0 150.5 -26.5t110.5 -67.5l19 67h162v-362h-193q-9 64 -55 115q-60 65 -160 65q-121 0 -190 -95q-74 -101 -74 -298q0 -394 283 -394q86 0 147 39v209h-147v193h465v-193h-76v-315q-72 -61 -189.5 -100.5t-226.5 -39.5 q-204 0 -344 118q-184 155 -184 483z" />
<glyph unicode="H" horiz-adv-x="1251" d="M84 0v193h104v765h-104v193h461v-193h-107v-282h375v282h-106v193h460v-193h-106v-765h106v-193h-460v193h106v290h-375v-290h107v-193h-461z" />
<glyph unicode="I" horiz-adv-x="707" d="M82 0v193h147v765h-147v193h543v-193h-146v-765h146v-193h-543z" />
<glyph unicode="J" horiz-adv-x="1006" d="M82 94v312h225v-187q46 -37 131 -37q131 0 131 177v599h-186v193h543v-193h-107v-599q0 -205 -117 -303q-98 -81 -268 -81q-174 0 -352 119z" />
<glyph unicode="K" horiz-adv-x="1139" d="M84 0v193h104v765h-104v193h436v-193h-86v-293l302 293h-74v193h446v-193h-94l-323 -307l298 -458h119v-193h-278l-314 490l-82 -80v-217h86v-193h-436z" />
<glyph unicode="L" horiz-adv-x="1016" d="M84 0v193h104v765h-104v193h461v-193h-107v-765h312v243h223v-436h-889z" />
<glyph unicode="M" horiz-adv-x="1497" d="M84 0v193h104v765h-104v193h465l198 -463l199 463h467v-193h-106v-765h106v-193h-455v193h105v706l-234 -514h-161l-236 518v-710h107v-193h-455z" />
<glyph unicode="N" horiz-adv-x="1311" d="M84 0v193h104v765h-104v193h469l363 -917v724h-87v193h420v-193h-106v-958h-351l-375 917v-724h87v-193h-420z" />
<glyph unicode="O" horiz-adv-x="1165" d="M63 582q0 270 145 436q140 160 375 160q268 0 408 -204q110 -159 110 -392q0 -273 -144 -443q-139 -164 -374 -164q-267 0 -409 210q-111 163 -111 397zM335 582q0 -195 65 -299q64 -101 183 -101q135 0 199 130q49 102 49 270q0 192 -65 292q-64 97 -183 97 q-136 0 -199 -124q-49 -98 -49 -265z" />
<glyph unicode="P" horiz-adv-x="1079" d="M82 0v193h106v765h-106v193h483q453 0 453 -358q0 -367 -453 -367h-127v-233h105v-193h-461zM438 619h127q199 0 199 174q0 165 -199 165h-127v-339z" />
<glyph unicode="Q" horiz-adv-x="1210" d="M66 582q0 269 142 435q138 161 372 161q269 0 410 -201q112 -159 112 -395q0 -244 -108 -389h186v-193h-576q-284 0 -425 190q-113 151 -113 392zM338 582q0 -196 62 -298q61 -101 180 -101q252 0 252 395q0 194 -66 295q-64 98 -186 98t-187 -124q-55 -104 -55 -265z " />
<glyph unicode="R" horiz-adv-x="1108" d="M84 0v193h104v765h-104v193h473q456 0 456 -347q0 -117 -60 -197q-57 -76 -160 -107l167 -307h125v-193h-286l-242 461q-20 -2 -61 -2h-64v-266h107v-193h-455zM432 651h127q103 0 150.5 37.5t47.5 118.5q0 76 -43 111q-48 40 -157 40h-125v-307z" />
<glyph unicode="S" horiz-adv-x="1012" d="M63 853q0 154 117 243q104 80 270 80q70 0 144.5 -26t119.5 -66l23 67h176v-362h-211q-4 54 -37 105q-56 86 -172 86q-164 0 -164 -125q0 -69 51 -107.5t201 -82.5q190 -56 261 -114q106 -86 106 -240q0 -180 -125 -268q-97 -68 -250 -68q-88 0 -168 28.5t-117 72.5 l-21 -76h-184v348h211q12 -49 53 -96q69 -78 185 -78q71 0 110.5 32t39.5 89q0 58 -46 90.5t-182 71.5q-199 57 -277 122q-114 97 -114 274z" />
<glyph unicode="T" horiz-adv-x="1118" d="M41 672l39 479h956l39 -479l-201 -13l-21 299h-171v-765h145v-193h-538v193h143v765h-170l-18 -299z" />
<glyph unicode="U" horiz-adv-x="1210" d="M63 958v193h461v-193h-107v-565q0 -211 185 -211q190 0 190 211v565h-106v193h460v-193h-104v-565q0 -203 -118 -313q-114 -105 -322 -105q-237 0 -348 135q-87 106 -87 283v565h-104z" />
<glyph unicode="V" horiz-adv-x="1149" d="M33 958v193h428v-193h-90l205 -743l202 743h-90v193h430v-193h-102l-293 -958h-297l-293 958h-100z" />
<glyph unicode="W" horiz-adv-x="1534" d="M33 958v193h440v-193h-111l125 -751l158 686h244l160 -688l123 753h-111v193h442v-193h-90l-201 -958h-292l-152 588l-154 -588h-293l-200 958h-88z" />
<glyph unicode="X" horiz-adv-x="1096" d="M33 0v193h86l260 380l-260 385h-86v193h442v-193h-76l148 -247l162 247h-88v193h442v-193h-86l-266 -364l266 -401h86v-193h-442v193h88l-162 258l-160 -258h88v-193h-442z" />
<glyph unicode="Y" horiz-adv-x="1102" d="M33 958v193h426v-193h-78l170 -329l182 329h-77v193h415v-193h-86l-309 -540v-225h158v-193h-565v193h157v223l-309 542h-84z" />
<glyph unicode="Z" horiz-adv-x="940" d="M61 0v164l516 794h-281v-149h-223v342h803v-164l-514 -794h291v167h225v-360h-817z" />
<glyph unicode="[" horiz-adv-x="582" d="M135 -367v1518h385v-182h-160v-1154h160v-182h-385z" />
<glyph unicode="\" horiz-adv-x="768" d="M61 1178h207l520 -1442h-201z" />
<glyph unicode="]" horiz-adv-x="582" d="M61 -185h160v1154h-160v182h385v-1518h-385v182z" />
<glyph unicode="^" horiz-adv-x="991" d="M61 885l434 487l434 -487l-172 -142l-262 306q-47 -54 -264 -306z" />
<glyph unicode="_" horiz-adv-x="1403" d="M164 -209h1075v-182h-1075v182z" />
<glyph unicode="`" horiz-adv-x="612" d="M25 1397h256l229 -307h-213z" />
<glyph unicode="a" horiz-adv-x="993" d="M63 284q0 156 127 230q87 51 202 51h197v45q0 71 -47 102.5t-152 31.5q-120 0 -217 -48l-55 176q158 54 289 54q426 0 426 -359v-385h107v-182h-310l-18 69q-45 -42 -112 -68t-134 -26q-156 0 -234 91q-69 79 -69 218zM294 268q0 -49 32.5 -78t88.5 -29q84 0 174 70v162 h-119q-176 0 -176 -125z" />
<glyph unicode="b" horiz-adv-x="1100" d="M53 1261l355 25v-492q91 132 254 132q166 0 265 -110q110 -122 110 -360q0 -268 -138 -394q-97 -87 -237 -87q-74 0 -146 33t-110 84l-21 -92h-326v182h107v903l-101 -6zM402 456q0 -154 68 -231q52 -58 129 -58q87 0 141 77q53 77 53 212q0 151 -68 223q-50 54 -126 54 q-91 0 -143 -71q-54 -73 -54 -206z" />
<glyph unicode="c" horiz-adv-x="926" d="M63 450q0 212 120 348q112 128 287 128q66 0 123.5 -19t81.5 -49l17 41h147v-328h-174q-20 162 -166 162q-100 0 -150 -85q-42 -73 -42 -198q0 -140 67 -218q56 -65 144 -65q50 0 104.5 29.5t89.5 75.5l150 -129q-68 -78 -134 -114q-99 -54 -237 -54q-189 0 -311 137 q-117 130 -117 338z" />
<glyph unicode="d" horiz-adv-x="1094" d="M63 450q0 258 141 385q100 91 234 91q78 0 145 -35t109 -97v291l-195 -12l-10 182l449 31v-1104h107v-182h-331l-20 108q-79 -133 -254 -133q-159 0 -263 119q-112 128 -112 356zM307 450q0 -148 65 -224q51 -59 129 -59q94 0 147 78q52 75 52 205q0 146 -66 222 q-53 61 -133 61q-91 0 -144 -79q-50 -75 -50 -204z" />
<glyph unicode="e" d="M63 461q0 201 106 328q114 137 326 137q416 0 416 -530v-27h-592q3 -121 95 -171q54 -30 126 -30q56 0 114 29.5t93 75.5l152 -134q-49 -71 -154 -117.5t-219 -46.5q-258 0 -379 180q-84 126 -84 306zM319 545h340q0 189 -164 189q-176 0 -176 -189z" />
<glyph unicode="f" horiz-adv-x="674" d="M74 0v182h104v535h-104v182h104v92q0 295 336 295q78 0 191 -23l-27 -172q-97 13 -168 13q-88 0 -88 -97v-108h203v-182h-203v-535h201v-182h-549z" />
<glyph unicode="g" horiz-adv-x="1065" d="M63 461q0 261 143 383q96 82 221 82q160 0 264 -125v98h330v-182h-104v-697q0 -387 -502 -387h-217v182h221q130 0 192 56.5t62 175.5v59q-32 -49 -97.5 -77.5t-148.5 -28.5q-149 0 -250 108q-114 123 -114 353zM307 461q0 -138 63 -204q51 -52 137 -52q193 0 193 256 q0 143 -58 213q-49 60 -135 60q-98 0 -151 -77q-49 -71 -49 -196z" />
<glyph unicode="h" horiz-adv-x="1126" d="M53 1259l365 27v-459q98 99 245 99q162 0 232 -92q73 -96 73 -312v-340h105v-182h-434v182h85v340q0 106 -20 144q-28 53 -106 53q-96 0 -180 -68v-469h86v-182h-435v182h105v903l-105 -8z" />
<glyph unicode="i" horiz-adv-x="586" d="M74 0v182h106v535h-106v182h350v-717h109v-182h-459zM170 1089v238h246v-238h-246z" />
<glyph unicode="j" horiz-adv-x="598" d="M-113 -185h138q181 0 181 234v668h-167v182h411v-828q0 -245 -119 -351q-96 -87 -278 -87h-166v182zM206 1089v238h246v-238h-246z" />
<glyph unicode="k" horiz-adv-x="1016" d="M53 1261l355 25v-772l216 203h-57v182h395v-182h-72l-239 -217l221 -318h92v-182h-231l-237 360l-88 -78v-282h-349v182h105v903l-99 -6z" />
<glyph unicode="l" horiz-adv-x="598" d="M35 1259l398 27v-1104h130v-182h-508v182h134v903l-144 -8z" />
<glyph unicode="m" horiz-adv-x="1532" d="M74 0v182h104v535h-104v182h325l13 -78q104 105 256 105q118 0 181 -99q117 99 263 99q139 0 217 -92q64 -76 64 -191v-461h86v-182h-330v567q0 93 -16 125q-21 42 -80 42q-63 0 -149 -64q6 -59 6 -80v-408h86v-182h-330v590q0 82 -21 112q-22 32 -77 32q-64 0 -146 -64 v-488h86v-182h-434z" />
<glyph unicode="n" horiz-adv-x="1130" d="M74 0v182h104v535h-104v182h309l21 -88q114 115 264 115q161 0 232 -92q73 -96 73 -312v-340h105v-182h-435v182h86v340q0 106 -20 144q-28 53 -107 53q-76 0 -180 -68v-469h86v-182h-434z" />
<glyph unicode="o" horiz-adv-x="983" d="M63 451q0 226 138 360q117 115 290 115q200 0 321 -148q107 -131 107 -327q0 -228 -137 -362q-118 -114 -291 -114q-200 0 -321 147q-107 130 -107 329zM307 451q0 -284 184 -284t184 284q0 155 -61 227q-46 56 -123 56q-90 0 -138 -74q-46 -73 -46 -209z" />
<glyph unicode="p" horiz-adv-x="1112" d="M72 -185h106v902h-106v182h350v-104q88 131 254 131t266 -110q109 -122 109 -359q0 -271 -137 -395q-96 -87 -236 -87q-169 0 -256 129v-289h105v-182h-455v182zM414 457q0 -153 68 -230q52 -59 129 -59q88 0 142 77q54 78 54 212q0 152 -69 224q-51 53 -127 53 q-91 0 -143 -71q-54 -73 -54 -206z" />
<glyph unicode="q" horiz-adv-x="1114" d="M63 451q0 257 141 385q100 90 234 90q167 0 253 -131v104h351v-182h-107v-902h107v-182h-455v182h104v294q-75 -134 -253 -134q-159 0 -263 120q-112 127 -112 356zM307 451q0 -147 64 -223q52 -60 130 -60q93 0 147 78q51 75 51 205q0 149 -66 224q-51 59 -132 59 q-90 0 -143 -78q-51 -75 -51 -205z" />
<glyph unicode="r" horiz-adv-x="797" d="M74 0v182h104v535h-104v182h313l21 -82q59 59 111.5 84t119.5 25q80 0 127 -29l-65 -198q-54 25 -101 25q-49 0 -99 -30.5t-79 -76.5v-435h211v-182h-559z" />
<glyph unicode="s" horiz-adv-x="885" d="M66 0v268h162q24 -46 88 -75.5t139 -29.5q123 0 123 80q0 47 -29 64t-145 39q-168 31 -238 83q-98 72 -98 216q0 123 72 197q81 84 244 84q68 0 133 -21t96 -53l19 47h143v-266h-164q-10 46 -64.5 75.5t-129.5 29.5q-119 0 -119 -78q0 -46 32 -63.5t165 -41.5 q166 -30 233 -79q92 -67 92 -202q0 -167 -117 -244q-84 -55 -217 -55q-65 0 -138 24t-120 60l-19 -59h-143z" />
<glyph unicode="t" horiz-adv-x="750" d="M127 289v862h242v-252h266v-182h-266v-401q0 -71 22.5 -102.5t73.5 -31.5q107 0 178 37l47 -180q-141 -64 -270 -64q-293 0 -293 314z" />
<glyph unicode="u" horiz-adv-x="1110" d="M51 717v182h348v-537q0 -102 20 -141q28 -54 107 -54q43 0 93.5 20t86.5 50v480h-106v182h350v-717h107v-182h-312l-18 90q-115 -115 -262 -115q-163 0 -235 93q-73 95 -73 309v340h-106z" />
<glyph unicode="v" horiz-adv-x="1049" d="M51 717v182h391v-182h-90l172 -512l172 512h-90v182h391v-182h-80l-260 -717h-266l-260 717h-80z" />
<glyph unicode="w" horiz-adv-x="1380" d="M51 717v182h387v-182h-90l90 -514l143 512h218l143 -512l90 514h-90v182h387v-182h-80l-160 -717h-280l-119 428l-119 -428h-280l-160 717h-80z" />
<glyph unicode="x" horiz-adv-x="995" d="M70 0v182h68l201 269l-201 266h-66v182h365v-182h-60l121 -176l120 176h-59v182h365v-182h-68l-199 -260l201 -275h66v-182h-367v182h61l-120 195l-123 -195h62v-182h-367z" />
<glyph unicode="y" horiz-adv-x="1096" d="M51 717v182h397v-182h-90l194 -418l201 418h-90v182h381v-182h-66l-438 -902h115v-182h-493v182h157l115 242l-317 660h-66z" />
<glyph unicode="z" horiz-adv-x="883" d="M76 0v153l463 564h-275v-127h-188v309h731v-151l-461 -566h273v129h188v-311h-731z" />
<glyph unicode="{" horiz-adv-x="657" d="M23 293v196q119 4 157 43t38 158v152q0 179 137 259q86 50 198 50h45v-193h-31q-144 0 -144 -178v-168q0 -174 -117 -221q117 -49 117 -221v-168q0 -89 37.5 -137.5t106.5 -48.5h31v-183h-53q-131 0 -221 70q-106 82 -106 240v153q0 115 -32 151q-41 46 -163 46z" />
<glyph unicode="|" horiz-adv-x="549" d="M164 -256v1434h221v-1434h-221z" />
<glyph unicode="}" horiz-adv-x="657" d="M59 -184h31q69 0 107 48.5t38 137.5v168q0 172 117 221q-117 47 -117 221v168q0 178 -145 178h-31v193h45q134 0 226 -68q110 -82 110 -241v-152q0 -114 32 -151q40 -46 162 -50v-196q-118 0 -156 -38.5t-38 -158.5v-153q0 -178 -133 -258q-85 -52 -195 -52h-53v183z" />
<glyph unicode="~" horiz-adv-x="995" d="M25 557q16 51 64 98q83 80 215 80q48 0 89.5 -15t107.5 -56q96 -60 155 -60q40 0 80.5 28.5t62.5 72.5l154 -97q-47 -77 -126.5 -126.5t-156.5 -49.5q-52 0 -93 14.5t-104 54.5q-96 62 -169 62q-49 0 -88 -28t-52 -72z" />
<glyph unicode="&#xa2;" horiz-adv-x="926" d="M63 450q0 180 89 309q82 120 218 154v238h203v-236q72 -18 102 -57l17 41h147v-328h-174q-19 162 -166 162q-100 0 -150 -85q-42 -73 -42 -198q0 -140 67 -217q57 -65 144 -65q50 0 104.5 29.5t89.5 74.5l150 -129q-47 -65 -127 -109.5t-162 -51.5v-232h-203v244 q-145 40 -228 166q-79 120 -79 290z" />
<glyph unicode="&#xa3;" horiz-adv-x="991" d="M53 0v182h104v345h-104v182h104v104q0 197 146 285q102 61 260 61h94v-182h-55q-113 0 -157 -35.5t-44 -128.5v-104h256v-182h-256v-345h314v183h223v-365h-885z" />
<glyph unicode="&#xa5;" horiz-adv-x="1102" d="M33 958v193h426v-193h-78l170 -329l182 329h-77v193h415v-193h-86l-157 -272h77v-123h-147l-59 -104h204v-123h-227v-143h158v-193h-565v193h157v143h-229v123h205l-60 104h-143v123h74l-156 272h-84z" />
<glyph unicode="&#xa8;" horiz-adv-x="958" d="M143 1089v238h246v-238h-246zM569 1089v238h246v-238h-246z" />
<glyph unicode="&#xa9;" horiz-adv-x="1368" d="M82 575q0 166 81 306q80 136 216 215q140 82 305 82t306 -82q136 -79 216 -215q82 -140 82 -306q0 -165 -82 -305q-80 -135 -216 -214q-141 -81 -306 -81t-305 81q-136 79 -216 214q-81 140 -81 305zM227 575q0 -205 144 -343q129 -122 313 -122q210 0 344 156 q113 132 113 309q0 207 -145 345q-129 123 -312 123q-211 0 -345 -157q-112 -131 -112 -311zM368 576q0 158 94 247q75 70 179 70q94 0 143 -57v53h125v-231h-119q-8 44 -42 72t-78 28q-150 0 -150 -182q0 -101 63 -152q46 -37 107 -37q90 0 153 54l58 -115q-34 -32 -98 -53 t-130 -21q-125 0 -217 95q-88 91 -88 229z" />
<glyph unicode="&#xab;" horiz-adv-x="1198" d="M72 477l430 377l113 -129l-281 -248l281 -239l-117 -136zM543 477l430 377l115 -129l-283 -248l283 -239l-119 -136z" />
<glyph unicode="&#xad;" horiz-adv-x="1053" d="M164 463v182h725v-182h-725z" />
<glyph unicode="&#xae;" horiz-adv-x="1368" d="M82 575q0 166 81 306q80 136 216 215q140 82 305 82t306 -82q136 -79 216 -215q82 -140 82 -306q0 -165 -82 -305q-80 -135 -216 -214q-141 -81 -306 -81t-305 81q-136 79 -216 214q-81 140 -81 305zM227 575q0 -205 144 -343q129 -122 313 -122q210 0 344 156 q113 132 113 309q0 207 -145 345q-129 123 -312 123q-211 0 -345 -157q-112 -131 -112 -311zM430 268v119h58v393h-58v119h209q285 0 285 -203q0 -121 -103 -170l70 -139h80v-119h-186l-101 223h-51v-223h-203zM633 612h47q92 0 92 84t-92 84h-47v-168z" />
<glyph unicode="&#xb4;" horiz-adv-x="612" d="M45 1090l229 307h258l-274 -307h-213z" />
<glyph unicode="&#xb8;" horiz-adv-x="541" d="M61 -381l57 100q52 -37 115 -37q82 0 82 57q0 64 -96 64h-78l67 197h134l-31 -96q168 -8 168 -156q0 -79 -52 -133q-59 -60 -169 -60q-107 0 -197 64z" />
<glyph unicode="&#xbb;" horiz-adv-x="1198" d="M72 238l283 239l-283 248l115 129l430 -377l-426 -375zM545 238l281 239l-281 248l113 129l430 -377l-426 -375z" />
<glyph unicode="&#x2c6;" horiz-adv-x="866" d="M76 1090l229 307h256l230 -307h-213l-146 194l-143 -194h-213z" />
<glyph unicode="&#x2da;" horiz-adv-x="573" d="M63 1151q0 97 71 164q63 59 150 59q96 0 164 -75q59 -65 59 -148q0 -100 -75 -166q-64 -55 -148 -55q-102 0 -166 71q-55 62 -55 150zM198 1151q0 -35 25.5 -60.5t60.5 -25.5q36 0 62 25t26 61q0 37 -25.5 62.5t-62.5 25.5q-36 0 -61 -25.5t-25 -62.5z" />
<glyph unicode="&#x2dc;" horiz-adv-x="926" d="M92 1065q0 94 41 167q58 105 184 105q67 0 159 -64q62 -42 91 -42q74 0 74 106h174q1 -77 -33 -150q-58 -122 -192 -122q-70 0 -162 63q-59 41 -88 41q-74 0 -74 -104h-174z" />
<glyph unicode="&#x400;" horiz-adv-x="1038" d="M84 0v193h104v765h-104v193h891v-342h-225v149h-312v-272h215v-193h-215v-300h312v167h225v-360h-891zM305 1593h256l229 -307h-213z" />
<glyph unicode="&#x401;" horiz-adv-x="1038" d="M84 0v193h104v765h-104v193h891v-342h-225v149h-312v-272h215v-193h-215v-300h312v167h225v-360h-891zM203 1286v238h246v-238h-246zM629 1286v238h246v-238h-246z" />
<glyph unicode="&#x402;" horiz-adv-x="1370" d="M41 805l26 346h955l28 -346l-200 -11l-10 164h-170v-309q100 41 221 41q197 0 308 -106q97 -94 97 -246v-14q0 -173 -105 -255q-88 -69 -245 -69v193q54 0 77 30.5t23 100.5v14q0 83 -41 117q-45 37 -153 37q-96 0 -182 -39v-260h125v-193h-521v193h146v765h-171l-8 -164 z" />
<glyph unicode="&#x403;" horiz-adv-x="983" d="M84 0v193h104v765h-104v193h819l39 -389l-223 -15l-16 211h-265v-765h107v-193h-461zM313 1286l229 307h258l-274 -307h-213z" />
<glyph unicode="&#x404;" horiz-adv-x="1010" d="M63 572q0 284 151 456q132 150 328 150q65 0 126.5 -26t96.5 -68l21 67h162v-362h-193q-26 182 -184 182q-214 0 -236 -303h412v-182h-412q15 -161 94 -239q64 -65 162 -65q58 0 114.5 31t86.5 78l152 -152q-49 -71 -153.5 -117.5t-217.5 -46.5q-251 0 -391 188 q-119 160 -119 409z" />
<glyph unicode="&#x405;" horiz-adv-x="1012" d="M63 853q0 154 117 243q104 80 270 80q70 0 144.5 -26t119.5 -66l23 67h176v-362h-211q-4 54 -37 105q-56 86 -172 86q-164 0 -164 -125q0 -69 51 -107.5t201 -82.5q190 -56 261 -114q106 -86 106 -240q0 -180 -125 -268q-97 -68 -250 -68q-88 0 -168 28.5t-117 72.5 l-21 -76h-184v348h211q12 -49 53 -96q69 -78 185 -78q71 0 110.5 32t39.5 89q0 58 -46 90.5t-182 71.5q-199 57 -277 122q-114 97 -114 274z" />
<glyph unicode="&#x406;" horiz-adv-x="707" d="M82 0v193h147v765h-147v193h543v-193h-146v-765h146v-193h-543z" />
<glyph unicode="&#x407;" horiz-adv-x="717" d="M23 1286v238h246v-238h-246zM86 0v193h147v765h-147v193h543v-193h-146v-765h146v-193h-543zM449 1286v238h246v-238h-246z" />
<glyph unicode="&#x408;" horiz-adv-x="1006" d="M82 94v312h225v-187q46 -37 131 -37q131 0 131 177v599h-186v193h543v-193h-107v-599q0 -205 -117 -303q-98 -81 -268 -81q-174 0 -352 119z" />
<glyph unicode="&#x409;" horiz-adv-x="1628" d="M61 0v193h55q195 0 195 253v512h-107v193h901v-193h-104v-274h172q194 0 306 -90q113 -91 113 -254q0 -184 -143 -273q-109 -67 -276 -67h-528v193h106v765h-200v-483q0 -252 -101 -362q-104 -113 -334 -113h-55zM1001 193h161q96 0 144 52q36 39 36 95q0 68 -49 108.5 t-131 40.5h-161v-296z" />
<glyph unicode="&#x40a;" horiz-adv-x="1688" d="M84 0v193h104v765h-104v193h459v-193h-105v-278h373v278h-104v193h460v-193h-106v-274h174q192 0 305 -90q112 -91 112 -254q0 -184 -143 -273q-109 -67 -274 -67h-528v193h104v294h-373v-294h105v-193h-459zM1061 193h163q96 0 144 52q36 39 36 95q0 68 -49 108.5 t-131 40.5h-163v-296z" />
<glyph unicode="&#x40b;" horiz-adv-x="1364" d="M41 833l24 318h957l27 -318l-201 -12l-9 137h-171v-360q129 86 243 86q166 0 246 -93q68 -80 68 -222v-176h106v-193h-461v193h105v115q0 99 -21 137q-27 47 -98 47q-85 0 -188 -68v-231h106v-193h-461v193h107v765h-173l-8 -137z" />
<glyph unicode="&#x40c;" horiz-adv-x="1087" d="M84 0v193h104v765h-104v193h436v-193h-86v-278h80q53 0 90.5 45t75.5 155l94 271h277v-193h-105l-49 -137q-68 -194 -151 -237q84 -47 133 -182l74 -209h104v-193h-277l-114 332q-29 85 -64 121.5t-88 36.5h-80v-297h86v-193h-436zM360 1286l229 307h258l-274 -307h-213z " />
<glyph unicode="&#x40d;" horiz-adv-x="1241" d="M84 0v193h104v765h-104v193h436v-193h-105v-579l403 772h339v-193h-104v-765h104v-193h-438v193h107v564l-401 -757h-341zM367 1593h256l229 -307h-213z" />
<glyph unicode="&#x40e;" horiz-adv-x="1047" d="M31 958v193h397v-193h-88l182 -417l197 417h-84v193h381v-193h-72l-344 -714q-73 -150 -140.5 -197t-209.5 -47h-172v193h172q103 0 151 111l13 26l-307 628h-76zM178 1581h178q0 -165 172 -165t172 165h178q0 -117 -55 -194q-87 -121 -295 -121q-233 0 -313 150 q-37 69 -37 165z" />
<glyph unicode="&#x40f;" horiz-adv-x="1251" d="M84 0v193h104v765h-104v193h461v-193h-107v-765h375v765h-106v193h460v-193h-106v-765h106v-193h-430v-276h-223v276h-430z" />
<glyph unicode="&#x410;" horiz-adv-x="1167" d="M31 0v193h84l301 765h-133v193h418l352 -958h84v-193h-416v193h104l-59 165h-364l-62 -165h107v-193h-416zM467 528h234l-117 326z" />
<glyph unicode="&#x411;" horiz-adv-x="1085" d="M84 0v193h104v765h-104v193h866v-338h-223v145h-289v-274h174q193 0 306 -90q112 -91 112 -254q0 -184 -143 -273q-109 -67 -275 -67h-528zM438 193h164q96 0 144 52q36 39 36 95q0 68 -49 108.5t-131 40.5h-164v-296z" />
<glyph unicode="&#x412;" horiz-adv-x="1094" d="M84 0v193h104v765h-104v193h499q153 0 260 -74q121 -84 121 -240q0 -91 -39.5 -156.5t-105.5 -84.5q104 -28 160 -102q51 -68 51 -168q0 -168 -142 -257q-111 -69 -276 -69h-528zM438 193h164q97 0 145 53q35 39 35 94q0 68 -49 108.5t-131 40.5h-164v-296zM438 684h121 q155 0 155 137t-157 137h-119v-274z" />
<glyph unicode="&#x413;" horiz-adv-x="983" d="M84 0v193h104v765h-104v193h819l39 -389l-223 -15l-16 211h-265v-765h107v-193h-461z" />
<glyph unicode="&#x414;" horiz-adv-x="1167" d="M51 193h141q60 43 86.5 108.5t26.5 171.5v485h-107v193h885v-193h-104v-765h104v-469h-223v276h-586v-276h-223v469zM450 193h279v765h-176v-485q0 -90 -28 -167t-75 -113z" />
<glyph unicode="&#x415;" horiz-adv-x="1038" d="M84 0v193h104v765h-104v193h891v-342h-225v149h-312v-272h215v-193h-215v-300h312v167h225v-360h-891z" />
<glyph unicode="&#x416;" horiz-adv-x="1550" d="M31 0v193h104l74 209q49 135 133 182q-83 43 -151 237l-50 137h-104v193h276l95 -271q38 -110 75.5 -155t90.5 -45h80v278h-107v193h457v-193h-106v-278h79q54 0 92.5 45.5t75.5 154.5l93 271h276v-193h-104l-50 -137q-68 -194 -151 -237q84 -47 133 -182l74 -209h104 v-193h-276l-115 332q-28 85 -63 121.5t-89 36.5h-79v-297h106v-193h-457v193h107v297h-80q-54 0 -89 -36.5t-63 -121.5l-115 -332h-276z" />
<glyph unicode="&#x417;" horiz-adv-x="999" d="M82 791v360h160l22 -76q38 47 106 75t144 28q193 0 297 -111q80 -87 80 -210q0 -101 -52 -173q-48 -67 -133 -96q119 -29 179 -115q51 -72 51 -174q0 -176 -157 -261q-116 -63 -285 -63q-127 0 -216 25t-192 90l123 176q46 -36 115.5 -60t130.5 -24q114 0 168 53 q41 40 41 99q0 81 -55.5 118.5t-176.5 37.5h-41v182h41q101 0 153 50q42 40 42 102q0 79 -57 119q-44 32 -111 32q-120 0 -165 -101q-19 -43 -20 -83h-192z" />
<glyph unicode="&#x418;" horiz-adv-x="1241" d="M84 0v193h104v765h-104v193h436v-193h-105v-579l403 772h339v-193h-104v-765h104v-193h-438v193h107v564l-401 -757h-341z" />
<glyph unicode="&#x419;" horiz-adv-x="1241" d="M84 0v193h104v765h-104v193h436v-193h-105v-579l403 772h339v-193h-104v-765h104v-193h-438v193h107v564l-401 -757h-341zM277 1581h178q0 -165 172 -165t172 165h178q0 -117 -55 -194q-87 -121 -295 -121q-233 0 -313 150q-37 69 -37 165z" />
<glyph unicode="&#x41a;" horiz-adv-x="1087" d="M84 0v193h104v765h-104v193h436v-193h-86v-278h80q53 0 90.5 45t75.5 155l94 271h277v-193h-105l-49 -137q-68 -194 -151 -237q84 -47 133 -182l74 -209h104v-193h-277l-114 332q-29 85 -64 121.5t-88 36.5h-80v-297h86v-193h-436z" />
<glyph unicode="&#x41b;" horiz-adv-x="1192" d="M51 0v193h57q86 0 129 40q64 60 64 214v511h-107v193h914v-193h-105v-765h105v-193h-461v193h106v765h-202v-511q0 -226 -101 -334q-106 -113 -334 -113h-65z" />
<glyph unicode="&#x41c;" horiz-adv-x="1497" d="M84 0v193h104v765h-104v193h465l198 -463l199 463h467v-193h-106v-765h106v-193h-455v193h105v706l-234 -514h-161l-236 518v-710h107v-193h-455z" />
<glyph unicode="&#x41d;" horiz-adv-x="1251" d="M84 0v193h104v765h-104v193h461v-193h-107v-282h375v282h-106v193h460v-193h-106v-765h106v-193h-460v193h106v290h-375v-290h107v-193h-461z" />
<glyph unicode="&#x41e;" horiz-adv-x="1165" d="M63 582q0 270 145 436q140 160 375 160q268 0 408 -204q110 -159 110 -392q0 -273 -144 -443q-139 -164 -374 -164q-267 0 -409 210q-111 163 -111 397zM335 582q0 -195 65 -299q64 -101 183 -101q135 0 199 130q49 102 49 270q0 192 -65 292q-64 97 -183 97 q-136 0 -199 -124q-49 -98 -49 -265z" />
<glyph unicode="&#x41f;" horiz-adv-x="1237" d="M84 0v193h104v765h-104v193h1069v-193h-104v-765h104v-193h-455v193h107v765h-373v-765h107v-193h-455z" />
<glyph unicode="&#x420;" horiz-adv-x="1079" d="M82 0v193h106v765h-106v193h483q453 0 453 -358q0 -367 -453 -367h-127v-233h105v-193h-461zM438 619h127q199 0 199 174q0 165 -199 165h-127v-339z" />
<glyph unicode="&#x421;" horiz-adv-x="1010" d="M63 572q0 284 151 456q132 150 328 150q65 0 126.5 -26t97.5 -68l20 67h162v-362h-193q-28 182 -184 182q-240 0 -240 -406q0 -202 83 -302q67 -81 177 -81q58 0 114.5 30.5t86.5 78.5l152 -152q-49 -71 -153.5 -117.5t-217.5 -46.5q-251 0 -391 188q-119 160 -119 409z " />
<glyph unicode="&#x422;" horiz-adv-x="1118" d="M41 672l39 479h956l39 -479l-201 -13l-21 299h-171v-765h145v-193h-538v193h143v765h-170l-18 -299z" />
<glyph unicode="&#x423;" horiz-adv-x="1047" d="M31 958v193h397v-193h-88l182 -417l197 417h-84v193h381v-193h-72l-344 -714q-73 -150 -140.5 -197t-209.5 -47h-172v193h172q103 0 151 111l13 26l-307 628h-76z" />
<glyph unicode="&#x424;" horiz-adv-x="1124" d="M23 584q0 116 131 193q111 66 285 85v96h-109v193h465v-193h-108v-96q200 -22 314 -104q101 -73 101 -174q0 -123 -123 -202q-109 -70 -292 -89v-100h108v-193h-465v193h109v100q-196 17 -303 88q-113 75 -113 203zM273 575q0 -56 39 -85t127 -37v249q-87 -8 -126.5 -38 t-39.5 -89zM687 453q86 8 125.5 37.5t39.5 84.5q0 109 -165 125v-247z" />
<glyph unicode="&#x425;" horiz-adv-x="1096" d="M33 0v193h86l260 380l-260 385h-86v193h442v-193h-76l148 -247l162 247h-88v193h442v-193h-86l-266 -364l266 -401h86v-193h-442v193h88l-162 258l-160 -258h88v-193h-442z" />
<glyph unicode="&#x426;" horiz-adv-x="1251" d="M84 0v193h104v765h-104v193h461v-193h-107v-765h375v765h-106v193h460v-193h-106v-765h106v-469h-225v276h-858z" />
<glyph unicode="&#x427;" horiz-adv-x="1174" d="M31 958v193h461v-193h-107v-182q0 -98 23 -136q27 -46 98 -46q52 0 120 19.5t109 45.5v299h-106v193h461v-193h-107v-765h107v-193h-461v193h106v295q-125 -86 -286 -86q-166 0 -246 92q-68 79 -68 221v243h-104z" />
<glyph unicode="&#x428;" horiz-adv-x="1608" d="M84 0v193h104v765h-104v193h420v-193h-66v-765h242v765h-66v193h379v-193h-65v-765h241v765h-63v193h418v-193h-105v-765h105v-193h-1440z" />
<glyph unicode="&#x429;" horiz-adv-x="1608" d="M84 0v193h104v765h-104v193h420v-193h-66v-765h242v765h-66v193h379v-193h-65v-765h241v765h-63v193h418v-193h-105v-765h105v-469h-223v276h-1217z" />
<glyph unicode="&#x42a;" horiz-adv-x="1331" d="M41 829v322h928v-193h-283v-274h172q195 0 307 -90q113 -91 113 -254q0 -184 -144 -273q-108 -67 -276 -67h-528v193h106v765h-170v-129h-225zM686 193h162q95 0 144 52q36 39 36 95q0 68 -49 108.5t-131 40.5h-162v-296z" />
<glyph unicode="&#x42b;" horiz-adv-x="1618" d="M84 0v193h104v765h-104v193h461v-193h-107v-274h175q192 0 305 -90q112 -91 112 -254q0 -184 -143 -273q-109 -67 -274 -67h-529zM438 193h164q96 0 144 52q36 39 36 95q0 68 -49 108.5t-131 40.5h-164v-296zM1075 0v193h105v765h-105v193h461v-193h-106v-765h106v-193 h-461z" />
<glyph unicode="&#x42c;" horiz-adv-x="1083" d="M84 0v193h104v765h-104v193h461v-193h-107v-274h175q192 0 305 -90q112 -91 112 -254q0 -184 -143 -273q-109 -67 -274 -67h-529zM438 193h164q96 0 144 52q36 39 36 95q0 68 -49 108.5t-131 40.5h-164v-296z" />
<glyph unicode="&#x42d;" horiz-adv-x="1012" d="M63 789v362h158l22 -67q33 41 96 67.5t128 26.5q226 0 362 -193q117 -167 117 -413q0 -288 -153 -451q-137 -146 -357 -146q-170 0 -294 90q-52 39 -77 74l152 152q30 -47 87.5 -78t115.5 -31q111 0 179 85q63 78 77 219h-334v182h334q-29 303 -236 303q-159 0 -184 -182 h-193z" />
<glyph unicode="&#x42e;" horiz-adv-x="1716" d="M84 0v193h104v765h-104v193h459v-193h-105v-288h181q23 235 165 374q137 134 351 134q268 0 408 -204q110 -159 110 -392q0 -273 -144 -442q-139 -165 -374 -165q-242 0 -384 173q-111 135 -132 340h-181v-295h105v-193h-459zM887 578q0 -194 65 -296q64 -100 183 -100 q135 0 197 128q49 100 49 268q0 393 -246 393q-135 0 -199 -126q-49 -100 -49 -267z" />
<glyph unicode="&#x42f;" horiz-adv-x="1108" d="M23 0v193h125l168 307q-118 36 -175 128q-46 75 -46 176q0 347 457 347h472v-193h-104v-765h104v-193h-454v193h106v266h-63q-41 0 -61 2l-242 -461h-287zM351 807q0 -77 43 -115q48 -41 155 -41h127v307h-124q-105 0 -153 -36t-48 -115z" />
<glyph unicode="&#x430;" horiz-adv-x="993" d="M63 284q0 156 127 230q87 51 202 51h197v45q0 71 -47 102.5t-152 31.5q-120 0 -217 -48l-55 176q158 54 289 54q426 0 426 -359v-385h107v-182h-310l-18 69q-45 -42 -112 -68t-134 -26q-156 0 -234 91q-69 79 -69 218zM294 268q0 -49 32.5 -78t88.5 -29q84 0 174 70v162 h-119q-176 0 -176 -125z" />
<glyph unicode="&#x431;" horiz-adv-x="1004" d="M63 559v80q0 282 81 426q96 170 308 170q295 0 369 49l51 -170q-36 -24 -128.5 -41.5t-182.5 -17.5q-132 0 -185 -34q-66 -43 -71 -153q84 58 198 58q203 0 316 -137q102 -126 102 -338q0 -214 -107 -341q-114 -135 -329 -135q-422 0 -422 584zM307 446q0 -154 64 -226 q48 -53 124 -53q182 0 182 284q0 154 -61 227q-47 56 -121 56q-90 0 -140 -76q-48 -75 -48 -212z" />
<glyph unicode="&#x432;" horiz-adv-x="999" d="M74 0v182h104v535h-104v182h428q381 0 381 -225q0 -76 -35 -124t-113 -77q105 -20 160 -81q51 -56 51 -136q0 -131 -140 -201q-112 -55 -275 -55h-457zM422 182h119q163 0 163 100q0 99 -163 99h-119v-199zM422 541h90q127 0 127 88t-127 88h-90v-176z" />
<glyph unicode="&#x433;" horiz-adv-x="954" d="M74 717v182h796l23 -387l-199 -16l-16 221h-229v-535h104v-182h-461v182h107v535h-125z" />
<glyph unicode="&#x434;" horiz-adv-x="1106" d="M51 182h111q60 46 85 112.5t25 178.5v244h-94v182h854v-182h-104v-535h104v-458h-223v276h-535v-276h-223v458zM413 182h271v535h-168v-244q0 -192 -103 -291z" />
<glyph unicode="&#x435;" d="M63 461q0 201 106 328q114 137 326 137q416 0 416 -530v-27h-592q3 -121 95 -171q54 -30 126 -30q56 0 114 29.5t93 75.5l152 -134q-49 -71 -154 -117.5t-219 -46.5q-258 0 -379 180q-84 126 -84 306zM319 545h340q0 189 -164 189q-176 0 -176 -189z" />
<glyph unicode="&#x436;" horiz-adv-x="1534" d="M51 0v182h107l73 129q63 112 130 146q-85 28 -148 151l-55 109h-107v182h279l98 -215q38 -84 75 -119t91 -35h59v187h-106v182h454v-182h-104v-187h59q55 0 91.5 34.5t74.5 119.5l98 215h263v-182h-105l-53 -107q-35 -73 -64.5 -106t-72.5 -47q85 -43 131 -146l59 -129 h105v-182h-263l-112 260q-29 65 -64 93t-88 28h-59v-199h104v-182h-454v182h106v199h-59q-53 0 -88 -28t-64 -93l-112 -260h-279z" />
<glyph unicode="&#x437;" horiz-adv-x="825" d="M53 57l94 166q46 -29 111.5 -47.5t120.5 -18.5q166 0 166 105q0 48 -39 69t-127 21h-47v178h47q164 0 164 100q0 111 -164 111q-110 0 -150 -70q-16 -29 -16 -57h-160v285h125l21 -72q95 99 252 99q165 0 248 -96q61 -71 61 -173q0 -77 -41 -131.5t-115 -77.5 q168 -56 168 -217q0 -143 -132 -209q-95 -47 -247 -47q-209 0 -340 82z" />
<glyph unicode="&#x438;" horiz-adv-x="1178" d="M74 0v182h104v535h-104v182h436v-182h-105v-398l360 580h339v-182h-104v-535h104v-182h-438v182h105v385l-356 -567h-341z" />
<glyph unicode="&#x439;" horiz-adv-x="1178" d="M74 0v182h104v535h-104v182h436v-182h-105v-398l360 580h339v-182h-104v-535h104v-182h-438v182h105v385l-356 -567h-341zM256 1448h178q0 -165 172 -165t172 165h178q0 -116 -56 -194q-88 -121 -294 -121q-231 0 -312 150q-38 69 -38 165z" />
<glyph unicode="&#x43a;" horiz-adv-x="1057" d="M74 0v182h104v535h-104v182h350v-348h80q52 0 89 45t77 156l53 147h283v-182h-107l-61 -135q-45 -96 -102 -127q68 -27 108 -126l55 -147h107v-182h-283l-67 202q-29 85 -63.5 120.5t-88.5 35.5h-80v-358h-350z" />
<glyph unicode="&#x43b;" horiz-adv-x="1081" d="M41 0v182h37q75 0 104 33t29 117v385h-104v182h901v-182h-107v-535h107v-182h-455v182h106v535h-204v-346q0 -194 -68 -272q-86 -99 -309 -99h-37z" />
<glyph unicode="&#x43c;" horiz-adv-x="1360" d="M74 0v182h104v535h-104v182h434l172 -373l172 373h434v-182h-106v-535h106v-182h-454v182h104v465l-174 -344h-163l-177 348v-469h107v-182h-455z" />
<glyph unicode="&#x43d;" horiz-adv-x="1155" d="M74 0v182h104v535h-104v182h434v-182h-86v-179h311v179h-86v182h435v-182h-105v-535h105v-182h-435v182h86v174h-311v-174h86v-182h-434z" />
<glyph unicode="&#x43e;" horiz-adv-x="983" d="M63 451q0 226 138 360q117 115 290 115q200 0 321 -148q107 -131 107 -327q0 -228 -137 -362q-118 -114 -291 -114q-200 0 -321 147q-107 130 -107 329zM307 451q0 -284 184 -284t184 284q0 155 -61 227q-46 56 -123 56q-90 0 -138 -74q-46 -73 -46 -209z" />
<glyph unicode="&#x43f;" horiz-adv-x="1151" d="M74 0v182h104v535h-104v182h1004v-182h-105v-535h105v-182h-435v182h86v535h-307v-535h86v-182h-434z" />
<glyph unicode="&#x440;" horiz-adv-x="1112" d="M72 -185h106v902h-106v182h350v-104q88 131 254 131t266 -110q109 -122 109 -359q0 -271 -137 -395q-96 -87 -236 -87q-169 0 -256 129v-289h105v-182h-455v182zM414 457q0 -153 68 -230q52 -59 129 -59q88 0 142 77q54 78 54 212q0 152 -69 224q-51 53 -127 53 q-91 0 -143 -71q-54 -73 -54 -206z" />
<glyph unicode="&#x441;" horiz-adv-x="926" d="M63 450q0 212 120 348q112 128 287 128q66 0 123.5 -19t81.5 -49l17 41h147v-328h-174q-20 162 -166 162q-100 0 -150 -85q-42 -73 -42 -198q0 -140 67 -218q56 -65 144 -65q50 0 104.5 29.5t89.5 75.5l150 -129q-68 -78 -134 -114q-99 -54 -237 -54q-189 0 -311 137 q-117 130 -117 338z" />
<glyph unicode="&#x442;" horiz-adv-x="1069" d="M62 512l18 387h903l22 -387l-182 -10l-14 215h-153v-535h106v-182h-454v182h104v535h-151l-15 -215z" />
<glyph unicode="&#x443;" horiz-adv-x="1106" d="M51 717v182h391v-182h-90l200 -494l199 494h-88v182h392v-182h-68l-381 -814q-74 -159 -149.5 -214.5t-219.5 -55.5h-153v182h153q92 0 146 92l51 95l-317 715h-66z" />
<glyph unicode="&#x444;" horiz-adv-x="1626" d="M63 457q0 268 138 387q95 82 237 82q154 0 252 -131v290l-99 -6l-12 182l355 25v-491q91 131 253 131q166 0 266 -110q109 -122 109 -359q0 -269 -138 -394q-97 -88 -237 -88q-78 0 -156.5 37.5t-115.5 91.5v-289h115v-182h-455v182h115v289q-87 -129 -252 -129t-266 117 q-109 126 -109 365zM301 457q0 -158 70 -238q53 -60 130 -60q92 0 147 80q56 79 56 218q0 155 -71 230q-52 55 -132 55q-91 0 -145 -74q-55 -75 -55 -211zM921 457q0 -158 70 -238q54 -60 131 -60q91 0 147 80q55 79 55 218q0 155 -71 230q-52 55 -131 55q-91 0 -146 -74 q-55 -75 -55 -211z" />
<glyph unicode="&#x445;" horiz-adv-x="995" d="M70 0v182h68l201 269l-201 266h-66v182h365v-182h-60l121 -176l120 176h-59v182h365v-182h-68l-199 -260l201 -275h66v-182h-367v182h61l-120 195l-123 -195h62v-182h-367z" />
<glyph unicode="&#x446;" horiz-adv-x="1151" d="M74 0v182h104v535h-104v182h434v-182h-86v-535h307v535h-86v182h435v-182h-105v-535h105v-458h-223v276h-781z" />
<glyph unicode="&#x447;" horiz-adv-x="1108" d="M31 717v182h434v-182h-86v-82q0 -98 22 -136q28 -46 99 -46q86 0 186 65v199h-86v182h435v-182h-105v-535h105v-182h-455v182h106v164q-125 -86 -243 -86q-308 0 -308 314v143h-104z" />
<glyph unicode="&#x448;" horiz-adv-x="1569" d="M74 0v182h104v535h-104v182h414v-182h-66v-535h242v535h-66v182h373v-182h-63v-535h239v535h-65v182h415v-182h-106v-535h106v-182h-1423z" />
<glyph unicode="&#x449;" horiz-adv-x="1569" d="M74 0v183h104v534h-104v182h414v-182h-66v-534h242v534h-66v182h373v-182h-63v-534h239v534h-65v182h415v-182h-106v-534h106v-459h-225v276h-1198z" />
<glyph unicode="&#x44a;" horiz-adv-x="1128" d="M31 588v311h662v-182h-107v-177h140q164 0 258 -72q92 -71 92 -198q0 -145 -118 -215q-90 -55 -232 -55h-488v182h104v535h-108v-129h-203zM586 182h121q127 0 127 88t-127 88h-121v-176z" />
<glyph unicode="&#x44b;" horiz-adv-x="1520" d="M74 0v182h104v535h-104v182h455v-182h-107v-177h140q165 0 259 -72q93 -71 93 -198q0 -145 -119 -215q-91 -55 -233 -55h-488zM422 182h121q127 0 127 88t-127 88h-121v-176zM985 0v182h107v535h-107v182h461v-182h-106v-535h106v-182h-461z" />
<glyph unicode="&#x44c;" horiz-adv-x="965" d="M74 0v182h104v535h-104v182h455v-182h-107v-177h140q165 0 259 -72q93 -71 93 -198q0 -145 -119 -215q-91 -55 -233 -55h-488zM422 182h121q127 0 127 88t-127 88h-121v-176z" />
<glyph unicode="&#x44d;" horiz-adv-x="926" d="M64 143l158 135q31 -42 83.5 -69t102.5 -27q158 0 203 170h-223v182h227q-29 199 -186 199q-148 0 -168 -162h-172v328h147l14 -41q25 30 83 49t122 19q202 0 317 -163q93 -131 93 -313q0 -237 -150 -370q-118 -105 -278 -105q-122 0 -208.5 39t-164.5 129z" />
<glyph unicode="&#x44e;" horiz-adv-x="1493" d="M74 0v182h104v535h-104v182h461v-182h-107v-166h154q30 182 157 285q111 90 263 90q200 0 321 -148q107 -130 107 -327q0 -228 -137 -362q-118 -114 -291 -114q-179 0 -298 121q-105 106 -126 273h-150v-187h107v-182h-461zM818 451q0 -284 184 -284t184 284 q0 155 -60 227q-47 56 -124 56q-90 0 -138 -74q-46 -72 -46 -209z" />
<glyph unicode="&#x44f;" horiz-adv-x="1012" d="M53 0v182h115l122 197q-77 20 -121 84t-44 155q0 148 89 215q89 66 279 66h445v-182h-107v-535h107v-182h-316v338h-123l-198 -338h-248zM342 618q0 -96 131 -96h149v195h-149q-131 0 -131 -99z" />
<glyph unicode="&#x450;" d="M63 461q0 201 106 328q114 137 326 137q416 0 416 -530v-27h-592q3 -121 95 -171q54 -30 126 -30q56 0 114 29.5t93 75.5l152 -134q-49 -71 -154 -117.5t-219 -46.5q-258 0 -379 180q-84 126 -84 306zM233 1397h256l229 -307h-213zM319 545h340q0 189 -164 189 q-176 0 -176 -189z" />
<glyph unicode="&#x451;" d="M63 461q0 201 106 328q114 137 326 137q416 0 416 -530v-27h-592q3 -121 95 -171q54 -30 126 -30q56 0 114 29.5t93 75.5l152 -134q-49 -71 -154 -117.5t-219 -46.5q-258 0 -379 180q-84 126 -84 306zM167 1089v238h246v-238h-246zM319 545h340q0 189 -164 189 q-176 0 -176 -189zM593 1089v238h246v-238h-246z" />
<glyph unicode="&#x452;" horiz-adv-x="1008" d="M53 0v182h106v812h-106v182h106v143h242v-143h184v-182h-184v-165q93 97 246 97q145 0 227 -76q78 -73 78 -203v-588q0 -205 -113 -318q-108 -108 -299 -108v183q94 0 131 53.5t37 189.5v504q0 96 -26 133t-93 37q-50 0 -82 -11.5t-106 -56.5v-483h107v-182h-455z" />
<glyph unicode="&#x453;" horiz-adv-x="954" d="M74 717v182h796l23 -387l-199 -16l-16 221h-229v-535h104v-182h-461v182h107v535h-125zM285 1090l229 307h258l-274 -307h-213z" />
<glyph unicode="&#x454;" horiz-adv-x="926" d="M63 450q0 212 120 348q112 128 287 128q66 0 123.5 -19t81.5 -49l17 41h147v-328h-174q-20 162 -166 162q-77 0 -125.5 -51.5t-60.5 -147.5h227v-182h-225q21 -82 73.5 -126t129.5 -44q50 0 103 27t85 69l156 -135q-68 -78 -134 -114q-99 -54 -237 -54q-189 0 -311 137 q-117 130 -117 338z" />
<glyph unicode="&#x455;" horiz-adv-x="885" d="M66 0v268h162q24 -46 88 -75.5t139 -29.5q123 0 123 80q0 47 -29 64t-145 39q-168 31 -238 83q-98 72 -98 216q0 123 72 197q81 84 244 84q68 0 133 -21t96 -53l19 47h143v-266h-164q-10 46 -64.5 75.5t-129.5 29.5q-119 0 -119 -78q0 -46 32 -63.5t165 -41.5 q166 -30 233 -79q92 -67 92 -202q0 -167 -117 -244q-84 -55 -217 -55q-65 0 -138 24t-120 60l-19 -59h-143z" />
<glyph unicode="&#x456;" horiz-adv-x="586" d="M74 0v182h106v535h-106v182h350v-717h109v-182h-459zM170 1089v238h246v-238h-246z" />
<glyph unicode="&#x457;" horiz-adv-x="575" d="M-49 1089v238h246v-238h-246zM70 0v182h106v535h-106v182h350v-717h109v-182h-459zM377 1089v238h246v-238h-246z" />
<glyph unicode="&#x458;" horiz-adv-x="598" d="M-113 -185h138q181 0 181 234v668h-167v182h411v-828q0 -245 -119 -351q-96 -87 -278 -87h-166v182zM206 1089v238h246v-238h-246z" />
<glyph unicode="&#x459;" horiz-adv-x="1440" d="M41 0v182h37q75 0 104 33t29 116v386h-123v182h916v-182h-105v-177h138q165 0 259 -72q93 -71 93 -198q0 -145 -119 -215q-91 -55 -233 -55h-488v182h106v535h-200v-347q0 -193 -68 -271q-86 -99 -309 -99h-37zM899 182h121q67 0 96 20.5t29 67.5t-29 67.5t-96 20.5h-121 v-176z" />
<glyph unicode="&#x45a;" horiz-adv-x="1518" d="M74 0v182h104v535h-104v182h434v-182h-86v-177h311v177h-86v182h435v-182h-105v-177h138q165 0 259 -72q93 -71 93 -198q0 -145 -119 -215q-91 -55 -233 -55h-468v182h86v176h-311v-176h86v-182h-434zM977 182h123q67 0 95 20t28 68q0 47 -29 67.5t-96 20.5h-121v-176z " />
<glyph unicode="&#x45b;" horiz-adv-x="1110" d="M53 0v182h106v826h-106v182h106v96h242v-96h246v-182h-246v-181q102 99 246 99q163 0 233 -92q72 -96 72 -312v-340h107v-182h-437v182h86v340q0 106 -20 144q-27 53 -105 53q-98 0 -182 -68v-469h86v-182h-434z" />
<glyph unicode="&#x45c;" horiz-adv-x="1057" d="M74 0v182h104v535h-104v182h350v-348h80q52 0 89 45t77 156l53 147h283v-182h-107l-61 -135q-45 -96 -102 -127q68 -27 108 -126l55 -147h107v-182h-283l-67 202q-29 85 -63.5 120.5t-88.5 35.5h-80v-358h-350zM342 1090l229 307h258l-274 -307h-213z" />
<glyph unicode="&#x45d;" horiz-adv-x="1178" d="M74 0v182h104v535h-104v182h436v-182h-105v-398l360 580h339v-182h-104v-535h104v-182h-438v182h105v385l-356 -567h-341zM334 1397h256l229 -307h-213z" />
<glyph unicode="&#x45e;" horiz-adv-x="1106" d="M51 717v182h391v-182h-90l200 -494l199 494h-88v182h392v-182h-68l-381 -814q-74 -159 -149.5 -214.5t-219.5 -55.5h-153v182h153q92 0 146 92l51 95l-317 715h-66zM233 1448h178q0 -165 172 -165t172 165h178q0 -116 -56 -194q-88 -121 -294 -121q-231 0 -312 150 q-38 69 -38 165z" />
<glyph unicode="&#x45f;" horiz-adv-x="1149" d="M74 0v182h104v535h-104v182h434v-182h-86v-535h305v535h-86v182h437v-182h-107v-535h107v-182h-390v-276h-223v276h-391z" />
<glyph unicode="&#x462;" horiz-adv-x="1219" d="M31 760v297h295v94h250v-94h293v-297h-182v104h-111v-180h172q193 0 307 -90q113 -91 113 -254q0 -183 -144 -273q-109 -67 -276 -67h-529v193h107v671h-113v-104h-182zM576 193h162q96 0 144 52q36 39 36 95q0 68 -49 108.5t-131 40.5h-162v-296z" />
<glyph unicode="&#x463;" horiz-adv-x="1110" d="M31 633v266h295v252h242v-252h294v-266h-182v84h-112v-177h139q165 0 259 -72q93 -71 93 -198q0 -145 -119 -215q-91 -55 -233 -55h-488v182h107v535h-113v-84h-182zM568 182h120q68 0 97.5 20.5t29.5 67.5t-29.5 67.5t-97.5 20.5h-120v-176z" />
<glyph unicode="&#x472;" horiz-adv-x="1165" d="M63 582q0 271 145 436q140 160 375 160q268 0 408 -204q110 -159 110 -392q0 -273 -144 -442q-139 -165 -374 -165q-267 0 -409 210q-111 163 -111 397zM339 490q14 -152 79 -232q62 -76 165 -76q111 0 170 75t74 233h-488zM339 672h488q-32 299 -244 299 q-105 0 -172 -94q-57 -80 -72 -205z" />
<glyph unicode="&#x473;" horiz-adv-x="983" d="M63 450q0 227 138 361q117 115 290 115q200 0 321 -148q107 -131 107 -328q0 -227 -137 -361q-118 -114 -291 -114q-200 0 -321 147q-107 130 -107 328zM313 358q28 -191 178 -191q153 0 178 191h-356zM313 540h354q-26 193 -176 193q-149 0 -178 -193z" />
<glyph unicode="&#x474;" horiz-adv-x="1247" d="M33 958v193h428v-193h-90l205 -737l159 577q48 169 132 248q113 105 319 105v-193q-108 0 -159.5 -39t-84.5 -145l-235 -774h-281l-293 958h-100z" />
<glyph unicode="&#x475;" horiz-adv-x="1141" d="M51 717v182h410v-182h-92l172 -514l133 395q66 198 210 263q83 38 224 38v-182q-99 0 -143 -28q-52 -33 -84 -124l-209 -565h-281l-260 717h-80z" />
<glyph unicode="&#x490;" horiz-adv-x="989" d="M84 0v193h104v765h-104v193h633v254h203v-447h-482v-765h107v-193h-461z" />
<glyph unicode="&#x491;" horiz-adv-x="924" d="M53 0v182h106v535h-106v182h615v254h223v-436h-488v-535h105v-182h-455z" />
<glyph unicode="&#x4c0;" horiz-adv-x="707" d="M82 0v193h147v765h-147v193h543v-193h-146v-765h146v-193h-543z" />
<glyph unicode="&#x4cf;" horiz-adv-x="707" d="M82 0v193h147v765h-147v193h543v-193h-146v-765h146v-193h-543z" />
<glyph unicode="&#x2000;" horiz-adv-x="796" />
<glyph unicode="&#x2001;" horiz-adv-x="1593" />
<glyph unicode="&#x2002;" horiz-adv-x="796" />
<glyph unicode="&#x2003;" horiz-adv-x="1593" />
<glyph unicode="&#x2004;" horiz-adv-x="531" />
<glyph unicode="&#x2005;" horiz-adv-x="398" />
<glyph unicode="&#x2006;" horiz-adv-x="265" />
<glyph unicode="&#x2007;" horiz-adv-x="265" />
<glyph unicode="&#x2008;" horiz-adv-x="199" />
<glyph unicode="&#x2009;" horiz-adv-x="318" />
<glyph unicode="&#x200a;" horiz-adv-x="88" />
<glyph unicode="&#x2010;" horiz-adv-x="1053" d="M164 463v182h725v-182h-725z" />
<glyph unicode="&#x2011;" horiz-adv-x="1053" d="M164 463v182h725v-182h-725z" />
<glyph unicode="&#x2012;" horiz-adv-x="1053" d="M164 463v182h725v-182h-725z" />
<glyph unicode="&#x2013;" horiz-adv-x="1403" d="M164 463v182h1075v-182h-1075z" />
<glyph unicode="&#x2014;" horiz-adv-x="1559" d="M164 463v182h1231v-182h-1231z" />
<glyph unicode="&#x2018;" horiz-adv-x="489" d="M31 809l207 477h211l-144 -477h-274z" />
<glyph unicode="&#x2019;" horiz-adv-x="489" d="M31 809l143 477h275l-205 -477h-213z" />
<glyph unicode="&#x201a;" horiz-adv-x="518" d="M20 -332l162 541h274l-231 -541h-205z" />
<glyph unicode="&#x201c;" horiz-adv-x="905" d="M31 809l207 477h211l-144 -477h-274zM449 809l205 477h213l-144 -477h-274z" />
<glyph unicode="&#x201d;" horiz-adv-x="915" d="M41 809l143 477h275l-205 -477h-213zM457 809l143 477h275l-205 -477h-213z" />
<glyph unicode="&#x201e;" horiz-adv-x="932" d="M20 -332l162 541h274l-231 -541h-205zM434 -332l161 541h275l-232 -541h-204z" />
<glyph unicode="&#x2026;" horiz-adv-x="1694" d="M143 0v258h266v-258h-266zM714 0v258h264v-258h-264zM1284 0v258h266v-258h-266z" />
<glyph unicode="&#x202f;" horiz-adv-x="318" />
<glyph unicode="&#x2039;" horiz-adv-x="676" d="M41 477l430 377l113 -129l-281 -246l281 -241l-117 -136z" />
<glyph unicode="&#x203a;" horiz-adv-x="676" d="M92 238l281 241l-281 246l113 129l430 -377l-426 -375z" />
<glyph unicode="&#x205f;" horiz-adv-x="398" />
<glyph unicode="&#x20ac;" horiz-adv-x="1118" d="M41 342l59 190h72v39v50h-131l59 190h105q55 181 183 279q115 88 263 88q65 0 126.5 -26t97.5 -69l20 68h160v-362h-193q-26 182 -184 182q-153 0 -207 -160h277l-60 -190h-250v-56v-33h215l-59 -190h-117q64 -160 223 -160q58 0 114.5 30.5t86.5 78.5l152 -152 q-49 -71 -153.5 -117.5t-217.5 -46.5q-192 0 -322 112q-111 95 -157 255h-162z" />
<glyph unicode="&#x2122;" horiz-adv-x="1534" d="M62 922l20 229h559l21 -229l-130 -11l-10 107h-88v-348h109v-133h-362v133h108v348h-88l-10 -107zM709 537v133h55v348h-55v133h295l88 -227l100 227h281v-133h-55v-348h55v-133h-264v133h62v356l-116 -270h-129l-115 274v-360h62v-133h-264z" />
<glyph unicode="&#x25fc;" horiz-adv-x="900" d="M0 0v900h900v-900h-900z" />
</font>
</defs>
</svg>
